<?xml version="1.0" encoding="UTF-8" standalone="no"?>
<!DOCTYPE svg PUBLIC "-//W3C//DTD SVG 1.1//EN"
 "http://www.w3.org/Graphics/SVG/1.1/DTD/svg11.dtd">
<!-- Generated by graphviz version 2.46.0 (20210118.1747)
 -->
<!-- Title: html Pages: 1 -->
<svg width="155pt" height="158pt"
 viewBox="0.00 0.00 155.00 158.00" xmlns="http://www.w3.org/2000/svg" xmlns:xlink="http://www.w3.org/1999/xlink">
<g id="graph0" class="graph" transform="scale(1 1) rotate(0) translate(4 154)">
<title>html</title>
<polygon fill="white" stroke="transparent" points="-4,4 -4,-154 151,-154 151,4 -4,4"/>
<!-- abc -->
<g id="node1" class="node">
<title>abc</title>
<polygon fill="none" stroke="black" points="0.5,-125 0.5,-150 42.5,-150 42.5,-125 0.5,-125"/>
<text text-anchor="start" x="6" y="-133.8" font-family="Times New Roman,serif" font-size="14.00">Valor</text>
<polygon fill="none" stroke="black" points="42.5,-125 42.5,-150 79.5,-150 79.5,-125 42.5,-125"/>
<text text-anchor="start" x="47.5" y="-133.8" font-family="Times New Roman,serif" font-size="14.00">Hoja</text>
<polygon fill="none" stroke="black" points="79.5,-125 79.5,-150 147.5,-150 147.5,-125 79.5,-125"/>
<text text-anchor="start" x="85" y="-133.8" font-family="Times New Roman,serif" font-size="14.00">Siguientes</text>
<polygon fill="none" stroke="black" points="0.5,-100 0.5,-125 42.5,-125 42.5,-100 0.5,-100"/>
<text text-anchor="start" x="5.5" y="-108.8" font-family="Times New Roman,serif" font-size="14.00">digito</text>
<polygon fill="none" stroke="black" points="42.5,-100 42.5,-125 79.5,-125 79.5,-100 42.5,-100"/>
<text text-anchor="start" x="57.5" y="-108.8" font-family="Times New Roman,serif" font-size="14.00">1</text>
<polygon fill="none" stroke="black" points="79.5,-100 79.5,-125 147.5,-125 147.5,-100 79.5,-100"/>
<text text-anchor="start" x="84.5" y="-108.8" font-family="Times New Roman,serif" font-size="14.00">1,2,3,4,&#45;1,</text>
<polygon fill="none" stroke="black" points="0.5,-75 0.5,-100 42.5,-100 42.5,-75 0.5,-75"/>
<text text-anchor="start" x="9.5" y="-83.8" font-family="Times New Roman,serif" font-size="14.00">letra</text>
<polygon fill="none" stroke="black" points="42.5,-75 42.5,-100 79.5,-100 79.5,-75 42.5,-75"/>
<text text-anchor="start" x="57.5" y="-83.8" font-family="Times New Roman,serif" font-size="14.00">2</text>
<polygon fill="none" stroke="black" points="79.5,-75 79.5,-100 147.5,-100 147.5,-75 79.5,-75"/>
<text text-anchor="start" x="84.5" y="-83.8" font-family="Times New Roman,serif" font-size="14.00">1,2,3,4,&#45;1,</text>
<polygon fill="none" stroke="black" points="0.5,-50 0.5,-75 42.5,-75 42.5,-50 0.5,-50"/>
<text text-anchor="start" x="6.5" y="-58.8" font-family="Times New Roman,serif" font-size="14.00">Hello</text>
<polygon fill="none" stroke="black" points="42.5,-50 42.5,-75 79.5,-75 79.5,-50 42.5,-50"/>
<text text-anchor="start" x="57.5" y="-58.8" font-family="Times New Roman,serif" font-size="14.00">3</text>
<polygon fill="none" stroke="black" points="79.5,-50 79.5,-75 147.5,-75 147.5,-50 79.5,-50"/>
<polygon fill="none" stroke="black" points="0.5,-25 0.5,-50 42.5,-50 42.5,-25 0.5,-25"/>
<text text-anchor="start" x="5.5" y="-33.8" font-family="Times New Roman,serif" font-size="14.00">digito</text>
<polygon fill="none" stroke="black" points="42.5,-25 42.5,-50 79.5,-50 79.5,-25 42.5,-25"/>
<text text-anchor="start" x="57.5" y="-33.8" font-family="Times New Roman,serif" font-size="14.00">4</text>
<polygon fill="none" stroke="black" points="79.5,-25 79.5,-50 147.5,-50 147.5,-25 79.5,-25"/>
<text text-anchor="start" x="100.5" y="-33.8" font-family="Times New Roman,serif" font-size="14.00">4,&#45;1,</text>
<polygon fill="none" stroke="black" points="0.5,0 0.5,-25 42.5,-25 42.5,0 0.5,0"/>
<text text-anchor="start" x="17.5" y="-8.8" font-family="Times New Roman,serif" font-size="14.00">#</text>
<polygon fill="none" stroke="black" points="42.5,0 42.5,-25 79.5,-25 79.5,0 42.5,0"/>
<text text-anchor="start" x="55" y="-8.8" font-family="Times New Roman,serif" font-size="14.00">&#45;1</text>
<polygon fill="none" stroke="black" points="79.5,0 79.5,-25 147.5,-25 147.5,0 79.5,0"/>
</g>
</g>
</svg>
