<?xml version="1.0" encoding="UTF-8" standalone="no"?>
<!DOCTYPE svg PUBLIC "-//W3C//DTD SVG 1.1//EN"
 "http://www.w3.org/Graphics/SVG/1.1/DTD/svg11.dtd">
<!-- Generated by graphviz version 2.46.0 (20210118.1747)
 -->
<!-- Title: html Pages: 1 -->
<svg width="324pt" height="158pt"
 viewBox="0.00 0.00 324.00 158.00" xmlns="http://www.w3.org/2000/svg" xmlns:xlink="http://www.w3.org/1999/xlink">
<g id="graph0" class="graph" transform="scale(1 1) rotate(0) translate(4 154)">
<title>html</title>
<polygon fill="white" stroke="transparent" points="-4,4 -4,-154 320,-154 320,4 -4,4"/>
<!-- abc -->
<g id="node1" class="node">
<title>abc</title>
<polygon fill="skyblue" stroke="transparent" points="100,-100 100,-150 174,-150 174,-100 100,-100"/>
<polygon fill="none" stroke="black" points="100,-100 100,-150 174,-150 174,-100 100,-100"/>
<text text-anchor="start" x="105" y="-121.3" font-family="Times New Roman,serif" font-size="14.00">ESTADOS</text>
<polygon fill="lightgrey" stroke="transparent" points="174,-125 174,-150 316,-150 316,-125 174,-125"/>
<polygon fill="none" stroke="black" points="174,-125 174,-150 316,-150 316,-125 174,-125"/>
<text text-anchor="start" x="240.5" y="-133.8" font-family="Times New Roman,serif" font-size="14.00">Σ</text>
<polygon fill="none" stroke="black" points="174,-100 174,-125 216,-125 216,-100 174,-100"/>
<text text-anchor="start" x="179" y="-108.8" font-family="Times New Roman,serif" font-size="14.00">digito</text>
<polygon fill="none" stroke="black" points="216,-100 216,-125 250,-125 250,-100 216,-100"/>
<text text-anchor="start" x="221" y="-108.8" font-family="Times New Roman,serif" font-size="14.00">letra</text>
<polygon fill="none" stroke="black" points="250,-100 250,-125 290,-125 290,-100 250,-100"/>
<text text-anchor="start" x="255" y="-108.8" font-family="Times New Roman,serif" font-size="14.00">Hello</text>
<polygon fill="none" stroke="black" points="290,-100 290,-125 316,-125 316,-100 290,-100"/>
<text text-anchor="start" x="299" y="-108.8" font-family="Times New Roman,serif" font-size="14.00">#</text>
<polygon fill="none" stroke="black" points="100,-75 100,-100 174,-100 174,-75 100,-75"/>
<text text-anchor="start" x="129" y="-83.8" font-family="Times New Roman,serif" font-size="14.00">S0</text>
<polygon fill="none" stroke="black" points="174,-75 174,-100 216,-100 216,-75 174,-75"/>
<text text-anchor="start" x="187" y="-83.8" font-family="Times New Roman,serif" font-size="14.00">S1</text>
<polygon fill="none" stroke="black" points="216,-75 216,-100 250,-100 250,-75 216,-75"/>
<text text-anchor="start" x="225" y="-83.8" font-family="Times New Roman,serif" font-size="14.00">S2</text>
<polygon fill="none" stroke="black" points="0,-50 0,-75 100,-75 100,-50 0,-50"/>
<text text-anchor="start" x="5" y="-58.8" font-family="Times New Roman,serif" font-size="14.00">ACEPTACION</text>
<polygon fill="none" stroke="black" points="100,-50 100,-75 174,-75 174,-50 100,-50"/>
<text text-anchor="start" x="129" y="-58.8" font-family="Times New Roman,serif" font-size="14.00">S1</text>
<polygon fill="none" stroke="black" points="174,-50 174,-75 216,-75 216,-50 174,-50"/>
<text text-anchor="start" x="187" y="-58.8" font-family="Times New Roman,serif" font-size="14.00">S1</text>
<polygon fill="none" stroke="black" points="216,-50 216,-75 250,-75 250,-50 216,-50"/>
<text text-anchor="start" x="225" y="-58.8" font-family="Times New Roman,serif" font-size="14.00">S2</text>
<polygon fill="none" stroke="black" points="250,-50 250,-75 290,-75 290,-50 250,-50"/>
<text text-anchor="start" x="262" y="-58.8" font-family="Times New Roman,serif" font-size="14.00">S0</text>
<polygon fill="none" stroke="black" points="290,-50 290,-75 316,-75 316,-50 290,-50"/>
<text text-anchor="start" x="295" y="-58.8" font-family="Times New Roman,serif" font-size="14.00">S3</text>
<polygon fill="none" stroke="black" points="100,-25 100,-50 174,-50 174,-25 100,-25"/>
<text text-anchor="start" x="129" y="-33.8" font-family="Times New Roman,serif" font-size="14.00">S2</text>
<polygon fill="none" stroke="black" points="174,-25 174,-50 216,-50 216,-25 174,-25"/>
<text text-anchor="start" x="187" y="-33.8" font-family="Times New Roman,serif" font-size="14.00">S1</text>
<polygon fill="none" stroke="black" points="216,-25 216,-50 250,-50 250,-25 216,-25"/>
<text text-anchor="start" x="225" y="-33.8" font-family="Times New Roman,serif" font-size="14.00">S2</text>
<polygon fill="none" stroke="black" points="250,-25 250,-50 290,-50 290,-25 250,-25"/>
<text text-anchor="start" x="262" y="-33.8" font-family="Times New Roman,serif" font-size="14.00">S0</text>
<polygon fill="none" stroke="black" points="0,0 0,-25 100,-25 100,0 0,0"/>
<text text-anchor="start" x="5" y="-8.8" font-family="Times New Roman,serif" font-size="14.00">ACEPTACION</text>
<polygon fill="none" stroke="black" points="100,0 100,-25 174,-25 174,0 100,0"/>
<text text-anchor="start" x="129" y="-8.8" font-family="Times New Roman,serif" font-size="14.00">S3</text>
</g>
</g>
</svg>
