<?xml version="1.0" encoding="UTF-8" standalone="no"?>
<!DOCTYPE svg PUBLIC "-//W3C//DTD SVG 1.1//EN"
 "http://www.w3.org/Graphics/SVG/1.1/DTD/svg11.dtd">
<!-- Generated by graphviz version 2.46.0 (20210118.1747)
 -->
<!-- Title: G Pages: 1 -->
<svg width="252pt" height="332pt"
 viewBox="0.00 0.00 252.00 332.00" xmlns="http://www.w3.org/2000/svg" xmlns:xlink="http://www.w3.org/1999/xlink">
<g id="graph0" class="graph" transform="scale(1 1) rotate(0) translate(4 328)">
<title>G</title>
<polygon fill="white" stroke="transparent" points="-4,4 -4,-328 248,-328 248,4 -4,4"/>
<!-- Nodo1800659519 -->
<g id="node1" class="node">
<title>Nodo1800659519</title>
<polygon fill="none" stroke="black" points="208,-324 154,-324 154,-288 208,-288 208,-324"/>
<text text-anchor="middle" x="181" y="-302.3" font-family="Times New Roman,serif" font-size="14.00">.</text>
</g>
<!-- Nodo413601558 -->
<g id="node2" class="node">
<title>Nodo413601558</title>
<polygon fill="none" stroke="black" points="172,-252 118,-252 118,-216 172,-216 172,-252"/>
<text text-anchor="middle" x="145" y="-230.3" font-family="Times New Roman,serif" font-size="14.00">.</text>
</g>
<!-- Nodo1800659519&#45;&gt;Nodo413601558 -->
<g id="edge1" class="edge">
<title>Nodo1800659519&#45;&gt;Nodo413601558</title>
<path fill="none" stroke="black" d="M172.1,-287.7C168,-279.73 163.05,-270.1 158.51,-261.26"/>
<polygon fill="black" stroke="black" points="161.48,-259.4 153.8,-252.1 155.26,-262.6 161.48,-259.4"/>
</g>
<!-- Nodo1461149300 -->
<g id="node3" class="node">
<title>Nodo1461149300</title>
<polygon fill="none" stroke="black" points="244,-252 190,-252 190,-216 244,-216 244,-252"/>
<text text-anchor="middle" x="217" y="-230.3" font-family="Times New Roman,serif" font-size="14.00">$</text>
</g>
<!-- Nodo1800659519&#45;&gt;Nodo1461149300 -->
<g id="edge2" class="edge">
<title>Nodo1800659519&#45;&gt;Nodo1461149300</title>
<path fill="none" stroke="black" d="M189.9,-287.7C194,-279.73 198.95,-270.1 203.49,-261.26"/>
<polygon fill="black" stroke="black" points="206.74,-262.6 208.2,-252.1 200.52,-259.4 206.74,-262.6"/>
</g>
<!-- Nodo2075495587 -->
<g id="node4" class="node">
<title>Nodo2075495587</title>
<polygon fill="none" stroke="black" points="134,-180 80,-180 80,-144 134,-144 134,-180"/>
<text text-anchor="middle" x="107" y="-158.3" font-family="Times New Roman,serif" font-size="14.00">.</text>
</g>
<!-- Nodo413601558&#45;&gt;Nodo2075495587 -->
<g id="edge3" class="edge">
<title>Nodo413601558&#45;&gt;Nodo2075495587</title>
<path fill="none" stroke="black" d="M135.61,-215.7C131.24,-207.64 125.94,-197.89 121.1,-188.98"/>
<polygon fill="black" stroke="black" points="124.13,-187.22 116.29,-180.1 117.98,-190.56 124.13,-187.22"/>
</g>
<!-- Nodo206835546 -->
<g id="node5" class="node">
<title>Nodo206835546</title>
<polygon fill="none" stroke="black" points="210,-180 156,-180 156,-144 210,-144 210,-180"/>
<text text-anchor="middle" x="183" y="-158.3" font-family="Times New Roman,serif" font-size="14.00">+</text>
</g>
<!-- Nodo413601558&#45;&gt;Nodo206835546 -->
<g id="edge4" class="edge">
<title>Nodo413601558&#45;&gt;Nodo206835546</title>
<path fill="none" stroke="black" d="M154.39,-215.7C158.76,-207.64 164.06,-197.89 168.9,-188.98"/>
<polygon fill="black" stroke="black" points="172.02,-190.56 173.71,-180.1 165.87,-187.22 172.02,-190.56"/>
</g>
<!-- Nodo1997287019 -->
<g id="node6" class="node">
<title>Nodo1997287019</title>
<polygon fill="none" stroke="black" points="62,-108 8,-108 8,-72 62,-72 62,-108"/>
<text text-anchor="middle" x="35" y="-86.3" font-family="Times New Roman,serif" font-size="14.00">+</text>
</g>
<!-- Nodo2075495587&#45;&gt;Nodo1997287019 -->
<g id="edge5" class="edge">
<title>Nodo2075495587&#45;&gt;Nodo1997287019</title>
<path fill="none" stroke="black" d="M89.2,-143.7C80.4,-135.14 69.62,-124.66 60,-115.3"/>
<polygon fill="black" stroke="black" points="62.2,-112.57 52.59,-108.1 57.32,-117.58 62.2,-112.57"/>
</g>
<!-- Nodo436546048 -->
<g id="node7" class="node">
<title>Nodo436546048</title>
<polygon fill="none" stroke="black" points="134,-108 80,-108 80,-72 134,-72 134,-108"/>
<text text-anchor="middle" x="107" y="-86.3" font-family="Times New Roman,serif" font-size="14.00">Hello</text>
</g>
<!-- Nodo2075495587&#45;&gt;Nodo436546048 -->
<g id="edge6" class="edge">
<title>Nodo2075495587&#45;&gt;Nodo436546048</title>
<path fill="none" stroke="black" d="M107,-143.7C107,-135.98 107,-126.71 107,-118.11"/>
<polygon fill="black" stroke="black" points="110.5,-118.1 107,-108.1 103.5,-118.1 110.5,-118.1"/>
</g>
<!-- Nodo1627428162 -->
<g id="node9" class="node">
<title>Nodo1627428162</title>
<polygon fill="none" stroke="black" points="222,-108 152,-108 152,-72 222,-72 222,-108"/>
<text text-anchor="middle" x="187" y="-86.3" font-family="Times New Roman,serif" font-size="14.00">ID CONJ</text>
</g>
<!-- Nodo206835546&#45;&gt;Nodo1627428162 -->
<g id="edge8" class="edge">
<title>Nodo206835546&#45;&gt;Nodo1627428162</title>
<path fill="none" stroke="black" d="M183.99,-143.7C184.43,-135.98 184.96,-126.71 185.45,-118.11"/>
<polygon fill="black" stroke="black" points="188.95,-118.29 186.02,-108.1 181.96,-117.89 188.95,-118.29"/>
</g>
<!-- Nodo1300393335 -->
<g id="node8" class="node">
<title>Nodo1300393335</title>
<polygon fill="none" stroke="black" points="70,-36 0,-36 0,0 70,0 70,-36"/>
<text text-anchor="middle" x="35" y="-14.3" font-family="Times New Roman,serif" font-size="14.00">ID CONJ</text>
</g>
<!-- Nodo1997287019&#45;&gt;Nodo1300393335 -->
<g id="edge7" class="edge">
<title>Nodo1997287019&#45;&gt;Nodo1300393335</title>
<path fill="none" stroke="black" d="M35,-71.7C35,-63.98 35,-54.71 35,-46.11"/>
<polygon fill="black" stroke="black" points="38.5,-46.1 35,-36.1 31.5,-46.1 38.5,-46.1"/>
</g>
</g>
</svg>
