<?xml version="1.0" encoding="UTF-8" standalone="no"?>
<!DOCTYPE svg PUBLIC "-//W3C//DTD SVG 1.1//EN"
 "http://www.w3.org/Graphics/SVG/1.1/DTD/svg11.dtd">
<!-- Generated by graphviz version 2.46.0 (20210118.1747)
 -->
<!-- Title: structs Pages: 1 -->
<svg width="379pt" height="491pt"
 viewBox="0.00 0.00 379.00 491.00" xmlns="http://www.w3.org/2000/svg" xmlns:xlink="http://www.w3.org/1999/xlink">
<g id="graph0" class="graph" transform="scale(1 1) rotate(0) translate(4 487)">
<title>structs</title>
<polygon fill="white" stroke="transparent" points="-4,4 -4,-487 375,-487 375,4 -4,4"/>
<!-- Nodo1306854175 -->
<g id="node1" class="node">
<title>Nodo1306854175</title>
<polygon fill="none" stroke="green" points="231.5,-446.5 231.5,-482.5 326.5,-482.5 326.5,-446.5 231.5,-446.5"/>
<text text-anchor="middle" x="255.5" y="-460.8" font-family="Times New Roman,serif" font-size="14.00">1,2,4,</text>
<polyline fill="none" stroke="green" points="279.5,-446.5 279.5,-482.5 "/>
<text text-anchor="middle" x="289.5" y="-460.8" font-family="Times New Roman,serif" font-size="14.00">.</text>
<polyline fill="none" stroke="green" points="299.5,-446.5 299.5,-482.5 "/>
<text text-anchor="middle" x="313" y="-460.8" font-family="Times New Roman,serif" font-size="14.00">5,</text>
</g>
<!-- Nodo1088872417 -->
<g id="node2" class="node">
<title>Nodo1088872417</title>
<polygon fill="none" stroke="green" points="179.5,-372.5 179.5,-408.5 274.5,-408.5 274.5,-372.5 179.5,-372.5"/>
<text text-anchor="middle" x="203.5" y="-386.8" font-family="Times New Roman,serif" font-size="14.00">1,2,4,</text>
<polyline fill="none" stroke="green" points="227.5,-372.5 227.5,-408.5 "/>
<text text-anchor="middle" x="237.5" y="-386.8" font-family="Times New Roman,serif" font-size="14.00">.</text>
<polyline fill="none" stroke="green" points="247.5,-372.5 247.5,-408.5 "/>
<text text-anchor="middle" x="261" y="-386.8" font-family="Times New Roman,serif" font-size="14.00">4,</text>
</g>
<!-- Nodo1306854175&#45;&gt;Nodo1088872417 -->
<g id="edge1" class="edge">
<title>Nodo1306854175&#45;&gt;Nodo1088872417</title>
<path fill="none" stroke="black" d="M266.68,-446.44C260.36,-437.69 252.53,-426.85 245.51,-417.13"/>
<polygon fill="black" stroke="black" points="248.29,-415 239.6,-408.94 242.61,-419.1 248.29,-415"/>
</g>
<!-- Nodo726950788 -->
<g id="node13" class="node">
<title>Nodo726950788</title>
<polygon fill="none" stroke="green" points="293,-371.5 293,-409.5 371,-409.5 371,-371.5 293,-371.5"/>
<text text-anchor="middle" x="306.5" y="-386.8" font-family="Times New Roman,serif" font-size="14.00">5,</text>
<polyline fill="none" stroke="green" points="320,-371.5 320,-409.5 "/>
<text text-anchor="middle" x="332" y="-394.3" font-family="Times New Roman,serif" font-size="14.00">#</text>
<text text-anchor="middle" x="332" y="-379.3" font-family="Times New Roman,serif" font-size="14.00">5</text>
<polyline fill="none" stroke="green" points="344,-371.5 344,-409.5 "/>
<text text-anchor="middle" x="357.5" y="-386.8" font-family="Times New Roman,serif" font-size="14.00">5,</text>
</g>
<!-- Nodo1306854175&#45;&gt;Nodo726950788 -->
<g id="edge2" class="edge">
<title>Nodo1306854175&#45;&gt;Nodo726950788</title>
<path fill="none" stroke="black" d="M291.56,-446.44C297.86,-437.88 305.62,-427.33 312.66,-417.77"/>
<polygon fill="black" stroke="black" points="315.49,-419.83 318.6,-409.7 309.86,-415.68 315.49,-419.83"/>
</g>
<!-- Nodo453523494 -->
<g id="node3" class="node">
<title>Nodo453523494</title>
<polygon fill="none" stroke="red" points="116.5,-298.5 116.5,-334.5 225.5,-334.5 225.5,-298.5 116.5,-298.5"/>
<text text-anchor="middle" x="135.5" y="-312.8" font-family="Times New Roman,serif" font-size="14.00">1,2,</text>
<polyline fill="none" stroke="red" points="154.5,-298.5 154.5,-334.5 "/>
<text text-anchor="middle" x="166" y="-312.8" font-family="Times New Roman,serif" font-size="14.00">*</text>
<polyline fill="none" stroke="red" points="177.5,-298.5 177.5,-334.5 "/>
<text text-anchor="middle" x="201.5" y="-312.8" font-family="Times New Roman,serif" font-size="14.00">1,2,3,</text>
</g>
<!-- Nodo1088872417&#45;&gt;Nodo453523494 -->
<g id="edge3" class="edge">
<title>Nodo1088872417&#45;&gt;Nodo453523494</title>
<path fill="none" stroke="black" d="M213.73,-372.44C206.92,-363.69 198.5,-352.85 190.93,-343.13"/>
<polygon fill="black" stroke="black" points="193.47,-340.69 184.56,-334.94 187.94,-344.98 193.47,-340.69"/>
</g>
<!-- Nodo521960438 -->
<g id="node11" class="node">
<title>Nodo521960438</title>
<polygon fill="none" stroke="green" points="245.5,-298.5 245.5,-334.5 324.5,-334.5 324.5,-298.5 245.5,-298.5"/>
<text text-anchor="middle" x="259" y="-312.8" font-family="Times New Roman,serif" font-size="14.00">4,</text>
<polyline fill="none" stroke="green" points="272.5,-298.5 272.5,-334.5 "/>
<text text-anchor="middle" x="285" y="-312.8" font-family="Times New Roman,serif" font-size="14.00">+</text>
<polyline fill="none" stroke="green" points="297.5,-298.5 297.5,-334.5 "/>
<text text-anchor="middle" x="311" y="-312.8" font-family="Times New Roman,serif" font-size="14.00">4,</text>
</g>
<!-- Nodo1088872417&#45;&gt;Nodo521960438 -->
<g id="edge4" class="edge">
<title>Nodo1088872417&#45;&gt;Nodo521960438</title>
<path fill="none" stroke="black" d="M240.75,-372.44C247.86,-363.6 256.7,-352.64 264.59,-342.83"/>
<polygon fill="black" stroke="black" points="267.4,-344.92 270.95,-334.94 261.95,-340.53 267.4,-344.92"/>
</g>
<!-- Nodo274722023 -->
<g id="node4" class="node">
<title>Nodo274722023</title>
<polygon fill="none" stroke="green" points="113,-224.5 113,-260.5 219,-260.5 219,-224.5 113,-224.5"/>
<text text-anchor="middle" x="132" y="-238.8" font-family="Times New Roman,serif" font-size="14.00">1,2,</text>
<polyline fill="none" stroke="green" points="151,-224.5 151,-260.5 "/>
<text text-anchor="middle" x="161" y="-238.8" font-family="Times New Roman,serif" font-size="14.00">.</text>
<polyline fill="none" stroke="green" points="171,-224.5 171,-260.5 "/>
<text text-anchor="middle" x="195" y="-238.8" font-family="Times New Roman,serif" font-size="14.00">1,2,3,</text>
</g>
<!-- Nodo453523494&#45;&gt;Nodo274722023 -->
<g id="edge5" class="edge">
<title>Nodo453523494&#45;&gt;Nodo274722023</title>
<path fill="none" stroke="black" d="M169.82,-298.44C169.25,-290.31 168.56,-280.38 167.92,-271.2"/>
<polygon fill="black" stroke="black" points="171.4,-270.67 167.21,-260.94 164.41,-271.16 171.4,-270.67"/>
</g>
<!-- Nodo1052967153 -->
<g id="node5" class="node">
<title>Nodo1052967153</title>
<polygon fill="none" stroke="green" points="62.5,-150.5 62.5,-186.5 163.5,-186.5 163.5,-150.5 62.5,-150.5"/>
<text text-anchor="middle" x="81.5" y="-164.8" font-family="Times New Roman,serif" font-size="14.00">1,2,</text>
<polyline fill="none" stroke="green" points="100.5,-150.5 100.5,-186.5 "/>
<text text-anchor="middle" x="113" y="-164.8" font-family="Times New Roman,serif" font-size="14.00">+</text>
<polyline fill="none" stroke="green" points="125.5,-150.5 125.5,-186.5 "/>
<text text-anchor="middle" x="144.5" y="-164.8" font-family="Times New Roman,serif" font-size="14.00">1,2,</text>
</g>
<!-- Nodo274722023&#45;&gt;Nodo1052967153 -->
<g id="edge6" class="edge">
<title>Nodo274722023&#45;&gt;Nodo1052967153</title>
<path fill="none" stroke="black" d="M153.44,-224.44C147,-215.69 139.02,-204.85 131.86,-195.13"/>
<polygon fill="black" stroke="black" points="134.59,-192.92 125.84,-186.94 128.95,-197.07 134.59,-192.92"/>
</g>
<!-- Nodo1527430292 -->
<g id="node9" class="node">
<title>Nodo1527430292</title>
<polygon fill="none" stroke="red" points="183.5,-150.5 183.5,-186.5 260.5,-186.5 260.5,-150.5 183.5,-150.5"/>
<text text-anchor="middle" x="197" y="-164.8" font-family="Times New Roman,serif" font-size="14.00">3,</text>
<polyline fill="none" stroke="red" points="210.5,-150.5 210.5,-186.5 "/>
<text text-anchor="middle" x="222" y="-164.8" font-family="Times New Roman,serif" font-size="14.00">?</text>
<polyline fill="none" stroke="red" points="233.5,-150.5 233.5,-186.5 "/>
<text text-anchor="middle" x="247" y="-164.8" font-family="Times New Roman,serif" font-size="14.00">3,</text>
</g>
<!-- Nodo274722023&#45;&gt;Nodo1527430292 -->
<g id="edge7" class="edge">
<title>Nodo274722023&#45;&gt;Nodo1527430292</title>
<path fill="none" stroke="black" d="M179.27,-224.44C186.08,-215.69 194.5,-204.85 202.07,-195.13"/>
<polygon fill="black" stroke="black" points="205.06,-196.98 208.44,-186.94 199.53,-192.69 205.06,-196.98"/>
</g>
<!-- Nodo1210898719 -->
<g id="node6" class="node">
<title>Nodo1210898719</title>
<polygon fill="none" stroke="green" points="61.5,-76.5 61.5,-112.5 156.5,-112.5 156.5,-76.5 61.5,-76.5"/>
<text text-anchor="middle" x="80.5" y="-90.8" font-family="Times New Roman,serif" font-size="14.00">1,2,</text>
<polyline fill="none" stroke="green" points="99.5,-76.5 99.5,-112.5 "/>
<text text-anchor="middle" x="109" y="-90.8" font-family="Times New Roman,serif" font-size="14.00">|</text>
<polyline fill="none" stroke="green" points="118.5,-76.5 118.5,-112.5 "/>
<text text-anchor="middle" x="137.5" y="-90.8" font-family="Times New Roman,serif" font-size="14.00">1,2,</text>
</g>
<!-- Nodo1052967153&#45;&gt;Nodo1210898719 -->
<g id="edge8" class="edge">
<title>Nodo1052967153&#45;&gt;Nodo1210898719</title>
<path fill="none" stroke="black" d="M112.05,-150.44C111.6,-142.31 111.05,-132.38 110.54,-123.2"/>
<polygon fill="black" stroke="black" points="114.02,-122.73 109.97,-112.94 107.03,-123.12 114.02,-122.73"/>
</g>
<!-- Nodo306123060 -->
<g id="node7" class="node">
<title>Nodo306123060</title>
<polygon fill="none" stroke="green" points="0,-0.5 0,-38.5 102,-38.5 102,-0.5 0,-0.5"/>
<text text-anchor="middle" x="13.5" y="-15.8" font-family="Times New Roman,serif" font-size="14.00">1,</text>
<polyline fill="none" stroke="green" points="27,-0.5 27,-38.5 "/>
<text text-anchor="middle" x="51" y="-23.3" font-family="Times New Roman,serif" font-size="14.00">digito</text>
<text text-anchor="middle" x="51" y="-8.3" font-family="Times New Roman,serif" font-size="14.00">1</text>
<polyline fill="none" stroke="green" points="75,-0.5 75,-38.5 "/>
<text text-anchor="middle" x="88.5" y="-15.8" font-family="Times New Roman,serif" font-size="14.00">1,</text>
</g>
<!-- Nodo1210898719&#45;&gt;Nodo306123060 -->
<g id="edge9" class="edge">
<title>Nodo1210898719&#45;&gt;Nodo306123060</title>
<path fill="none" stroke="black" d="M95.25,-76.2C88.24,-67.37 79.56,-56.45 71.75,-46.62"/>
<polygon fill="black" stroke="black" points="74.42,-44.35 65.46,-38.69 68.94,-48.7 74.42,-44.35"/>
</g>
<!-- Nodo2104028992 -->
<g id="node8" class="node">
<title>Nodo2104028992</title>
<polygon fill="none" stroke="green" points="120,-0.5 120,-38.5 214,-38.5 214,-0.5 120,-0.5"/>
<text text-anchor="middle" x="133.5" y="-15.8" font-family="Times New Roman,serif" font-size="14.00">2,</text>
<polyline fill="none" stroke="green" points="147,-0.5 147,-38.5 "/>
<text text-anchor="middle" x="167" y="-23.3" font-family="Times New Roman,serif" font-size="14.00">letra</text>
<text text-anchor="middle" x="167" y="-8.3" font-family="Times New Roman,serif" font-size="14.00">2</text>
<polyline fill="none" stroke="green" points="187,-0.5 187,-38.5 "/>
<text text-anchor="middle" x="200.5" y="-15.8" font-family="Times New Roman,serif" font-size="14.00">2,</text>
</g>
<!-- Nodo1210898719&#45;&gt;Nodo2104028992 -->
<g id="edge10" class="edge">
<title>Nodo1210898719&#45;&gt;Nodo2104028992</title>
<path fill="none" stroke="black" d="M122.75,-76.2C129.76,-67.37 138.44,-56.45 146.25,-46.62"/>
<polygon fill="black" stroke="black" points="149.06,-48.7 152.54,-38.69 143.58,-44.35 149.06,-48.7"/>
</g>
<!-- Nodo1975546571 -->
<g id="node10" class="node">
<title>Nodo1975546571</title>
<polygon fill="none" stroke="green" points="175,-75.5 175,-113.5 275,-113.5 275,-75.5 175,-75.5"/>
<text text-anchor="middle" x="188.5" y="-90.8" font-family="Times New Roman,serif" font-size="14.00">3,</text>
<polyline fill="none" stroke="green" points="202,-75.5 202,-113.5 "/>
<text text-anchor="middle" x="225" y="-98.3" font-family="Times New Roman,serif" font-size="14.00">Hello</text>
<text text-anchor="middle" x="225" y="-83.3" font-family="Times New Roman,serif" font-size="14.00">3</text>
<polyline fill="none" stroke="green" points="248,-75.5 248,-113.5 "/>
<text text-anchor="middle" x="261.5" y="-90.8" font-family="Times New Roman,serif" font-size="14.00">3,</text>
</g>
<!-- Nodo1527430292&#45;&gt;Nodo1975546571 -->
<g id="edge11" class="edge">
<title>Nodo1527430292&#45;&gt;Nodo1975546571</title>
<path fill="none" stroke="black" d="M222.71,-150.44C223.04,-142.49 223.45,-132.81 223.82,-123.81"/>
<polygon fill="black" stroke="black" points="227.32,-123.84 224.24,-113.7 220.33,-123.54 227.32,-123.84"/>
</g>
<!-- Nodo632587706 -->
<g id="node12" class="node">
<title>Nodo632587706</title>
<polygon fill="none" stroke="green" points="237,-223.5 237,-261.5 339,-261.5 339,-223.5 237,-223.5"/>
<text text-anchor="middle" x="250.5" y="-238.8" font-family="Times New Roman,serif" font-size="14.00">4,</text>
<polyline fill="none" stroke="green" points="264,-223.5 264,-261.5 "/>
<text text-anchor="middle" x="288" y="-246.3" font-family="Times New Roman,serif" font-size="14.00">digito</text>
<text text-anchor="middle" x="288" y="-231.3" font-family="Times New Roman,serif" font-size="14.00">4</text>
<polyline fill="none" stroke="green" points="312,-223.5 312,-261.5 "/>
<text text-anchor="middle" x="325.5" y="-238.8" font-family="Times New Roman,serif" font-size="14.00">4,</text>
</g>
<!-- Nodo521960438&#45;&gt;Nodo632587706 -->
<g id="edge12" class="edge">
<title>Nodo521960438&#45;&gt;Nodo632587706</title>
<path fill="none" stroke="black" d="M285.71,-298.44C286.04,-290.49 286.45,-280.81 286.82,-271.81"/>
<polygon fill="black" stroke="black" points="290.32,-271.84 287.24,-261.7 283.33,-271.54 290.32,-271.84"/>
</g>
</g>
</svg>
