<?xml version="1.0" encoding="UTF-8" standalone="no"?>
<!DOCTYPE svg PUBLIC "-//W3C//DTD SVG 1.1//EN"
 "http://www.w3.org/Graphics/SVG/1.1/DTD/svg11.dtd">
<!-- Generated by graphviz version 2.46.0 (20210118.1747)
 -->
<!-- Title: structs Pages: 1 -->
<svg width="285pt" height="418pt"
 viewBox="0.00 0.00 284.50 418.00" xmlns="http://www.w3.org/2000/svg" xmlns:xlink="http://www.w3.org/1999/xlink">
<g id="graph0" class="graph" transform="scale(1 1) rotate(0) translate(4 414)">
<title>structs</title>
<polygon fill="white" stroke="transparent" points="-4,4 -4,-414 280.5,-414 280.5,4 -4,4"/>
<!-- Nodo1405747618 -->
<g id="node1" class="node">
<title>Nodo1405747618</title>
<polygon fill="none" stroke="green" points="153.5,-373.5 153.5,-409.5 227.5,-409.5 227.5,-373.5 153.5,-373.5"/>
<text text-anchor="middle" x="167" y="-387.8" font-family="Times New Roman,serif" font-size="14.00">1,</text>
<polyline fill="none" stroke="green" points="180.5,-373.5 180.5,-409.5 "/>
<text text-anchor="middle" x="190.5" y="-387.8" font-family="Times New Roman,serif" font-size="14.00">.</text>
<polyline fill="none" stroke="green" points="200.5,-373.5 200.5,-409.5 "/>
<text text-anchor="middle" x="214" y="-387.8" font-family="Times New Roman,serif" font-size="14.00">5,</text>
</g>
<!-- Nodo898406901 -->
<g id="node2" class="node">
<title>Nodo898406901</title>
<polygon fill="none" stroke="green" points="106.5,-299.5 106.5,-335.5 180.5,-335.5 180.5,-299.5 106.5,-299.5"/>
<text text-anchor="middle" x="120" y="-313.8" font-family="Times New Roman,serif" font-size="14.00">1,</text>
<polyline fill="none" stroke="green" points="133.5,-299.5 133.5,-335.5 "/>
<text text-anchor="middle" x="143.5" y="-313.8" font-family="Times New Roman,serif" font-size="14.00">.</text>
<polyline fill="none" stroke="green" points="153.5,-299.5 153.5,-335.5 "/>
<text text-anchor="middle" x="167" y="-313.8" font-family="Times New Roman,serif" font-size="14.00">4,</text>
</g>
<!-- Nodo1405747618&#45;&gt;Nodo898406901 -->
<g id="edge1" class="edge">
<title>Nodo1405747618&#45;&gt;Nodo898406901</title>
<path fill="none" stroke="black" d="M179.36,-373.44C173.71,-364.78 166.72,-354.07 160.42,-344.42"/>
<polygon fill="black" stroke="black" points="163.28,-342.4 154.88,-335.94 157.42,-346.23 163.28,-342.4"/>
</g>
<!-- Nodo992846223 -->
<g id="node10" class="node">
<title>Nodo992846223</title>
<polygon fill="none" stroke="green" points="198.5,-298.5 198.5,-336.5 276.5,-336.5 276.5,-298.5 198.5,-298.5"/>
<text text-anchor="middle" x="212" y="-313.8" font-family="Times New Roman,serif" font-size="14.00">5,</text>
<polyline fill="none" stroke="green" points="225.5,-298.5 225.5,-336.5 "/>
<text text-anchor="middle" x="237.5" y="-321.3" font-family="Times New Roman,serif" font-size="14.00">#</text>
<text text-anchor="middle" x="237.5" y="-306.3" font-family="Times New Roman,serif" font-size="14.00">5</text>
<polyline fill="none" stroke="green" points="249.5,-298.5 249.5,-336.5 "/>
<text text-anchor="middle" x="263" y="-313.8" font-family="Times New Roman,serif" font-size="14.00">5,</text>
</g>
<!-- Nodo1405747618&#45;&gt;Nodo992846223 -->
<g id="edge2" class="edge">
<title>Nodo1405747618&#45;&gt;Nodo992846223</title>
<path fill="none" stroke="black" d="M201.64,-373.44C207.11,-365.05 213.83,-354.76 219.97,-345.35"/>
<polygon fill="black" stroke="black" points="223.08,-346.99 225.62,-336.7 217.22,-343.16 223.08,-346.99"/>
</g>
<!-- Nodo1054932644 -->
<g id="node3" class="node">
<title>Nodo1054932644</title>
<polygon fill="none" stroke="green" points="44,-224.5 44,-260.5 139,-260.5 139,-224.5 44,-224.5"/>
<text text-anchor="middle" x="57.5" y="-238.8" font-family="Times New Roman,serif" font-size="14.00">1,</text>
<polyline fill="none" stroke="green" points="71,-224.5 71,-260.5 "/>
<text text-anchor="middle" x="81" y="-238.8" font-family="Times New Roman,serif" font-size="14.00">.</text>
<polyline fill="none" stroke="green" points="91,-224.5 91,-260.5 "/>
<text text-anchor="middle" x="115" y="-238.8" font-family="Times New Roman,serif" font-size="14.00">1,2,3,</text>
</g>
<!-- Nodo898406901&#45;&gt;Nodo1054932644 -->
<g id="edge3" class="edge">
<title>Nodo898406901&#45;&gt;Nodo1054932644</title>
<path fill="none" stroke="black" d="M131.18,-299.2C124.77,-290.2 116.8,-279.02 109.7,-269.05"/>
<polygon fill="black" stroke="black" points="112.39,-266.79 103.73,-260.68 106.69,-270.85 112.39,-266.79"/>
</g>
<!-- Nodo112466394 -->
<g id="node9" class="node">
<title>Nodo112466394</title>
<polygon fill="none" stroke="green" points="157.5,-223.5 157.5,-261.5 235.5,-261.5 235.5,-223.5 157.5,-223.5"/>
<text text-anchor="middle" x="171" y="-238.8" font-family="Times New Roman,serif" font-size="14.00">4,</text>
<polyline fill="none" stroke="green" points="184.5,-223.5 184.5,-261.5 "/>
<text text-anchor="middle" x="196.5" y="-246.3" font-family="Times New Roman,serif" font-size="14.00">b</text>
<text text-anchor="middle" x="196.5" y="-231.3" font-family="Times New Roman,serif" font-size="14.00">4</text>
<polyline fill="none" stroke="green" points="208.5,-223.5 208.5,-261.5 "/>
<text text-anchor="middle" x="222" y="-238.8" font-family="Times New Roman,serif" font-size="14.00">4,</text>
</g>
<!-- Nodo898406901&#45;&gt;Nodo112466394 -->
<g id="edge4" class="edge">
<title>Nodo898406901&#45;&gt;Nodo112466394</title>
<path fill="none" stroke="black" d="M156.06,-299.2C162.41,-290.46 170.24,-279.67 177.32,-269.92"/>
<polygon fill="black" stroke="black" points="180.25,-271.84 183.29,-261.69 174.58,-267.73 180.25,-271.84"/>
</g>
<!-- Nodo1213349904 -->
<g id="node4" class="node">
<title>Nodo1213349904</title>
<polygon fill="none" stroke="green" points="0,-148.5 0,-186.5 77,-186.5 77,-148.5 0,-148.5"/>
<text text-anchor="middle" x="13.5" y="-163.8" font-family="Times New Roman,serif" font-size="14.00">1,</text>
<polyline fill="none" stroke="green" points="27,-148.5 27,-186.5 "/>
<text text-anchor="middle" x="38.5" y="-171.3" font-family="Times New Roman,serif" font-size="14.00">a</text>
<text text-anchor="middle" x="38.5" y="-156.3" font-family="Times New Roman,serif" font-size="14.00">1</text>
<polyline fill="none" stroke="green" points="50,-148.5 50,-186.5 "/>
<text text-anchor="middle" x="63.5" y="-163.8" font-family="Times New Roman,serif" font-size="14.00">1,</text>
</g>
<!-- Nodo1054932644&#45;&gt;Nodo1213349904 -->
<g id="edge5" class="edge">
<title>Nodo1054932644&#45;&gt;Nodo1213349904</title>
<path fill="none" stroke="black" d="M78.94,-224.2C72.59,-215.46 64.76,-204.67 57.68,-194.92"/>
<polygon fill="black" stroke="black" points="60.42,-192.73 51.71,-186.69 54.75,-196.84 60.42,-192.73"/>
</g>
<!-- Nodo1259769769 -->
<g id="node5" class="node">
<title>Nodo1259769769</title>
<polygon fill="none" stroke="red" points="95,-149.5 95,-185.5 194,-185.5 194,-149.5 95,-149.5"/>
<text text-anchor="middle" x="114" y="-163.8" font-family="Times New Roman,serif" font-size="14.00">2,3,</text>
<polyline fill="none" stroke="red" points="133,-149.5 133,-185.5 "/>
<text text-anchor="middle" x="144.5" y="-163.8" font-family="Times New Roman,serif" font-size="14.00">*</text>
<polyline fill="none" stroke="red" points="156,-149.5 156,-185.5 "/>
<text text-anchor="middle" x="175" y="-163.8" font-family="Times New Roman,serif" font-size="14.00">2,3,</text>
</g>
<!-- Nodo1054932644&#45;&gt;Nodo1259769769 -->
<g id="edge6" class="edge">
<title>Nodo1054932644&#45;&gt;Nodo1259769769</title>
<path fill="none" stroke="black" d="M104.06,-224.2C110.59,-215.2 118.71,-204.02 125.95,-194.05"/>
<polygon fill="black" stroke="black" points="128.99,-195.82 132.03,-185.68 123.32,-191.71 128.99,-195.82"/>
</g>
<!-- Nodo444920847 -->
<g id="node6" class="node">
<title>Nodo444920847</title>
<polygon fill="none" stroke="green" points="97,-75.5 97,-111.5 192,-111.5 192,-75.5 97,-75.5"/>
<text text-anchor="middle" x="116" y="-89.8" font-family="Times New Roman,serif" font-size="14.00">2,3,</text>
<polyline fill="none" stroke="green" points="135,-75.5 135,-111.5 "/>
<text text-anchor="middle" x="144.5" y="-89.8" font-family="Times New Roman,serif" font-size="14.00">|</text>
<polyline fill="none" stroke="green" points="154,-75.5 154,-111.5 "/>
<text text-anchor="middle" x="173" y="-89.8" font-family="Times New Roman,serif" font-size="14.00">2,3,</text>
</g>
<!-- Nodo1259769769&#45;&gt;Nodo444920847 -->
<g id="edge7" class="edge">
<title>Nodo1259769769&#45;&gt;Nodo444920847</title>
<path fill="none" stroke="black" d="M144.5,-149.44C144.5,-141.31 144.5,-131.38 144.5,-122.2"/>
<polygon fill="black" stroke="black" points="148,-121.94 144.5,-111.94 141,-121.94 148,-121.94"/>
</g>
<!-- Nodo589835301 -->
<g id="node7" class="node">
<title>Nodo589835301</title>
<polygon fill="none" stroke="green" points="58,-0.5 58,-38.5 135,-38.5 135,-0.5 58,-0.5"/>
<text text-anchor="middle" x="71.5" y="-15.8" font-family="Times New Roman,serif" font-size="14.00">2,</text>
<polyline fill="none" stroke="green" points="85,-0.5 85,-38.5 "/>
<text text-anchor="middle" x="96.5" y="-23.3" font-family="Times New Roman,serif" font-size="14.00">a</text>
<text text-anchor="middle" x="96.5" y="-8.3" font-family="Times New Roman,serif" font-size="14.00">2</text>
<polyline fill="none" stroke="green" points="108,-0.5 108,-38.5 "/>
<text text-anchor="middle" x="121.5" y="-15.8" font-family="Times New Roman,serif" font-size="14.00">2,</text>
</g>
<!-- Nodo444920847&#45;&gt;Nodo589835301 -->
<g id="edge8" class="edge">
<title>Nodo444920847&#45;&gt;Nodo589835301</title>
<path fill="none" stroke="black" d="M133.12,-75.44C127.48,-66.97 120.53,-56.54 114.21,-47.06"/>
<polygon fill="black" stroke="black" points="117.09,-45.08 108.63,-38.7 111.27,-48.96 117.09,-45.08"/>
</g>
<!-- Nodo2032188048 -->
<g id="node8" class="node">
<title>Nodo2032188048</title>
<polygon fill="none" stroke="green" points="153.5,-0.5 153.5,-38.5 231.5,-38.5 231.5,-0.5 153.5,-0.5"/>
<text text-anchor="middle" x="167" y="-15.8" font-family="Times New Roman,serif" font-size="14.00">3,</text>
<polyline fill="none" stroke="green" points="180.5,-0.5 180.5,-38.5 "/>
<text text-anchor="middle" x="192.5" y="-23.3" font-family="Times New Roman,serif" font-size="14.00">b</text>
<text text-anchor="middle" x="192.5" y="-8.3" font-family="Times New Roman,serif" font-size="14.00">3</text>
<polyline fill="none" stroke="green" points="204.5,-0.5 204.5,-38.5 "/>
<text text-anchor="middle" x="218" y="-15.8" font-family="Times New Roman,serif" font-size="14.00">3,</text>
</g>
<!-- Nodo444920847&#45;&gt;Nodo2032188048 -->
<g id="edge9" class="edge">
<title>Nodo444920847&#45;&gt;Nodo2032188048</title>
<path fill="none" stroke="black" d="M155.88,-75.44C161.52,-66.97 168.47,-56.54 174.79,-47.06"/>
<polygon fill="black" stroke="black" points="177.73,-48.96 180.37,-38.7 171.91,-45.08 177.73,-48.96"/>
</g>
</g>
</svg>
