<?xml version="1.0" encoding="UTF-8" standalone="no"?>
<!DOCTYPE svg PUBLIC "-//W3C//DTD SVG 1.1//EN"
 "http://www.w3.org/Graphics/SVG/1.1/DTD/svg11.dtd">
<!-- Generated by graphviz version 2.46.0 (20210118.1747)
 -->
<!-- Title: html Pages: 1 -->
<svg width="252pt" height="158pt"
 viewBox="0.00 0.00 252.00 158.00" xmlns="http://www.w3.org/2000/svg" xmlns:xlink="http://www.w3.org/1999/xlink">
<g id="graph0" class="graph" transform="scale(1 1) rotate(0) translate(4 154)">
<title>html</title>
<polygon fill="white" stroke="transparent" points="-4,4 -4,-154 248,-154 248,4 -4,4"/>
<!-- abc -->
<g id="node1" class="node">
<title>abc</title>
<polygon fill="skyblue" stroke="transparent" points="100,-100 100,-150 174,-150 174,-100 100,-100"/>
<polygon fill="none" stroke="black" points="100,-100 100,-150 174,-150 174,-100 100,-100"/>
<text text-anchor="start" x="105" y="-121.3" font-family="Times New Roman,serif" font-size="14.00">ESTADOS</text>
<polygon fill="lightgrey" stroke="transparent" points="174,-125 174,-150 244,-150 244,-125 174,-125"/>
<polygon fill="none" stroke="black" points="174,-125 174,-150 244,-150 244,-125 174,-125"/>
<text text-anchor="start" x="204.5" y="-133.8" font-family="Times New Roman,serif" font-size="14.00">Σ</text>
<polygon fill="none" stroke="black" points="0,-100 0,-125 100,-125 100,-100 0,-100"/>
<text text-anchor="start" x="46.5" y="-108.8" font-family="Times New Roman,serif" font-size="14.00">a</text>
<polygon fill="none" stroke="black" points="174,-100 174,-125 192,-125 192,-100 174,-100"/>
<text text-anchor="start" x="179" y="-108.8" font-family="Times New Roman,serif" font-size="14.00">b</text>
<polygon fill="none" stroke="black" points="192,-100 192,-125 210,-125 210,-100 192,-100"/>
<text text-anchor="start" x="197" y="-108.8" font-family="Times New Roman,serif" font-size="14.00">#</text>
<polygon fill="none" stroke="black" points="100,-75 100,-100 174,-100 174,-75 100,-75"/>
<text text-anchor="start" x="129" y="-83.8" font-family="Times New Roman,serif" font-size="14.00">S0</text>
<polygon fill="none" stroke="black" points="174,-75 174,-100 192,-100 192,-75 174,-75"/>
<text text-anchor="start" x="179.5" y="-83.8" font-family="Times New Roman,serif" font-size="14.00">1</text>
<polygon fill="none" stroke="black" points="100,-50 100,-75 174,-75 174,-50 100,-50"/>
<text text-anchor="start" x="129" y="-58.8" font-family="Times New Roman,serif" font-size="14.00">S1</text>
<polygon fill="none" stroke="black" points="174,-50 174,-75 192,-75 192,-50 174,-50"/>
<text text-anchor="start" x="179.5" y="-58.8" font-family="Times New Roman,serif" font-size="14.00">2</text>
<polygon fill="none" stroke="black" points="192,-50 192,-75 210,-75 210,-50 192,-50"/>
<text text-anchor="start" x="197.5" y="-58.8" font-family="Times New Roman,serif" font-size="14.00">3</text>
<polygon fill="none" stroke="black" points="210,-50 210,-75 227,-75 227,-50 210,-50"/>
<text text-anchor="start" x="215" y="-58.8" font-family="Times New Roman,serif" font-size="14.00">4</text>
<polygon fill="none" stroke="black" points="0,-25 0,-50 100,-50 100,-25 0,-25"/>
<text text-anchor="start" x="5" y="-33.8" font-family="Times New Roman,serif" font-size="14.00">ACEPTACION</text>
<polygon fill="none" stroke="black" points="100,-25 100,-50 174,-50 174,-25 100,-25"/>
<text text-anchor="start" x="129" y="-33.8" font-family="Times New Roman,serif" font-size="14.00">S2</text>
<polygon fill="none" stroke="black" points="174,-25 174,-50 192,-50 192,-25 174,-25"/>
<text text-anchor="start" x="179.5" y="-33.8" font-family="Times New Roman,serif" font-size="14.00">2</text>
<polygon fill="none" stroke="black" points="192,-25 192,-50 210,-50 210,-25 192,-25"/>
<text text-anchor="start" x="197.5" y="-33.8" font-family="Times New Roman,serif" font-size="14.00">3</text>
<polygon fill="none" stroke="black" points="210,-25 210,-50 227,-50 227,-25 210,-25"/>
<text text-anchor="start" x="215" y="-33.8" font-family="Times New Roman,serif" font-size="14.00">4</text>
<polygon fill="none" stroke="black" points="227,-25 227,-50 244,-50 244,-25 227,-25"/>
<text text-anchor="start" x="232" y="-33.8" font-family="Times New Roman,serif" font-size="14.00">5</text>
<polygon fill="none" stroke="black" points="0,0 0,-25 100,-25 100,0 0,0"/>
<text text-anchor="start" x="5" y="-8.8" font-family="Times New Roman,serif" font-size="14.00">ACEPTACION</text>
<polygon fill="none" stroke="black" points="100,0 100,-25 174,-25 174,0 100,0"/>
<text text-anchor="start" x="129" y="-8.8" font-family="Times New Roman,serif" font-size="14.00">S3</text>
</g>
</g>
</svg>
