<?xml version="1.0" encoding="UTF-8" standalone="no"?>
<!DOCTYPE svg PUBLIC "-//W3C//DTD SVG 1.1//EN"
 "http://www.w3.org/Graphics/SVG/1.1/DTD/svg11.dtd">
<!-- Generated by graphviz version 2.46.0 (20210118.1747)
 -->
<!-- Title: structs Pages: 1 -->
<svg width="264pt" height="345pt"
 viewBox="0.00 0.00 264.00 345.00" xmlns="http://www.w3.org/2000/svg" xmlns:xlink="http://www.w3.org/1999/xlink">
<g id="graph0" class="graph" transform="scale(1 1) rotate(0) translate(4 341)">
<title>structs</title>
<polygon fill="white" stroke="transparent" points="-4,4 -4,-341 260,-341 260,4 -4,4"/>
<!-- Nodo63468833 -->
<g id="node1" class="node">
<title>Nodo63468833</title>
<polygon fill="none" stroke="green" points="114,-300.5 114,-336.5 188,-336.5 188,-300.5 114,-300.5"/>
<text text-anchor="middle" x="127.5" y="-314.8" font-family="Times New Roman,serif" font-size="14.00">1,</text>
<polyline fill="none" stroke="green" points="141,-300.5 141,-336.5 "/>
<text text-anchor="middle" x="151" y="-314.8" font-family="Times New Roman,serif" font-size="14.00">.</text>
<polyline fill="none" stroke="green" points="161,-300.5 161,-336.5 "/>
<text text-anchor="middle" x="174.5" y="-314.8" font-family="Times New Roman,serif" font-size="14.00">4,</text>
</g>
<!-- Nodo720167805 -->
<g id="node2" class="node">
<title>Nodo720167805</title>
<polygon fill="none" stroke="green" points="67,-226.5 67,-262.5 141,-262.5 141,-226.5 67,-226.5"/>
<text text-anchor="middle" x="80.5" y="-240.8" font-family="Times New Roman,serif" font-size="14.00">1,</text>
<polyline fill="none" stroke="green" points="94,-226.5 94,-262.5 "/>
<text text-anchor="middle" x="104" y="-240.8" font-family="Times New Roman,serif" font-size="14.00">.</text>
<polyline fill="none" stroke="green" points="114,-226.5 114,-262.5 "/>
<text text-anchor="middle" x="127.5" y="-240.8" font-family="Times New Roman,serif" font-size="14.00">3,</text>
</g>
<!-- Nodo63468833&#45;&gt;Nodo720167805 -->
<g id="edge1" class="edge">
<title>Nodo63468833&#45;&gt;Nodo720167805</title>
<path fill="none" stroke="black" d="M139.86,-300.44C134.21,-291.78 127.22,-281.07 120.92,-271.42"/>
<polygon fill="black" stroke="black" points="123.78,-269.4 115.38,-262.94 117.92,-273.23 123.78,-269.4"/>
</g>
<!-- Nodo492079624 -->
<g id="node8" class="node">
<title>Nodo492079624</title>
<polygon fill="none" stroke="green" points="159,-225.5 159,-263.5 237,-263.5 237,-225.5 159,-225.5"/>
<text text-anchor="middle" x="172.5" y="-240.8" font-family="Times New Roman,serif" font-size="14.00">4,</text>
<polyline fill="none" stroke="green" points="186,-225.5 186,-263.5 "/>
<text text-anchor="middle" x="198" y="-248.3" font-family="Times New Roman,serif" font-size="14.00">#</text>
<text text-anchor="middle" x="198" y="-233.3" font-family="Times New Roman,serif" font-size="14.00">4</text>
<polyline fill="none" stroke="green" points="210,-225.5 210,-263.5 "/>
<text text-anchor="middle" x="223.5" y="-240.8" font-family="Times New Roman,serif" font-size="14.00">4,</text>
</g>
<!-- Nodo63468833&#45;&gt;Nodo492079624 -->
<g id="edge2" class="edge">
<title>Nodo63468833&#45;&gt;Nodo492079624</title>
<path fill="none" stroke="black" d="M162.14,-300.44C167.61,-292.05 174.33,-281.76 180.47,-272.35"/>
<polygon fill="black" stroke="black" points="183.58,-273.99 186.12,-263.7 177.72,-270.16 183.58,-273.99"/>
</g>
<!-- Nodo1418334255 -->
<g id="node3" class="node">
<title>Nodo1418334255</title>
<polygon fill="none" stroke="green" points="0,-150.5 0,-188.5 102,-188.5 102,-150.5 0,-150.5"/>
<text text-anchor="middle" x="13.5" y="-165.8" font-family="Times New Roman,serif" font-size="14.00">1,</text>
<polyline fill="none" stroke="green" points="27,-150.5 27,-188.5 "/>
<text text-anchor="middle" x="51" y="-173.3" font-family="Times New Roman,serif" font-size="14.00">digito</text>
<text text-anchor="middle" x="51" y="-158.3" font-family="Times New Roman,serif" font-size="14.00">1</text>
<polyline fill="none" stroke="green" points="75,-150.5 75,-188.5 "/>
<text text-anchor="middle" x="88.5" y="-165.8" font-family="Times New Roman,serif" font-size="14.00">1,</text>
</g>
<!-- Nodo720167805&#45;&gt;Nodo1418334255 -->
<g id="edge3" class="edge">
<title>Nodo720167805&#45;&gt;Nodo1418334255</title>
<path fill="none" stroke="black" d="M91.44,-226.2C85.09,-217.46 77.26,-206.67 70.18,-196.92"/>
<polygon fill="black" stroke="black" points="72.92,-194.73 64.21,-188.69 67.25,-198.84 72.92,-194.73"/>
</g>
<!-- Nodo1466073198 -->
<g id="node4" class="node">
<title>Nodo1466073198</title>
<polygon fill="none" stroke="green" points="120,-151.5 120,-187.5 194,-187.5 194,-151.5 120,-151.5"/>
<text text-anchor="middle" x="133.5" y="-165.8" font-family="Times New Roman,serif" font-size="14.00">2,</text>
<polyline fill="none" stroke="green" points="147,-151.5 147,-187.5 "/>
<text text-anchor="middle" x="157" y="-165.8" font-family="Times New Roman,serif" font-size="14.00">.</text>
<polyline fill="none" stroke="green" points="167,-151.5 167,-187.5 "/>
<text text-anchor="middle" x="180.5" y="-165.8" font-family="Times New Roman,serif" font-size="14.00">3,</text>
</g>
<!-- Nodo720167805&#45;&gt;Nodo1466073198 -->
<g id="edge4" class="edge">
<title>Nodo720167805&#45;&gt;Nodo1466073198</title>
<path fill="none" stroke="black" d="M116.56,-226.2C123.09,-217.2 131.21,-206.02 138.45,-196.05"/>
<polygon fill="black" stroke="black" points="141.49,-197.82 144.53,-187.68 135.82,-193.71 141.49,-197.82"/>
</g>
<!-- Nodo398690014 -->
<g id="node5" class="node">
<title>Nodo398690014</title>
<polygon fill="none" stroke="green" points="70.5,-75.5 70.5,-113.5 147.5,-113.5 147.5,-75.5 70.5,-75.5"/>
<text text-anchor="middle" x="84" y="-90.8" font-family="Times New Roman,serif" font-size="14.00">2,</text>
<polyline fill="none" stroke="green" points="97.5,-75.5 97.5,-113.5 "/>
<text text-anchor="middle" x="109" y="-98.3" font-family="Times New Roman,serif" font-size="14.00">.</text>
<text text-anchor="middle" x="109" y="-83.3" font-family="Times New Roman,serif" font-size="14.00">2</text>
<polyline fill="none" stroke="green" points="120.5,-75.5 120.5,-113.5 "/>
<text text-anchor="middle" x="134" y="-90.8" font-family="Times New Roman,serif" font-size="14.00">2,</text>
</g>
<!-- Nodo1466073198&#45;&gt;Nodo398690014 -->
<g id="edge5" class="edge">
<title>Nodo1466073198&#45;&gt;Nodo398690014</title>
<path fill="none" stroke="black" d="M145.62,-151.2C139.94,-142.55 132.93,-131.89 126.56,-122.21"/>
<polygon fill="black" stroke="black" points="129.38,-120.13 120.96,-113.69 123.53,-123.97 129.38,-120.13"/>
</g>
<!-- Nodo1526298704 -->
<g id="node6" class="node">
<title>Nodo1526298704</title>
<polygon fill="none" stroke="green" points="165.5,-76.5 165.5,-112.5 244.5,-112.5 244.5,-76.5 165.5,-76.5"/>
<text text-anchor="middle" x="179" y="-90.8" font-family="Times New Roman,serif" font-size="14.00">3,</text>
<polyline fill="none" stroke="green" points="192.5,-76.5 192.5,-112.5 "/>
<text text-anchor="middle" x="205" y="-90.8" font-family="Times New Roman,serif" font-size="14.00">+</text>
<polyline fill="none" stroke="green" points="217.5,-76.5 217.5,-112.5 "/>
<text text-anchor="middle" x="231" y="-90.8" font-family="Times New Roman,serif" font-size="14.00">3,</text>
</g>
<!-- Nodo1466073198&#45;&gt;Nodo1526298704 -->
<g id="edge6" class="edge">
<title>Nodo1466073198&#45;&gt;Nodo1526298704</title>
<path fill="none" stroke="black" d="M168.38,-151.2C174.29,-142.2 181.64,-131.02 188.2,-121.05"/>
<polygon fill="black" stroke="black" points="191.14,-122.95 193.71,-112.68 185.29,-119.11 191.14,-122.95"/>
</g>
<!-- Nodo1593180232 -->
<g id="node7" class="node">
<title>Nodo1593180232</title>
<polygon fill="none" stroke="green" points="154,-0.5 154,-38.5 256,-38.5 256,-0.5 154,-0.5"/>
<text text-anchor="middle" x="167.5" y="-15.8" font-family="Times New Roman,serif" font-size="14.00">3,</text>
<polyline fill="none" stroke="green" points="181,-0.5 181,-38.5 "/>
<text text-anchor="middle" x="205" y="-23.3" font-family="Times New Roman,serif" font-size="14.00">digito</text>
<text text-anchor="middle" x="205" y="-8.3" font-family="Times New Roman,serif" font-size="14.00">3</text>
<polyline fill="none" stroke="green" points="229,-0.5 229,-38.5 "/>
<text text-anchor="middle" x="242.5" y="-15.8" font-family="Times New Roman,serif" font-size="14.00">3,</text>
</g>
<!-- Nodo1526298704&#45;&gt;Nodo1593180232 -->
<g id="edge7" class="edge">
<title>Nodo1526298704&#45;&gt;Nodo1593180232</title>
<path fill="none" stroke="black" d="M205,-76.2C205,-67.99 205,-57.97 205,-48.7"/>
<polygon fill="black" stroke="black" points="208.5,-48.69 205,-38.69 201.5,-48.69 208.5,-48.69"/>
</g>
</g>
</svg>
