<?xml version="1.0" encoding="UTF-8" standalone="no"?>
<!DOCTYPE svg PUBLIC "-//W3C//DTD SVG 1.1//EN"
 "http://www.w3.org/Graphics/SVG/1.1/DTD/svg11.dtd">
<!-- Generated by graphviz version 2.46.0 (20210118.1747)
 -->
<!-- Title: html Pages: 1 -->
<svg width="468pt" height="133pt"
 viewBox="0.00 0.00 468.00 133.00" xmlns="http://www.w3.org/2000/svg" xmlns:xlink="http://www.w3.org/1999/xlink">
<g id="graph0" class="graph" transform="scale(1 1) rotate(0) translate(4 129)">
<title>html</title>
<polygon fill="white" stroke="transparent" points="-4,4 -4,-129 464,-129 464,4 -4,4"/>
<!-- abc -->
<g id="node1" class="node">
<title>abc</title>
<polygon fill="skyblue" stroke="transparent" points="100,-74.5 100,-124.5 174,-124.5 174,-74.5 100,-74.5"/>
<polygon fill="none" stroke="black" points="100,-74.5 100,-124.5 174,-124.5 174,-74.5 100,-74.5"/>
<text text-anchor="start" x="105" y="-95.8" font-family="Times New Roman,serif" font-size="14.00">ESTADOS</text>
<polygon fill="lightgrey" stroke="transparent" points="174,-99.5 174,-124.5 460,-124.5 460,-99.5 174,-99.5"/>
<polygon fill="none" stroke="black" points="174,-99.5 174,-124.5 460,-124.5 460,-99.5 174,-99.5"/>
<text text-anchor="start" x="312.5" y="-108.3" font-family="Times New Roman,serif" font-size="14.00">Σ</text>
<polygon fill="none" stroke="black" points="174,-74.5 174,-99.5 200,-99.5 200,-74.5 174,-74.5"/>
<text text-anchor="start" x="183.5" y="-83.3" font-family="Times New Roman,serif" font-size="14.00">1</text>
<polygon fill="none" stroke="black" points="200,-74.5 200,-99.5 226,-99.5 226,-74.5 200,-74.5"/>
<text text-anchor="start" x="209.5" y="-83.3" font-family="Times New Roman,serif" font-size="14.00">2</text>
<polygon fill="none" stroke="black" points="226,-74.5 226,-99.5 252,-99.5 252,-74.5 226,-74.5"/>
<text text-anchor="start" x="235.5" y="-83.3" font-family="Times New Roman,serif" font-size="14.00">3</text>
<polygon fill="none" stroke="black" points="252,-74.5 252,-99.5 278,-99.5 278,-74.5 252,-74.5"/>
<text text-anchor="start" x="261.5" y="-83.3" font-family="Times New Roman,serif" font-size="14.00">4</text>
<polygon fill="none" stroke="black" points="278,-74.5 278,-99.5 304,-99.5 304,-74.5 278,-74.5"/>
<text text-anchor="start" x="287.5" y="-83.3" font-family="Times New Roman,serif" font-size="14.00">5</text>
<polygon fill="none" stroke="black" points="304,-74.5 304,-99.5 330,-99.5 330,-74.5 304,-74.5"/>
<text text-anchor="start" x="313.5" y="-83.3" font-family="Times New Roman,serif" font-size="14.00">a</text>
<polygon fill="none" stroke="black" points="330,-74.5 330,-99.5 356,-99.5 356,-74.5 330,-74.5"/>
<text text-anchor="start" x="339.5" y="-83.3" font-family="Times New Roman,serif" font-size="14.00">e</text>
<polygon fill="none" stroke="black" points="356,-74.5 356,-99.5 382,-99.5 382,-74.5 356,-74.5"/>
<text text-anchor="start" x="367" y="-83.3" font-family="Times New Roman,serif" font-size="14.00">i</text>
<polygon fill="none" stroke="black" points="382,-74.5 382,-99.5 408,-99.5 408,-74.5 382,-74.5"/>
<text text-anchor="start" x="391" y="-83.3" font-family="Times New Roman,serif" font-size="14.00">o</text>
<polygon fill="none" stroke="black" points="408,-74.5 408,-99.5 434,-99.5 434,-74.5 408,-74.5"/>
<text text-anchor="start" x="417.5" y="-83.3" font-family="Times New Roman,serif" font-size="14.00">u</text>
<polygon fill="none" stroke="black" points="434,-74.5 434,-99.5 460,-99.5 460,-74.5 434,-74.5"/>
<text text-anchor="start" x="443" y="-83.3" font-family="Times New Roman,serif" font-size="14.00">#</text>
<polygon fill="none" stroke="black" points="100,-49.5 100,-74.5 174,-74.5 174,-49.5 100,-49.5"/>
<text text-anchor="start" x="129" y="-58.3" font-family="Times New Roman,serif" font-size="14.00">S0</text>
<polygon fill="none" stroke="black" points="174,-49.5 174,-74.5 200,-74.5 200,-49.5 174,-49.5"/>
<text text-anchor="start" x="179" y="-58.3" font-family="Times New Roman,serif" font-size="14.00">S1</text>
<polygon fill="none" stroke="black" points="200,-49.5 200,-74.5 226,-74.5 226,-49.5 200,-49.5"/>
<text text-anchor="start" x="205" y="-58.3" font-family="Times New Roman,serif" font-size="14.00">S1</text>
<polygon fill="none" stroke="black" points="226,-49.5 226,-74.5 252,-74.5 252,-49.5 226,-49.5"/>
<text text-anchor="start" x="231" y="-58.3" font-family="Times New Roman,serif" font-size="14.00">S1</text>
<polygon fill="none" stroke="black" points="252,-49.5 252,-74.5 278,-74.5 278,-49.5 252,-49.5"/>
<text text-anchor="start" x="257" y="-58.3" font-family="Times New Roman,serif" font-size="14.00">S1</text>
<polygon fill="none" stroke="black" points="278,-49.5 278,-74.5 304,-74.5 304,-49.5 278,-49.5"/>
<text text-anchor="start" x="283" y="-58.3" font-family="Times New Roman,serif" font-size="14.00">S1</text>
<polygon fill="none" stroke="black" points="304,-49.5 304,-74.5 330,-74.5 330,-49.5 304,-49.5"/>
<text text-anchor="start" x="309" y="-58.3" font-family="Times New Roman,serif" font-size="14.00">S1</text>
<polygon fill="none" stroke="black" points="330,-49.5 330,-74.5 356,-74.5 356,-49.5 330,-49.5"/>
<text text-anchor="start" x="335" y="-58.3" font-family="Times New Roman,serif" font-size="14.00">S1</text>
<polygon fill="none" stroke="black" points="356,-49.5 356,-74.5 382,-74.5 382,-49.5 356,-49.5"/>
<text text-anchor="start" x="361" y="-58.3" font-family="Times New Roman,serif" font-size="14.00">S1</text>
<polygon fill="none" stroke="black" points="382,-49.5 382,-74.5 408,-74.5 408,-49.5 382,-49.5"/>
<text text-anchor="start" x="387" y="-58.3" font-family="Times New Roman,serif" font-size="14.00">S1</text>
<polygon fill="none" stroke="black" points="408,-49.5 408,-74.5 434,-74.5 434,-49.5 408,-49.5"/>
<text text-anchor="start" x="413" y="-58.3" font-family="Times New Roman,serif" font-size="14.00">S1</text>
<polygon fill="none" stroke="black" points="0,-24.5 0,-49.5 100,-49.5 100,-24.5 0,-24.5"/>
<text text-anchor="start" x="5" y="-33.3" font-family="Times New Roman,serif" font-size="14.00">ACEPTACION</text>
<polygon fill="none" stroke="black" points="100,-24.5 100,-49.5 174,-49.5 174,-24.5 100,-24.5"/>
<text text-anchor="start" x="129" y="-33.3" font-family="Times New Roman,serif" font-size="14.00">S1</text>
<polygon fill="none" stroke="black" points="174,-24.5 174,-49.5 200,-49.5 200,-24.5 174,-24.5"/>
<text text-anchor="start" x="179" y="-33.3" font-family="Times New Roman,serif" font-size="14.00">S1</text>
<polygon fill="none" stroke="black" points="200,-24.5 200,-49.5 226,-49.5 226,-24.5 200,-24.5"/>
<text text-anchor="start" x="205" y="-33.3" font-family="Times New Roman,serif" font-size="14.00">S1</text>
<polygon fill="none" stroke="black" points="226,-24.5 226,-49.5 252,-49.5 252,-24.5 226,-24.5"/>
<text text-anchor="start" x="231" y="-33.3" font-family="Times New Roman,serif" font-size="14.00">S1</text>
<polygon fill="none" stroke="black" points="252,-24.5 252,-49.5 278,-49.5 278,-24.5 252,-24.5"/>
<text text-anchor="start" x="257" y="-33.3" font-family="Times New Roman,serif" font-size="14.00">S1</text>
<polygon fill="none" stroke="black" points="278,-24.5 278,-49.5 304,-49.5 304,-24.5 278,-24.5"/>
<text text-anchor="start" x="283" y="-33.3" font-family="Times New Roman,serif" font-size="14.00">S1</text>
<polygon fill="none" stroke="black" points="304,-24.5 304,-49.5 330,-49.5 330,-24.5 304,-24.5"/>
<text text-anchor="start" x="309" y="-33.3" font-family="Times New Roman,serif" font-size="14.00">S1</text>
<polygon fill="none" stroke="black" points="330,-24.5 330,-49.5 356,-49.5 356,-24.5 330,-24.5"/>
<text text-anchor="start" x="335" y="-33.3" font-family="Times New Roman,serif" font-size="14.00">S1</text>
<polygon fill="none" stroke="black" points="356,-24.5 356,-49.5 382,-49.5 382,-24.5 356,-24.5"/>
<text text-anchor="start" x="361" y="-33.3" font-family="Times New Roman,serif" font-size="14.00">S1</text>
<polygon fill="none" stroke="black" points="382,-24.5 382,-49.5 408,-49.5 408,-24.5 382,-24.5"/>
<text text-anchor="start" x="387" y="-33.3" font-family="Times New Roman,serif" font-size="14.00">S1</text>
<polygon fill="none" stroke="black" points="408,-24.5 408,-49.5 434,-49.5 434,-24.5 408,-24.5"/>
<text text-anchor="start" x="413" y="-33.3" font-family="Times New Roman,serif" font-size="14.00">S1</text>
<polygon fill="none" stroke="black" points="434,-24.5 434,-49.5 460,-49.5 460,-24.5 434,-24.5"/>
<text text-anchor="start" x="439" y="-33.3" font-family="Times New Roman,serif" font-size="14.00">S2</text>
<polygon fill="none" stroke="black" points="0,0.5 0,-24.5 100,-24.5 100,0.5 0,0.5"/>
<text text-anchor="start" x="5" y="-8.3" font-family="Times New Roman,serif" font-size="14.00">ACEPTACION</text>
<polygon fill="none" stroke="black" points="100,0.5 100,-24.5 174,-24.5 174,0.5 100,0.5"/>
<text text-anchor="start" x="129" y="-8.3" font-family="Times New Roman,serif" font-size="14.00">S2</text>
</g>
</g>
</svg>
