<?xml version="1.0" encoding="UTF-8" standalone="no"?>
<!DOCTYPE svg PUBLIC "-//W3C//DTD SVG 1.1//EN"
 "http://www.w3.org/Graphics/SVG/1.1/DTD/svg11.dtd">
<!-- Generated by graphviz version 2.46.0 (20210118.1747)
 -->
<!-- Title: html Pages: 1 -->
<svg width="154pt" height="133pt"
 viewBox="0.00 0.00 154.00 133.00" xmlns="http://www.w3.org/2000/svg" xmlns:xlink="http://www.w3.org/1999/xlink">
<g id="graph0" class="graph" transform="scale(1 1) rotate(0) translate(4 129)">
<title>html</title>
<polygon fill="white" stroke="transparent" points="-4,4 -4,-129 150,-129 150,4 -4,4"/>
<!-- abc -->
<g id="node1" class="node">
<title>abc</title>
<polygon fill="none" stroke="black" points="0,-99.5 0,-124.5 42,-124.5 42,-99.5 0,-99.5"/>
<text text-anchor="start" x="5.5" y="-108.3" font-family="Times New Roman,serif" font-size="14.00">Valor</text>
<polygon fill="none" stroke="black" points="42,-99.5 42,-124.5 79,-124.5 79,-99.5 42,-99.5"/>
<text text-anchor="start" x="47" y="-108.3" font-family="Times New Roman,serif" font-size="14.00">Hoja</text>
<polygon fill="none" stroke="black" points="79,-99.5 79,-124.5 146,-124.5 146,-99.5 79,-99.5"/>
<text text-anchor="start" x="84" y="-108.3" font-family="Times New Roman,serif" font-size="14.00">Siguientes</text>
<polygon fill="none" stroke="black" points="0,-74.5 0,-99.5 42,-99.5 42,-74.5 0,-74.5"/>
<text text-anchor="start" x="5" y="-83.3" font-family="Times New Roman,serif" font-size="14.00">digito</text>
<polygon fill="none" stroke="black" points="42,-74.5 42,-99.5 79,-99.5 79,-74.5 42,-74.5"/>
<text text-anchor="start" x="57" y="-83.3" font-family="Times New Roman,serif" font-size="14.00">1</text>
<polygon fill="none" stroke="black" points="79,-74.5 79,-99.5 146,-99.5 146,-74.5 79,-74.5"/>
<text text-anchor="start" x="107" y="-83.3" font-family="Times New Roman,serif" font-size="14.00">2,</text>
<polygon fill="none" stroke="black" points="0,-49.5 0,-74.5 42,-74.5 42,-49.5 0,-49.5"/>
<text text-anchor="start" x="19" y="-58.3" font-family="Times New Roman,serif" font-size="14.00">.</text>
<polygon fill="none" stroke="black" points="42,-49.5 42,-74.5 79,-74.5 79,-49.5 42,-49.5"/>
<text text-anchor="start" x="57" y="-58.3" font-family="Times New Roman,serif" font-size="14.00">2</text>
<polygon fill="none" stroke="black" points="79,-49.5 79,-74.5 146,-74.5 146,-49.5 79,-49.5"/>
<text text-anchor="start" x="107" y="-58.3" font-family="Times New Roman,serif" font-size="14.00">3,</text>
<polygon fill="none" stroke="black" points="0,-24.5 0,-49.5 42,-49.5 42,-24.5 0,-24.5"/>
<text text-anchor="start" x="5" y="-33.3" font-family="Times New Roman,serif" font-size="14.00">digito</text>
<polygon fill="none" stroke="black" points="42,-24.5 42,-49.5 79,-49.5 79,-24.5 42,-24.5"/>
<text text-anchor="start" x="57" y="-33.3" font-family="Times New Roman,serif" font-size="14.00">3</text>
<polygon fill="none" stroke="black" points="79,-24.5 79,-49.5 146,-49.5 146,-24.5 79,-24.5"/>
<text text-anchor="start" x="101.5" y="-33.3" font-family="Times New Roman,serif" font-size="14.00">3,4,</text>
<polygon fill="none" stroke="black" points="0,0.5 0,-24.5 42,-24.5 42,0.5 0,0.5"/>
<text text-anchor="start" x="17" y="-8.3" font-family="Times New Roman,serif" font-size="14.00">#</text>
<polygon fill="none" stroke="black" points="42,0.5 42,-24.5 79,-24.5 79,0.5 42,0.5"/>
<text text-anchor="start" x="57" y="-8.3" font-family="Times New Roman,serif" font-size="14.00">4</text>
<polygon fill="none" stroke="black" points="79,0.5 79,-24.5 146,-24.5 146,0.5 79,0.5"/>
</g>
</g>
</svg>
