<?xml version="1.0" encoding="UTF-8" standalone="no"?>
<!DOCTYPE svg PUBLIC "-//W3C//DTD SVG 1.1//EN"
 "http://www.w3.org/Graphics/SVG/1.1/DTD/svg11.dtd">
<!-- Generated by graphviz version 2.46.0 (20210118.1747)
 -->
<!-- Title: structs Pages: 1 -->
<svg width="504pt" height="416pt"
 viewBox="0.00 0.00 504.00 416.00" xmlns="http://www.w3.org/2000/svg" xmlns:xlink="http://www.w3.org/1999/xlink">
<g id="graph0" class="graph" transform="scale(1 1) rotate(0) translate(4 412)">
<title>structs</title>
<polygon fill="white" stroke="transparent" points="-4,4 -4,-412 500,-412 500,4 -4,4"/>
<!-- Nodo2032188048 -->
<g id="node1" class="node">
<title>Nodo2032188048</title>
<polygon fill="none" stroke="green" points="298.5,-371.5 298.5,-407.5 419.5,-407.5 419.5,-371.5 298.5,-371.5"/>
<text text-anchor="middle" x="333" y="-385.8" font-family="Times New Roman,serif" font-size="14.00">1,2,3,4,5,</text>
<polyline fill="none" stroke="green" points="367.5,-371.5 367.5,-407.5 "/>
<text text-anchor="middle" x="377.5" y="-385.8" font-family="Times New Roman,serif" font-size="14.00">.</text>
<polyline fill="none" stroke="green" points="387.5,-371.5 387.5,-407.5 "/>
<text text-anchor="middle" x="403.5" y="-385.8" font-family="Times New Roman,serif" font-size="14.00">&#45;1,</text>
</g>
<!-- Nodo112466394 -->
<g id="node2" class="node">
<title>Nodo112466394</title>
<polygon fill="none" stroke="green" points="240,-297.5 240,-333.5 356,-333.5 356,-297.5 240,-297.5"/>
<text text-anchor="middle" x="274.5" y="-311.8" font-family="Times New Roman,serif" font-size="14.00">1,2,3,4,5,</text>
<polyline fill="none" stroke="green" points="309,-297.5 309,-333.5 "/>
<text text-anchor="middle" x="319" y="-311.8" font-family="Times New Roman,serif" font-size="14.00">.</text>
<polyline fill="none" stroke="green" points="329,-297.5 329,-333.5 "/>
<text text-anchor="middle" x="342.5" y="-311.8" font-family="Times New Roman,serif" font-size="14.00">5,</text>
</g>
<!-- Nodo2032188048&#45;&gt;Nodo112466394 -->
<g id="edge1" class="edge">
<title>Nodo2032188048&#45;&gt;Nodo112466394</title>
<path fill="none" stroke="black" d="M344.54,-371.44C337.06,-362.6 327.77,-351.64 319.46,-341.83"/>
<polygon fill="black" stroke="black" points="321.91,-339.31 312.78,-333.94 316.57,-343.83 321.91,-339.31"/>
</g>
<!-- Nodo339099861 -->
<g id="node13" class="node">
<title>Nodo339099861</title>
<polygon fill="none" stroke="green" points="374,-296.5 374,-334.5 466,-334.5 466,-296.5 374,-296.5"/>
<text text-anchor="middle" x="390" y="-311.8" font-family="Times New Roman,serif" font-size="14.00">&#45;1,</text>
<polyline fill="none" stroke="green" points="406,-296.5 406,-334.5 "/>
<text text-anchor="middle" x="420" y="-319.3" font-family="Times New Roman,serif" font-size="14.00">#</text>
<text text-anchor="middle" x="420" y="-304.3" font-family="Times New Roman,serif" font-size="14.00">&#45;1</text>
<polyline fill="none" stroke="green" points="434,-296.5 434,-334.5 "/>
<text text-anchor="middle" x="450" y="-311.8" font-family="Times New Roman,serif" font-size="14.00">&#45;1,</text>
</g>
<!-- Nodo2032188048&#45;&gt;Nodo339099861 -->
<g id="edge2" class="edge">
<title>Nodo2032188048&#45;&gt;Nodo339099861</title>
<path fill="none" stroke="black" d="M373.46,-371.44C380.78,-362.8 389.82,-352.12 397.99,-342.48"/>
<polygon fill="black" stroke="black" points="400.79,-344.59 404.58,-334.7 395.45,-340.07 400.79,-344.59"/>
</g>
<!-- Nodo992846223 -->
<g id="node3" class="node">
<title>Nodo992846223</title>
<polygon fill="none" stroke="red" points="166,-222.5 166,-258.5 304,-258.5 304,-222.5 166,-222.5"/>
<text text-anchor="middle" x="195.5" y="-236.8" font-family="Times New Roman,serif" font-size="14.00">1,2,3,4,</text>
<polyline fill="none" stroke="red" points="225,-222.5 225,-258.5 "/>
<text text-anchor="middle" x="235" y="-236.8" font-family="Times New Roman,serif" font-size="14.00">.</text>
<polyline fill="none" stroke="red" points="245,-222.5 245,-258.5 "/>
<text text-anchor="middle" x="274.5" y="-236.8" font-family="Times New Roman,serif" font-size="14.00">1,2,3,4,</text>
</g>
<!-- Nodo112466394&#45;&gt;Nodo992846223 -->
<g id="edge3" class="edge">
<title>Nodo112466394&#45;&gt;Nodo992846223</title>
<path fill="none" stroke="black" d="M283.07,-297.2C275.15,-288.02 265.27,-276.57 256.53,-266.44"/>
<polygon fill="black" stroke="black" points="259.01,-263.96 249.82,-258.68 253.71,-268.53 259.01,-263.96"/>
</g>
<!-- Nodo558922244 -->
<g id="node12" class="node">
<title>Nodo558922244</title>
<polygon fill="none" stroke="green" points="322,-221.5 322,-259.5 402,-259.5 402,-221.5 322,-221.5"/>
<text text-anchor="middle" x="335.5" y="-236.8" font-family="Times New Roman,serif" font-size="14.00">5,</text>
<polyline fill="none" stroke="green" points="349,-221.5 349,-259.5 "/>
<text text-anchor="middle" x="362" y="-244.3" font-family="Times New Roman,serif" font-size="14.00">B</text>
<text text-anchor="middle" x="362" y="-229.3" font-family="Times New Roman,serif" font-size="14.00">5</text>
<polyline fill="none" stroke="green" points="375,-221.5 375,-259.5 "/>
<text text-anchor="middle" x="388.5" y="-236.8" font-family="Times New Roman,serif" font-size="14.00">5,</text>
</g>
<!-- Nodo112466394&#45;&gt;Nodo558922244 -->
<g id="edge4" class="edge">
<title>Nodo112466394&#45;&gt;Nodo558922244</title>
<path fill="none" stroke="black" d="M313.17,-297.2C320.98,-288.28 330.67,-277.23 339.36,-267.33"/>
<polygon fill="black" stroke="black" points="342.09,-269.52 346.05,-259.69 336.82,-264.91 342.09,-269.52"/>
</g>
<!-- Nodo1493625803 -->
<g id="node4" class="node">
<title>Nodo1493625803</title>
<polygon fill="none" stroke="red" points="127.5,-148.5 127.5,-184.5 226.5,-184.5 226.5,-148.5 127.5,-148.5"/>
<text text-anchor="middle" x="146.5" y="-162.8" font-family="Times New Roman,serif" font-size="14.00">1,2,</text>
<polyline fill="none" stroke="red" points="165.5,-148.5 165.5,-184.5 "/>
<text text-anchor="middle" x="177" y="-162.8" font-family="Times New Roman,serif" font-size="14.00">?</text>
<polyline fill="none" stroke="red" points="188.5,-148.5 188.5,-184.5 "/>
<text text-anchor="middle" x="207.5" y="-162.8" font-family="Times New Roman,serif" font-size="14.00">1,2,</text>
</g>
<!-- Nodo992846223&#45;&gt;Nodo1493625803 -->
<g id="edge5" class="edge">
<title>Nodo992846223&#45;&gt;Nodo1493625803</title>
<path fill="none" stroke="black" d="M221.25,-222.44C214.14,-213.6 205.3,-202.64 197.41,-192.83"/>
<polygon fill="black" stroke="black" points="200.05,-190.53 191.05,-184.94 194.6,-194.92 200.05,-190.53"/>
</g>
<!-- Nodo999522307 -->
<g id="node8" class="node">
<title>Nodo999522307</title>
<polygon fill="none" stroke="red" points="247.5,-148.5 247.5,-184.5 346.5,-184.5 346.5,-148.5 247.5,-148.5"/>
<text text-anchor="middle" x="266.5" y="-162.8" font-family="Times New Roman,serif" font-size="14.00">3,4,</text>
<polyline fill="none" stroke="red" points="285.5,-148.5 285.5,-184.5 "/>
<text text-anchor="middle" x="297" y="-162.8" font-family="Times New Roman,serif" font-size="14.00">*</text>
<polyline fill="none" stroke="red" points="308.5,-148.5 308.5,-184.5 "/>
<text text-anchor="middle" x="327.5" y="-162.8" font-family="Times New Roman,serif" font-size="14.00">3,4,</text>
</g>
<!-- Nodo992846223&#45;&gt;Nodo999522307 -->
<g id="edge6" class="edge">
<title>Nodo992846223&#45;&gt;Nodo999522307</title>
<path fill="none" stroke="black" d="M249.69,-222.44C257.38,-213.51 266.93,-202.42 275.44,-192.54"/>
<polygon fill="black" stroke="black" points="278.11,-194.8 281.98,-184.94 272.8,-190.23 278.11,-194.8"/>
</g>
<!-- Nodo630074945 -->
<g id="node5" class="node">
<title>Nodo630074945</title>
<polygon fill="none" stroke="green" points="127.5,-75.5 127.5,-111.5 222.5,-111.5 222.5,-75.5 127.5,-75.5"/>
<text text-anchor="middle" x="146.5" y="-89.8" font-family="Times New Roman,serif" font-size="14.00">1,2,</text>
<polyline fill="none" stroke="green" points="165.5,-75.5 165.5,-111.5 "/>
<text text-anchor="middle" x="175" y="-89.8" font-family="Times New Roman,serif" font-size="14.00">|</text>
<polyline fill="none" stroke="green" points="184.5,-75.5 184.5,-111.5 "/>
<text text-anchor="middle" x="203.5" y="-89.8" font-family="Times New Roman,serif" font-size="14.00">1,2,</text>
</g>
<!-- Nodo1493625803&#45;&gt;Nodo630074945 -->
<g id="edge7" class="edge">
<title>Nodo1493625803&#45;&gt;Nodo630074945</title>
<path fill="none" stroke="black" d="M176.52,-148.31C176.29,-140.29 176.02,-130.55 175.76,-121.57"/>
<polygon fill="black" stroke="black" points="179.26,-121.43 175.48,-111.53 172.26,-121.62 179.26,-121.43"/>
</g>
<!-- Nodo64133603 -->
<g id="node6" class="node">
<title>Nodo64133603</title>
<polygon fill="none" stroke="green" points="0,-0.5 0,-38.5 108,-38.5 108,-0.5 0,-0.5"/>
<text text-anchor="middle" x="13.5" y="-15.8" font-family="Times New Roman,serif" font-size="14.00">1,</text>
<polyline fill="none" stroke="green" points="27,-0.5 27,-38.5 "/>
<text text-anchor="middle" x="54" y="-23.3" font-family="Times New Roman,serif" font-size="14.00">USAC</text>
<text text-anchor="middle" x="54" y="-8.3" font-family="Times New Roman,serif" font-size="14.00">1</text>
<polyline fill="none" stroke="green" points="81,-0.5 81,-38.5 "/>
<text text-anchor="middle" x="94.5" y="-15.8" font-family="Times New Roman,serif" font-size="14.00">1,</text>
</g>
<!-- Nodo630074945&#45;&gt;Nodo64133603 -->
<g id="edge8" class="edge">
<title>Nodo630074945&#45;&gt;Nodo64133603</title>
<path fill="none" stroke="black" d="M146.32,-75.44C130.49,-66.02 110.6,-54.18 93.34,-43.91"/>
<polygon fill="black" stroke="black" points="94.97,-40.81 84.58,-38.7 91.39,-46.82 94.97,-40.81"/>
</g>
<!-- Nodo1436901839 -->
<g id="node7" class="node">
<title>Nodo1436901839</title>
<polygon fill="none" stroke="green" points="126,-0.5 126,-38.5 224,-38.5 224,-0.5 126,-0.5"/>
<text text-anchor="middle" x="139.5" y="-15.8" font-family="Times New Roman,serif" font-size="14.00">2,</text>
<polyline fill="none" stroke="green" points="153,-0.5 153,-38.5 "/>
<text text-anchor="middle" x="175" y="-23.3" font-family="Times New Roman,serif" font-size="14.00">2022</text>
<text text-anchor="middle" x="175" y="-8.3" font-family="Times New Roman,serif" font-size="14.00">2</text>
<polyline fill="none" stroke="green" points="197,-0.5 197,-38.5 "/>
<text text-anchor="middle" x="210.5" y="-15.8" font-family="Times New Roman,serif" font-size="14.00">2,</text>
</g>
<!-- Nodo630074945&#45;&gt;Nodo1436901839 -->
<g id="edge9" class="edge">
<title>Nodo630074945&#45;&gt;Nodo1436901839</title>
<path fill="none" stroke="black" d="M175,-75.44C175,-67.49 175,-57.81 175,-48.81"/>
<polygon fill="black" stroke="black" points="178.5,-48.7 175,-38.7 171.5,-48.7 178.5,-48.7"/>
</g>
<!-- Nodo1866161430 -->
<g id="node9" class="node">
<title>Nodo1866161430</title>
<polygon fill="none" stroke="green" points="251.5,-75.5 251.5,-111.5 346.5,-111.5 346.5,-75.5 251.5,-75.5"/>
<text text-anchor="middle" x="270.5" y="-89.8" font-family="Times New Roman,serif" font-size="14.00">3,4,</text>
<polyline fill="none" stroke="green" points="289.5,-75.5 289.5,-111.5 "/>
<text text-anchor="middle" x="299" y="-89.8" font-family="Times New Roman,serif" font-size="14.00">|</text>
<polyline fill="none" stroke="green" points="308.5,-75.5 308.5,-111.5 "/>
<text text-anchor="middle" x="327.5" y="-89.8" font-family="Times New Roman,serif" font-size="14.00">3,4,</text>
</g>
<!-- Nodo999522307&#45;&gt;Nodo1866161430 -->
<g id="edge10" class="edge">
<title>Nodo999522307&#45;&gt;Nodo1866161430</title>
<path fill="none" stroke="black" d="M297.48,-148.31C297.71,-140.29 297.98,-130.55 298.24,-121.57"/>
<polygon fill="black" stroke="black" points="301.74,-121.62 298.52,-111.53 294.74,-121.43 301.74,-121.62"/>
</g>
<!-- Nodo2024918163 -->
<g id="node10" class="node">
<title>Nodo2024918163</title>
<polygon fill="none" stroke="green" points="242.5,-0.5 242.5,-38.5 355.5,-38.5 355.5,-0.5 242.5,-0.5"/>
<text text-anchor="middle" x="256" y="-15.8" font-family="Times New Roman,serif" font-size="14.00">3,</text>
<polyline fill="none" stroke="green" points="269.5,-0.5 269.5,-38.5 "/>
<text text-anchor="middle" x="299" y="-23.3" font-family="Times New Roman,serif" font-size="14.00">compi1</text>
<text text-anchor="middle" x="299" y="-8.3" font-family="Times New Roman,serif" font-size="14.00">3</text>
<polyline fill="none" stroke="green" points="328.5,-0.5 328.5,-38.5 "/>
<text text-anchor="middle" x="342" y="-15.8" font-family="Times New Roman,serif" font-size="14.00">3,</text>
</g>
<!-- Nodo1866161430&#45;&gt;Nodo2024918163 -->
<g id="edge11" class="edge">
<title>Nodo1866161430&#45;&gt;Nodo2024918163</title>
<path fill="none" stroke="black" d="M299,-75.44C299,-67.49 299,-57.81 299,-48.81"/>
<polygon fill="black" stroke="black" points="302.5,-48.7 299,-38.7 295.5,-48.7 302.5,-48.7"/>
</g>
<!-- Nodo107241811 -->
<g id="node11" class="node">
<title>Nodo107241811</title>
<polygon fill="none" stroke="green" points="374,-0.5 374,-38.5 496,-38.5 496,-0.5 374,-0.5"/>
<text text-anchor="middle" x="387.5" y="-15.8" font-family="Times New Roman,serif" font-size="14.00">4,</text>
<polyline fill="none" stroke="green" points="401,-0.5 401,-38.5 "/>
<text text-anchor="middle" x="435" y="-23.3" font-family="Times New Roman,serif" font-size="14.00">ingenieria</text>
<text text-anchor="middle" x="435" y="-8.3" font-family="Times New Roman,serif" font-size="14.00">4</text>
<polyline fill="none" stroke="green" points="469,-0.5 469,-38.5 "/>
<text text-anchor="middle" x="482.5" y="-15.8" font-family="Times New Roman,serif" font-size="14.00">4,</text>
</g>
<!-- Nodo1866161430&#45;&gt;Nodo107241811 -->
<g id="edge12" class="edge">
<title>Nodo1866161430&#45;&gt;Nodo107241811</title>
<path fill="none" stroke="black" d="M331.23,-75.44C349.27,-65.89 372,-53.85 391.59,-43.48"/>
<polygon fill="black" stroke="black" points="393.42,-46.47 400.62,-38.7 390.15,-40.28 393.42,-46.47"/>
</g>
</g>
</svg>
