<?xml version="1.0" encoding="UTF-8" standalone="no"?>
<!DOCTYPE svg PUBLIC "-//W3C//DTD SVG 1.1//EN"
 "http://www.w3.org/Graphics/SVG/1.1/DTD/svg11.dtd">
<!-- Generated by graphviz version 2.46.0 (20210118.1747)
 -->
<!-- Title: html Pages: 1 -->
<svg width="217pt" height="183pt"
 viewBox="0.00 0.00 217.00 183.00" xmlns="http://www.w3.org/2000/svg" xmlns:xlink="http://www.w3.org/1999/xlink">
<g id="graph0" class="graph" transform="scale(1 1) rotate(0) translate(4 179)">
<title>html</title>
<polygon fill="white" stroke="transparent" points="-4,4 -4,-179 213,-179 213,4 -4,4"/>
<!-- abc -->
<g id="node1" class="node">
<title>abc</title>
<polygon fill="skyblue" stroke="transparent" points="100.5,-124.5 100.5,-174.5 174.5,-174.5 174.5,-124.5 100.5,-124.5"/>
<polygon fill="none" stroke="black" points="100.5,-124.5 100.5,-174.5 174.5,-174.5 174.5,-124.5 100.5,-124.5"/>
<text text-anchor="start" x="105.5" y="-145.8" font-family="Times New Roman,serif" font-size="14.00">ESTADOS</text>
<polygon fill="lightgrey" stroke="transparent" points="174.5,-149.5 174.5,-174.5 209.5,-174.5 209.5,-149.5 174.5,-149.5"/>
<polygon fill="none" stroke="black" points="174.5,-149.5 174.5,-174.5 209.5,-174.5 209.5,-149.5 174.5,-149.5"/>
<text text-anchor="start" x="187.5" y="-158.3" font-family="Times New Roman,serif" font-size="14.00">Σ</text>
<polygon fill="none" stroke="black" points="0.5,-124.5 0.5,-149.5 100.5,-149.5 100.5,-124.5 0.5,-124.5"/>
<text text-anchor="start" x="34.5" y="-133.3" font-family="Times New Roman,serif" font-size="14.00">digito</text>
<polygon fill="none" stroke="black" points="174.5,-124.5 174.5,-149.5 191.5,-149.5 191.5,-124.5 174.5,-124.5"/>
<text text-anchor="start" x="181" y="-133.3" font-family="Times New Roman,serif" font-size="14.00">.</text>
<polygon fill="none" stroke="black" points="191.5,-124.5 191.5,-149.5 209.5,-149.5 209.5,-124.5 191.5,-124.5"/>
<text text-anchor="start" x="196.5" y="-133.3" font-family="Times New Roman,serif" font-size="14.00">#</text>
<polygon fill="none" stroke="black" points="100.5,-99.5 100.5,-124.5 174.5,-124.5 174.5,-99.5 100.5,-99.5"/>
<text text-anchor="start" x="129.5" y="-108.3" font-family="Times New Roman,serif" font-size="14.00">S0</text>
<polygon fill="none" stroke="black" points="174.5,-99.5 174.5,-124.5 191.5,-124.5 191.5,-99.5 174.5,-99.5"/>
<text text-anchor="start" x="179.5" y="-108.3" font-family="Times New Roman,serif" font-size="14.00">1</text>
<polygon fill="none" stroke="black" points="100.5,-74.5 100.5,-99.5 174.5,-99.5 174.5,-74.5 100.5,-74.5"/>
<text text-anchor="start" x="129.5" y="-83.3" font-family="Times New Roman,serif" font-size="14.00">S1</text>
<polygon fill="none" stroke="black" points="174.5,-74.5 174.5,-99.5 191.5,-99.5 191.5,-74.5 174.5,-74.5"/>
<text text-anchor="start" x="179.5" y="-83.3" font-family="Times New Roman,serif" font-size="14.00">2</text>
<polygon fill="none" stroke="black" points="100.5,-49.5 100.5,-74.5 174.5,-74.5 174.5,-49.5 100.5,-49.5"/>
<text text-anchor="start" x="129.5" y="-58.3" font-family="Times New Roman,serif" font-size="14.00">S2</text>
<polygon fill="none" stroke="black" points="174.5,-49.5 174.5,-74.5 191.5,-74.5 191.5,-49.5 174.5,-49.5"/>
<text text-anchor="start" x="179.5" y="-58.3" font-family="Times New Roman,serif" font-size="14.00">3</text>
<polygon fill="none" stroke="black" points="0.5,-24.5 0.5,-49.5 100.5,-49.5 100.5,-24.5 0.5,-24.5"/>
<text text-anchor="start" x="5.5" y="-33.3" font-family="Times New Roman,serif" font-size="14.00">ACEPTACION</text>
<polygon fill="none" stroke="black" points="100.5,-24.5 100.5,-49.5 174.5,-49.5 174.5,-24.5 100.5,-24.5"/>
<text text-anchor="start" x="129.5" y="-33.3" font-family="Times New Roman,serif" font-size="14.00">S3</text>
<polygon fill="none" stroke="black" points="174.5,-24.5 174.5,-49.5 191.5,-49.5 191.5,-24.5 174.5,-24.5"/>
<text text-anchor="start" x="179.5" y="-33.3" font-family="Times New Roman,serif" font-size="14.00">3</text>
<polygon fill="none" stroke="black" points="191.5,-24.5 191.5,-49.5 209.5,-49.5 209.5,-24.5 191.5,-24.5"/>
<text text-anchor="start" x="197" y="-33.3" font-family="Times New Roman,serif" font-size="14.00">4</text>
<polygon fill="none" stroke="black" points="0.5,0.5 0.5,-24.5 100.5,-24.5 100.5,0.5 0.5,0.5"/>
<text text-anchor="start" x="5.5" y="-8.3" font-family="Times New Roman,serif" font-size="14.00">ACEPTACION</text>
<polygon fill="none" stroke="black" points="100.5,0.5 100.5,-24.5 174.5,-24.5 174.5,0.5 100.5,0.5"/>
<text text-anchor="start" x="129.5" y="-8.3" font-family="Times New Roman,serif" font-size="14.00">S4</text>
</g>
</g>
</svg>
