<?xml version="1.0" encoding="UTF-8" standalone="no"?>
<!DOCTYPE svg PUBLIC "-//W3C//DTD SVG 1.1//EN"
 "http://www.w3.org/Graphics/SVG/1.1/DTD/svg11.dtd">
<!-- Generated by graphviz version 2.46.0 (20210118.1747)
 -->
<!-- Title: structs Pages: 1 -->
<svg width="638pt" height="641pt"
 viewBox="0.00 0.00 637.50 641.00" xmlns="http://www.w3.org/2000/svg" xmlns:xlink="http://www.w3.org/1999/xlink">
<g id="graph0" class="graph" transform="scale(1 1) rotate(0) translate(4 637)">
<title>structs</title>
<polygon fill="white" stroke="transparent" points="-4,4 -4,-637 633.5,-637 633.5,4 -4,4"/>
<!-- Nodo398572781 -->
<g id="node1" class="node">
<title>Nodo398572781</title>
<polygon fill="none" stroke="green" points="374.5,-596.5 374.5,-632.5 556.5,-632.5 556.5,-596.5 374.5,-596.5"/>
<text text-anchor="middle" x="438.5" y="-610.8" font-family="Times New Roman,serif" font-size="14.00">1,2,3,4,5,6,7,8,9,10,</text>
<polyline fill="none" stroke="green" points="502.5,-596.5 502.5,-632.5 "/>
<text text-anchor="middle" x="512.5" y="-610.8" font-family="Times New Roman,serif" font-size="14.00">.</text>
<polyline fill="none" stroke="green" points="522.5,-596.5 522.5,-632.5 "/>
<text text-anchor="middle" x="539.5" y="-610.8" font-family="Times New Roman,serif" font-size="14.00">11,</text>
</g>
<!-- Nodo765284253 -->
<g id="node2" class="node">
<title>Nodo765284253</title>
<polygon fill="none" stroke="green" points="221,-522.5 221,-558.5 502,-558.5 502,-522.5 221,-522.5"/>
<text text-anchor="middle" x="285" y="-536.8" font-family="Times New Roman,serif" font-size="14.00">1,2,3,4,5,6,7,8,9,10,</text>
<polyline fill="none" stroke="green" points="349,-522.5 349,-558.5 "/>
<text text-anchor="middle" x="361.5" y="-536.8" font-family="Times New Roman,serif" font-size="14.00">+</text>
<polyline fill="none" stroke="green" points="374,-522.5 374,-558.5 "/>
<text text-anchor="middle" x="438" y="-536.8" font-family="Times New Roman,serif" font-size="14.00">1,2,3,4,5,6,7,8,9,10,</text>
</g>
<!-- Nodo398572781&#45;&gt;Nodo765284253 -->
<g id="edge1" class="edge">
<title>Nodo398572781&#45;&gt;Nodo765284253</title>
<path fill="none" stroke="black" d="M440.85,-596.44C427.1,-586.91 409.77,-574.91 394.81,-564.56"/>
<polygon fill="black" stroke="black" points="396.54,-561.5 386.33,-558.69 392.56,-567.26 396.54,-561.5"/>
</g>
<!-- Nodo107241811 -->
<g id="node23" class="node">
<title>Nodo107241811</title>
<polygon fill="none" stroke="green" points="520.5,-521.5 520.5,-559.5 618.5,-559.5 618.5,-521.5 520.5,-521.5"/>
<text text-anchor="middle" x="537.5" y="-536.8" font-family="Times New Roman,serif" font-size="14.00">11,</text>
<polyline fill="none" stroke="green" points="554.5,-521.5 554.5,-559.5 "/>
<text text-anchor="middle" x="569.5" y="-544.3" font-family="Times New Roman,serif" font-size="14.00">#</text>
<text text-anchor="middle" x="569.5" y="-529.3" font-family="Times New Roman,serif" font-size="14.00">11</text>
<polyline fill="none" stroke="green" points="584.5,-521.5 584.5,-559.5 "/>
<text text-anchor="middle" x="601.5" y="-536.8" font-family="Times New Roman,serif" font-size="14.00">11,</text>
</g>
<!-- Nodo398572781&#45;&gt;Nodo107241811 -->
<g id="edge2" class="edge">
<title>Nodo398572781&#45;&gt;Nodo107241811</title>
<path fill="none" stroke="black" d="M490.15,-596.44C503.5,-587.19 520.23,-575.61 534.87,-565.47"/>
<polygon fill="black" stroke="black" points="536.98,-568.27 543.21,-559.7 533,-562.51 536.98,-568.27"/>
</g>
<!-- Nodo1077199500 -->
<g id="node3" class="node">
<title>Nodo1077199500</title>
<polygon fill="none" stroke="green" points="224,-448.5 224,-484.5 499,-484.5 499,-448.5 224,-448.5"/>
<text text-anchor="middle" x="288" y="-462.8" font-family="Times New Roman,serif" font-size="14.00">1,2,3,4,5,6,7,8,9,10,</text>
<polyline fill="none" stroke="green" points="352,-448.5 352,-484.5 "/>
<text text-anchor="middle" x="361.5" y="-462.8" font-family="Times New Roman,serif" font-size="14.00">|</text>
<polyline fill="none" stroke="green" points="371,-448.5 371,-484.5 "/>
<text text-anchor="middle" x="435" y="-462.8" font-family="Times New Roman,serif" font-size="14.00">1,2,3,4,5,6,7,8,9,10,</text>
</g>
<!-- Nodo765284253&#45;&gt;Nodo1077199500 -->
<g id="edge3" class="edge">
<title>Nodo765284253&#45;&gt;Nodo1077199500</title>
<path fill="none" stroke="black" d="M361.5,-522.44C361.5,-514.31 361.5,-504.38 361.5,-495.2"/>
<polygon fill="black" stroke="black" points="365,-494.94 361.5,-484.94 358,-494.94 365,-494.94"/>
</g>
<!-- Nodo240166646 -->
<g id="node4" class="node">
<title>Nodo240166646</title>
<polygon fill="none" stroke="green" points="188,-375.5 188,-411.5 351,-411.5 351,-375.5 188,-375.5"/>
<text text-anchor="middle" x="222.5" y="-389.8" font-family="Times New Roman,serif" font-size="14.00">1,2,3,4,5,</text>
<polyline fill="none" stroke="green" points="257,-375.5 257,-411.5 "/>
<text text-anchor="middle" x="269.5" y="-389.8" font-family="Times New Roman,serif" font-size="14.00">+</text>
<polyline fill="none" stroke="green" points="282,-375.5 282,-411.5 "/>
<text text-anchor="middle" x="316.5" y="-389.8" font-family="Times New Roman,serif" font-size="14.00">1,2,3,4,5,</text>
</g>
<!-- Nodo1077199500&#45;&gt;Nodo240166646 -->
<g id="edge4" class="edge">
<title>Nodo1077199500&#45;&gt;Nodo240166646</title>
<path fill="none" stroke="black" d="M339.23,-448.31C327.36,-439.16 312.6,-427.76 299.71,-417.82"/>
<polygon fill="black" stroke="black" points="301.62,-414.87 291.57,-411.53 297.34,-420.41 301.62,-414.87"/>
</g>
<!-- Nodo112466394 -->
<g id="node14" class="node">
<title>Nodo112466394</title>
<polygon fill="none" stroke="green" points="369,-375.5 369,-411.5 540,-411.5 540,-375.5 369,-375.5"/>
<text text-anchor="middle" x="407" y="-389.8" font-family="Times New Roman,serif" font-size="14.00">6,7,8,9,10,</text>
<polyline fill="none" stroke="green" points="445,-375.5 445,-411.5 "/>
<text text-anchor="middle" x="454.5" y="-389.8" font-family="Times New Roman,serif" font-size="14.00">|</text>
<polyline fill="none" stroke="green" points="464,-375.5 464,-411.5 "/>
<text text-anchor="middle" x="502" y="-389.8" font-family="Times New Roman,serif" font-size="14.00">6,7,8,9,10,</text>
</g>
<!-- Nodo1077199500&#45;&gt;Nodo112466394 -->
<g id="edge5" class="edge">
<title>Nodo1077199500&#45;&gt;Nodo112466394</title>
<path fill="none" stroke="black" d="M384.01,-448.31C396.01,-439.16 410.93,-427.76 423.96,-417.82"/>
<polygon fill="black" stroke="black" points="426.37,-420.38 432.19,-411.53 422.12,-414.82 426.37,-420.38"/>
</g>
<!-- Nodo351028485 -->
<g id="node5" class="node">
<title>Nodo351028485</title>
<polygon fill="none" stroke="green" points="191,-301.5 191,-337.5 348,-337.5 348,-301.5 191,-301.5"/>
<text text-anchor="middle" x="225.5" y="-315.8" font-family="Times New Roman,serif" font-size="14.00">1,2,3,4,5,</text>
<polyline fill="none" stroke="green" points="260,-301.5 260,-337.5 "/>
<text text-anchor="middle" x="269.5" y="-315.8" font-family="Times New Roman,serif" font-size="14.00">|</text>
<polyline fill="none" stroke="green" points="279,-301.5 279,-337.5 "/>
<text text-anchor="middle" x="313.5" y="-315.8" font-family="Times New Roman,serif" font-size="14.00">1,2,3,4,5,</text>
</g>
<!-- Nodo240166646&#45;&gt;Nodo351028485 -->
<g id="edge6" class="edge">
<title>Nodo240166646&#45;&gt;Nodo351028485</title>
<path fill="none" stroke="black" d="M269.5,-375.44C269.5,-367.31 269.5,-357.38 269.5,-348.2"/>
<polygon fill="black" stroke="black" points="273,-347.94 269.5,-337.94 266,-347.94 273,-347.94"/>
</g>
<!-- Nodo1405747618 -->
<g id="node6" class="node">
<title>Nodo1405747618</title>
<polygon fill="none" stroke="green" points="96,-226.5 96,-262.5 233,-262.5 233,-226.5 96,-226.5"/>
<text text-anchor="middle" x="125.5" y="-240.8" font-family="Times New Roman,serif" font-size="14.00">1,2,3,4,</text>
<polyline fill="none" stroke="green" points="155,-226.5 155,-262.5 "/>
<text text-anchor="middle" x="164.5" y="-240.8" font-family="Times New Roman,serif" font-size="14.00">|</text>
<polyline fill="none" stroke="green" points="174,-226.5 174,-262.5 "/>
<text text-anchor="middle" x="203.5" y="-240.8" font-family="Times New Roman,serif" font-size="14.00">1,2,3,4,</text>
</g>
<!-- Nodo351028485&#45;&gt;Nodo1405747618 -->
<g id="edge7" class="edge">
<title>Nodo351028485&#45;&gt;Nodo1405747618</title>
<path fill="none" stroke="black" d="M244.88,-301.38C230.66,-291.5 212.6,-278.94 197.2,-268.24"/>
<polygon fill="black" stroke="black" points="199.17,-265.34 188.96,-262.51 195.18,-271.09 199.17,-265.34"/>
</g>
<!-- Nodo2032188048 -->
<g id="node13" class="node">
<title>Nodo2032188048</title>
<polygon fill="none" stroke="green" points="251,-225.5 251,-263.5 328,-263.5 328,-225.5 251,-225.5"/>
<text text-anchor="middle" x="264.5" y="-240.8" font-family="Times New Roman,serif" font-size="14.00">5,</text>
<polyline fill="none" stroke="green" points="278,-225.5 278,-263.5 "/>
<text text-anchor="middle" x="289.5" y="-248.3" font-family="Times New Roman,serif" font-size="14.00">5</text>
<text text-anchor="middle" x="289.5" y="-233.3" font-family="Times New Roman,serif" font-size="14.00">5</text>
<polyline fill="none" stroke="green" points="301,-225.5 301,-263.5 "/>
<text text-anchor="middle" x="314.5" y="-240.8" font-family="Times New Roman,serif" font-size="14.00">5,</text>
</g>
<!-- Nodo351028485&#45;&gt;Nodo2032188048 -->
<g id="edge8" class="edge">
<title>Nodo351028485&#45;&gt;Nodo2032188048</title>
<path fill="none" stroke="black" d="M274.24,-301.2C276.51,-292.9 279.29,-282.75 281.86,-273.4"/>
<polygon fill="black" stroke="black" points="285.25,-274.26 284.52,-263.69 278.5,-272.41 285.25,-274.26"/>
</g>
<!-- Nodo898406901 -->
<g id="node7" class="node">
<title>Nodo898406901</title>
<polygon fill="none" stroke="green" points="66,-151.5 66,-187.5 181,-187.5 181,-151.5 66,-151.5"/>
<text text-anchor="middle" x="90" y="-165.8" font-family="Times New Roman,serif" font-size="14.00">1,2,3,</text>
<polyline fill="none" stroke="green" points="114,-151.5 114,-187.5 "/>
<text text-anchor="middle" x="123.5" y="-165.8" font-family="Times New Roman,serif" font-size="14.00">|</text>
<polyline fill="none" stroke="green" points="133,-151.5 133,-187.5 "/>
<text text-anchor="middle" x="157" y="-165.8" font-family="Times New Roman,serif" font-size="14.00">1,2,3,</text>
</g>
<!-- Nodo1405747618&#45;&gt;Nodo898406901 -->
<g id="edge9" class="edge">
<title>Nodo1405747618&#45;&gt;Nodo898406901</title>
<path fill="none" stroke="black" d="M154.78,-226.2C149.83,-217.38 143.7,-206.47 138.19,-196.65"/>
<polygon fill="black" stroke="black" points="141.1,-194.68 133.15,-187.68 134.99,-198.11 141.1,-194.68"/>
</g>
<!-- Nodo589835301 -->
<g id="node12" class="node">
<title>Nodo589835301</title>
<polygon fill="none" stroke="green" points="199,-150.5 199,-188.5 276,-188.5 276,-150.5 199,-150.5"/>
<text text-anchor="middle" x="212.5" y="-165.8" font-family="Times New Roman,serif" font-size="14.00">4,</text>
<polyline fill="none" stroke="green" points="226,-150.5 226,-188.5 "/>
<text text-anchor="middle" x="237.5" y="-173.3" font-family="Times New Roman,serif" font-size="14.00">4</text>
<text text-anchor="middle" x="237.5" y="-158.3" font-family="Times New Roman,serif" font-size="14.00">4</text>
<polyline fill="none" stroke="green" points="249,-150.5 249,-188.5 "/>
<text text-anchor="middle" x="262.5" y="-165.8" font-family="Times New Roman,serif" font-size="14.00">4,</text>
</g>
<!-- Nodo1405747618&#45;&gt;Nodo589835301 -->
<g id="edge10" class="edge">
<title>Nodo1405747618&#45;&gt;Nodo589835301</title>
<path fill="none" stroke="black" d="M181.8,-226.2C190.8,-217.2 201.99,-206.01 211.97,-196.03"/>
<polygon fill="black" stroke="black" points="214.71,-198.24 219.31,-188.69 209.76,-193.29 214.71,-198.24"/>
</g>
<!-- Nodo1054932644 -->
<g id="node8" class="node">
<title>Nodo1054932644</title>
<polygon fill="none" stroke="green" points="38,-76.5 38,-112.5 133,-112.5 133,-76.5 38,-76.5"/>
<text text-anchor="middle" x="57" y="-90.8" font-family="Times New Roman,serif" font-size="14.00">1,2,</text>
<polyline fill="none" stroke="green" points="76,-76.5 76,-112.5 "/>
<text text-anchor="middle" x="85.5" y="-90.8" font-family="Times New Roman,serif" font-size="14.00">|</text>
<polyline fill="none" stroke="green" points="95,-76.5 95,-112.5 "/>
<text text-anchor="middle" x="114" y="-90.8" font-family="Times New Roman,serif" font-size="14.00">1,2,</text>
</g>
<!-- Nodo898406901&#45;&gt;Nodo1054932644 -->
<g id="edge11" class="edge">
<title>Nodo898406901&#45;&gt;Nodo1054932644</title>
<path fill="none" stroke="black" d="M114.49,-151.2C109.9,-142.38 104.23,-131.47 99.11,-121.65"/>
<polygon fill="black" stroke="black" points="102.16,-119.93 94.44,-112.68 95.95,-123.16 102.16,-119.93"/>
</g>
<!-- Nodo444920847 -->
<g id="node11" class="node">
<title>Nodo444920847</title>
<polygon fill="none" stroke="green" points="151,-75.5 151,-113.5 228,-113.5 228,-75.5 151,-75.5"/>
<text text-anchor="middle" x="164.5" y="-90.8" font-family="Times New Roman,serif" font-size="14.00">3,</text>
<polyline fill="none" stroke="green" points="178,-75.5 178,-113.5 "/>
<text text-anchor="middle" x="189.5" y="-98.3" font-family="Times New Roman,serif" font-size="14.00">3</text>
<text text-anchor="middle" x="189.5" y="-83.3" font-family="Times New Roman,serif" font-size="14.00">3</text>
<polyline fill="none" stroke="green" points="201,-75.5 201,-113.5 "/>
<text text-anchor="middle" x="214.5" y="-90.8" font-family="Times New Roman,serif" font-size="14.00">3,</text>
</g>
<!-- Nodo898406901&#45;&gt;Nodo444920847 -->
<g id="edge12" class="edge">
<title>Nodo898406901&#45;&gt;Nodo444920847</title>
<path fill="none" stroke="black" d="M139.14,-151.2C147.2,-142.28 157.2,-131.23 166.15,-121.33"/>
<polygon fill="black" stroke="black" points="168.94,-123.46 173.05,-113.69 163.75,-118.77 168.94,-123.46"/>
</g>
<!-- Nodo1213349904 -->
<g id="node9" class="node">
<title>Nodo1213349904</title>
<polygon fill="none" stroke="green" points="0,-0.5 0,-38.5 77,-38.5 77,-0.5 0,-0.5"/>
<text text-anchor="middle" x="13.5" y="-15.8" font-family="Times New Roman,serif" font-size="14.00">1,</text>
<polyline fill="none" stroke="green" points="27,-0.5 27,-38.5 "/>
<text text-anchor="middle" x="38.5" y="-23.3" font-family="Times New Roman,serif" font-size="14.00">1</text>
<text text-anchor="middle" x="38.5" y="-8.3" font-family="Times New Roman,serif" font-size="14.00">1</text>
<polyline fill="none" stroke="green" points="50,-0.5 50,-38.5 "/>
<text text-anchor="middle" x="63.5" y="-15.8" font-family="Times New Roman,serif" font-size="14.00">1,</text>
</g>
<!-- Nodo1054932644&#45;&gt;Nodo1213349904 -->
<g id="edge13" class="edge">
<title>Nodo1054932644&#45;&gt;Nodo1213349904</title>
<path fill="none" stroke="black" d="M74.36,-76.2C68.79,-67.55 61.93,-56.89 55.7,-47.21"/>
<polygon fill="black" stroke="black" points="58.57,-45.21 50.21,-38.69 52.68,-49 58.57,-45.21"/>
</g>
<!-- Nodo1259769769 -->
<g id="node10" class="node">
<title>Nodo1259769769</title>
<polygon fill="none" stroke="green" points="95,-0.5 95,-38.5 172,-38.5 172,-0.5 95,-0.5"/>
<text text-anchor="middle" x="108.5" y="-15.8" font-family="Times New Roman,serif" font-size="14.00">2,</text>
<polyline fill="none" stroke="green" points="122,-0.5 122,-38.5 "/>
<text text-anchor="middle" x="133.5" y="-23.3" font-family="Times New Roman,serif" font-size="14.00">2</text>
<text text-anchor="middle" x="133.5" y="-8.3" font-family="Times New Roman,serif" font-size="14.00">2</text>
<polyline fill="none" stroke="green" points="145,-0.5 145,-38.5 "/>
<text text-anchor="middle" x="158.5" y="-15.8" font-family="Times New Roman,serif" font-size="14.00">2,</text>
</g>
<!-- Nodo1054932644&#45;&gt;Nodo1259769769 -->
<g id="edge14" class="edge">
<title>Nodo1054932644&#45;&gt;Nodo1259769769</title>
<path fill="none" stroke="black" d="M96.88,-76.2C102.56,-67.55 109.57,-56.89 115.94,-47.21"/>
<polygon fill="black" stroke="black" points="118.97,-48.97 121.54,-38.69 113.12,-45.13 118.97,-48.97"/>
</g>
<!-- Nodo992846223 -->
<g id="node15" class="node">
<title>Nodo992846223</title>
<polygon fill="none" stroke="green" points="376,-301.5 376,-337.5 513,-337.5 513,-301.5 376,-301.5"/>
<text text-anchor="middle" x="405.5" y="-315.8" font-family="Times New Roman,serif" font-size="14.00">6,7,8,9,</text>
<polyline fill="none" stroke="green" points="435,-301.5 435,-337.5 "/>
<text text-anchor="middle" x="444.5" y="-315.8" font-family="Times New Roman,serif" font-size="14.00">|</text>
<polyline fill="none" stroke="green" points="454,-301.5 454,-337.5 "/>
<text text-anchor="middle" x="483.5" y="-315.8" font-family="Times New Roman,serif" font-size="14.00">6,7,8,9,</text>
</g>
<!-- Nodo112466394&#45;&gt;Nodo992846223 -->
<g id="edge15" class="edge">
<title>Nodo112466394&#45;&gt;Nodo992846223</title>
<path fill="none" stroke="black" d="M452.13,-375.44C450.99,-367.22 449.59,-357.16 448.31,-347.91"/>
<polygon fill="black" stroke="black" points="451.76,-347.36 446.92,-337.94 444.83,-348.33 451.76,-347.36"/>
</g>
<!-- Nodo2024918163 -->
<g id="node22" class="node">
<title>Nodo2024918163</title>
<polygon fill="none" stroke="green" points="531.5,-300.5 531.5,-338.5 629.5,-338.5 629.5,-300.5 531.5,-300.5"/>
<text text-anchor="middle" x="548.5" y="-315.8" font-family="Times New Roman,serif" font-size="14.00">10,</text>
<polyline fill="none" stroke="green" points="565.5,-300.5 565.5,-338.5 "/>
<text text-anchor="middle" x="580.5" y="-323.3" font-family="Times New Roman,serif" font-size="14.00">u</text>
<text text-anchor="middle" x="580.5" y="-308.3" font-family="Times New Roman,serif" font-size="14.00">10</text>
<polyline fill="none" stroke="green" points="595.5,-300.5 595.5,-338.5 "/>
<text text-anchor="middle" x="612.5" y="-315.8" font-family="Times New Roman,serif" font-size="14.00">10,</text>
</g>
<!-- Nodo112466394&#45;&gt;Nodo2024918163 -->
<g id="edge16" class="edge">
<title>Nodo112466394&#45;&gt;Nodo2024918163</title>
<path fill="none" stroke="black" d="M484.36,-375.44C500.84,-366.02 521.56,-354.18 539.54,-343.91"/>
<polygon fill="black" stroke="black" points="541.71,-346.7 548.65,-338.7 538.23,-340.62 541.71,-346.7"/>
</g>
<!-- Nodo1493625803 -->
<g id="node16" class="node">
<title>Nodo1493625803</title>
<polygon fill="none" stroke="green" points="367,-226.5 367,-262.5 482,-262.5 482,-226.5 367,-226.5"/>
<text text-anchor="middle" x="391" y="-240.8" font-family="Times New Roman,serif" font-size="14.00">6,7,8,</text>
<polyline fill="none" stroke="green" points="415,-226.5 415,-262.5 "/>
<text text-anchor="middle" x="424.5" y="-240.8" font-family="Times New Roman,serif" font-size="14.00">|</text>
<polyline fill="none" stroke="green" points="434,-226.5 434,-262.5 "/>
<text text-anchor="middle" x="458" y="-240.8" font-family="Times New Roman,serif" font-size="14.00">6,7,8,</text>
</g>
<!-- Nodo992846223&#45;&gt;Nodo1493625803 -->
<g id="edge17" class="edge">
<title>Nodo992846223&#45;&gt;Nodo1493625803</title>
<path fill="none" stroke="black" d="M439.76,-301.2C437.42,-292.65 434.54,-282.15 431.92,-272.57"/>
<polygon fill="black" stroke="black" points="435.22,-271.4 429.21,-262.68 428.47,-273.25 435.22,-271.4"/>
</g>
<!-- Nodo1866161430 -->
<g id="node21" class="node">
<title>Nodo1866161430</title>
<polygon fill="none" stroke="green" points="500.5,-225.5 500.5,-263.5 578.5,-263.5 578.5,-225.5 500.5,-225.5"/>
<text text-anchor="middle" x="514" y="-240.8" font-family="Times New Roman,serif" font-size="14.00">9,</text>
<polyline fill="none" stroke="green" points="527.5,-225.5 527.5,-263.5 "/>
<text text-anchor="middle" x="539.5" y="-248.3" font-family="Times New Roman,serif" font-size="14.00">o</text>
<text text-anchor="middle" x="539.5" y="-233.3" font-family="Times New Roman,serif" font-size="14.00">9</text>
<polyline fill="none" stroke="green" points="551.5,-225.5 551.5,-263.5 "/>
<text text-anchor="middle" x="565" y="-240.8" font-family="Times New Roman,serif" font-size="14.00">9,</text>
</g>
<!-- Nodo992846223&#45;&gt;Nodo1866161430 -->
<g id="edge18" class="edge">
<title>Nodo992846223&#45;&gt;Nodo1866161430</title>
<path fill="none" stroke="black" d="M467.01,-301.2C479.19,-291.84 494.43,-280.13 507.79,-269.87"/>
<polygon fill="black" stroke="black" points="510.03,-272.56 515.82,-263.69 505.76,-267.01 510.03,-272.56"/>
</g>
<!-- Nodo630074945 -->
<g id="node17" class="node">
<title>Nodo630074945</title>
<polygon fill="none" stroke="green" points="313,-151.5 313,-187.5 408,-187.5 408,-151.5 313,-151.5"/>
<text text-anchor="middle" x="332" y="-165.8" font-family="Times New Roman,serif" font-size="14.00">6,7,</text>
<polyline fill="none" stroke="green" points="351,-151.5 351,-187.5 "/>
<text text-anchor="middle" x="360.5" y="-165.8" font-family="Times New Roman,serif" font-size="14.00">|</text>
<polyline fill="none" stroke="green" points="370,-151.5 370,-187.5 "/>
<text text-anchor="middle" x="389" y="-165.8" font-family="Times New Roman,serif" font-size="14.00">6,7,</text>
</g>
<!-- Nodo1493625803&#45;&gt;Nodo630074945 -->
<g id="edge19" class="edge">
<title>Nodo1493625803&#45;&gt;Nodo630074945</title>
<path fill="none" stroke="black" d="M409.33,-226.2C401.28,-217.02 391.25,-205.57 382.37,-195.44"/>
<polygon fill="black" stroke="black" points="384.78,-192.89 375.56,-187.68 379.52,-197.5 384.78,-192.89"/>
</g>
<!-- Nodo999522307 -->
<g id="node20" class="node">
<title>Nodo999522307</title>
<polygon fill="none" stroke="green" points="426,-150.5 426,-188.5 503,-188.5 503,-150.5 426,-150.5"/>
<text text-anchor="middle" x="439.5" y="-165.8" font-family="Times New Roman,serif" font-size="14.00">8,</text>
<polyline fill="none" stroke="green" points="453,-150.5 453,-188.5 "/>
<text text-anchor="middle" x="464.5" y="-173.3" font-family="Times New Roman,serif" font-size="14.00">i</text>
<text text-anchor="middle" x="464.5" y="-158.3" font-family="Times New Roman,serif" font-size="14.00">8</text>
<polyline fill="none" stroke="green" points="476,-150.5 476,-188.5 "/>
<text text-anchor="middle" x="489.5" y="-165.8" font-family="Times New Roman,serif" font-size="14.00">8,</text>
</g>
<!-- Nodo1493625803&#45;&gt;Nodo999522307 -->
<g id="edge20" class="edge">
<title>Nodo1493625803&#45;&gt;Nodo999522307</title>
<path fill="none" stroke="black" d="M433.98,-226.2C438.67,-217.64 444.44,-207.1 449.7,-197.51"/>
<polygon fill="black" stroke="black" points="452.79,-199.15 454.53,-188.69 446.66,-195.78 452.79,-199.15"/>
</g>
<!-- Nodo64133603 -->
<g id="node18" class="node">
<title>Nodo64133603</title>
<polygon fill="none" stroke="green" points="284,-75.5 284,-113.5 361,-113.5 361,-75.5 284,-75.5"/>
<text text-anchor="middle" x="297.5" y="-90.8" font-family="Times New Roman,serif" font-size="14.00">6,</text>
<polyline fill="none" stroke="green" points="311,-75.5 311,-113.5 "/>
<text text-anchor="middle" x="322.5" y="-98.3" font-family="Times New Roman,serif" font-size="14.00">a</text>
<text text-anchor="middle" x="322.5" y="-83.3" font-family="Times New Roman,serif" font-size="14.00">6</text>
<polyline fill="none" stroke="green" points="334,-75.5 334,-113.5 "/>
<text text-anchor="middle" x="347.5" y="-90.8" font-family="Times New Roman,serif" font-size="14.00">6,</text>
</g>
<!-- Nodo630074945&#45;&gt;Nodo64133603 -->
<g id="edge21" class="edge">
<title>Nodo630074945&#45;&gt;Nodo64133603</title>
<path fill="none" stroke="black" d="M351.49,-151.2C347.08,-142.73 341.67,-132.32 336.71,-122.81"/>
<polygon fill="black" stroke="black" points="339.69,-120.95 331.97,-113.69 333.48,-124.18 339.69,-120.95"/>
</g>
<!-- Nodo1436901839 -->
<g id="node19" class="node">
<title>Nodo1436901839</title>
<polygon fill="none" stroke="green" points="379,-75.5 379,-113.5 456,-113.5 456,-75.5 379,-75.5"/>
<text text-anchor="middle" x="392.5" y="-90.8" font-family="Times New Roman,serif" font-size="14.00">7,</text>
<polyline fill="none" stroke="green" points="406,-75.5 406,-113.5 "/>
<text text-anchor="middle" x="417.5" y="-98.3" font-family="Times New Roman,serif" font-size="14.00">e</text>
<text text-anchor="middle" x="417.5" y="-83.3" font-family="Times New Roman,serif" font-size="14.00">7</text>
<polyline fill="none" stroke="green" points="429,-75.5 429,-113.5 "/>
<text text-anchor="middle" x="442.5" y="-90.8" font-family="Times New Roman,serif" font-size="14.00">7,</text>
</g>
<!-- Nodo630074945&#45;&gt;Nodo1436901839 -->
<g id="edge22" class="edge">
<title>Nodo630074945&#45;&gt;Nodo1436901839</title>
<path fill="none" stroke="black" d="M374.01,-151.2C380.9,-142.37 389.43,-131.45 397.1,-121.62"/>
<polygon fill="black" stroke="black" points="399.9,-123.73 403.29,-113.69 394.38,-119.42 399.9,-123.73"/>
</g>
</g>
</svg>
