<?xml version="1.0" encoding="UTF-8" standalone="no"?>
<!DOCTYPE svg PUBLIC "-//W3C//DTD SVG 1.1//EN"
 "http://www.w3.org/Graphics/SVG/1.1/DTD/svg11.dtd">
<!-- Generated by graphviz version 2.46.0 (20210118.1747)
 -->
<!-- Title: html Pages: 1 -->
<svg width="185pt" height="183pt"
 viewBox="0.00 0.00 185.00 183.00" xmlns="http://www.w3.org/2000/svg" xmlns:xlink="http://www.w3.org/1999/xlink">
<g id="graph0" class="graph" transform="scale(1 1) rotate(0) translate(4 179)">
<title>html</title>
<polygon fill="white" stroke="transparent" points="-4,4 -4,-179 181,-179 181,4 -4,4"/>
<!-- abc -->
<g id="node1" class="node">
<title>abc</title>
<polygon fill="none" stroke="black" points="0.5,-149.5 0.5,-174.5 62.5,-174.5 62.5,-149.5 0.5,-149.5"/>
<text text-anchor="start" x="16" y="-158.3" font-family="Times New Roman,serif" font-size="14.00">Valor</text>
<polygon fill="none" stroke="black" points="62.5,-149.5 62.5,-174.5 99.5,-174.5 99.5,-149.5 62.5,-149.5"/>
<text text-anchor="start" x="67.5" y="-158.3" font-family="Times New Roman,serif" font-size="14.00">Hoja</text>
<polygon fill="none" stroke="black" points="99.5,-149.5 99.5,-174.5 177.5,-174.5 177.5,-149.5 99.5,-149.5"/>
<text text-anchor="start" x="110" y="-158.3" font-family="Times New Roman,serif" font-size="14.00">Siguientes</text>
<polygon fill="none" stroke="black" points="0.5,-124.5 0.5,-149.5 62.5,-149.5 62.5,-124.5 0.5,-124.5"/>
<text text-anchor="start" x="12.5" y="-133.3" font-family="Times New Roman,serif" font-size="14.00">USAC</text>
<polygon fill="none" stroke="black" points="62.5,-124.5 62.5,-149.5 99.5,-149.5 99.5,-124.5 62.5,-124.5"/>
<text text-anchor="start" x="77.5" y="-133.3" font-family="Times New Roman,serif" font-size="14.00">1</text>
<polygon fill="none" stroke="black" points="99.5,-124.5 99.5,-149.5 177.5,-149.5 177.5,-124.5 99.5,-124.5"/>
<text text-anchor="start" x="104.5" y="-133.3" font-family="Times New Roman,serif" font-size="14.00">1,2,3,4,5,&#45;1,</text>
<polygon fill="none" stroke="black" points="0.5,-99.5 0.5,-124.5 62.5,-124.5 62.5,-99.5 0.5,-99.5"/>
<text text-anchor="start" x="17.5" y="-108.3" font-family="Times New Roman,serif" font-size="14.00">2022</text>
<polygon fill="none" stroke="black" points="62.5,-99.5 62.5,-124.5 99.5,-124.5 99.5,-99.5 62.5,-99.5"/>
<text text-anchor="start" x="77.5" y="-108.3" font-family="Times New Roman,serif" font-size="14.00">2</text>
<polygon fill="none" stroke="black" points="99.5,-99.5 99.5,-124.5 177.5,-124.5 177.5,-99.5 99.5,-99.5"/>
<text text-anchor="start" x="104.5" y="-108.3" font-family="Times New Roman,serif" font-size="14.00">1,2,3,4,5,&#45;1,</text>
<polygon fill="none" stroke="black" points="0.5,-74.5 0.5,-99.5 62.5,-99.5 62.5,-74.5 0.5,-74.5"/>
<text text-anchor="start" x="10" y="-83.3" font-family="Times New Roman,serif" font-size="14.00">compi1</text>
<polygon fill="none" stroke="black" points="62.5,-74.5 62.5,-99.5 99.5,-99.5 99.5,-74.5 62.5,-74.5"/>
<text text-anchor="start" x="77.5" y="-83.3" font-family="Times New Roman,serif" font-size="14.00">3</text>
<polygon fill="none" stroke="black" points="99.5,-74.5 99.5,-99.5 177.5,-99.5 177.5,-74.5 99.5,-74.5"/>
<text text-anchor="start" x="104.5" y="-83.3" font-family="Times New Roman,serif" font-size="14.00">3,4,1,2,5,&#45;1,</text>
<polygon fill="none" stroke="black" points="0.5,-49.5 0.5,-74.5 62.5,-74.5 62.5,-49.5 0.5,-49.5"/>
<text text-anchor="start" x="5.5" y="-58.3" font-family="Times New Roman,serif" font-size="14.00">ingenieria</text>
<polygon fill="none" stroke="black" points="62.5,-49.5 62.5,-74.5 99.5,-74.5 99.5,-49.5 62.5,-49.5"/>
<text text-anchor="start" x="77.5" y="-58.3" font-family="Times New Roman,serif" font-size="14.00">4</text>
<polygon fill="none" stroke="black" points="99.5,-49.5 99.5,-74.5 177.5,-74.5 177.5,-49.5 99.5,-49.5"/>
<text text-anchor="start" x="104.5" y="-58.3" font-family="Times New Roman,serif" font-size="14.00">3,4,1,2,5,&#45;1,</text>
<polygon fill="none" stroke="black" points="0.5,-24.5 0.5,-49.5 62.5,-49.5 62.5,-24.5 0.5,-24.5"/>
<text text-anchor="start" x="26.5" y="-33.3" font-family="Times New Roman,serif" font-size="14.00">B</text>
<polygon fill="none" stroke="black" points="62.5,-24.5 62.5,-49.5 99.5,-49.5 99.5,-24.5 62.5,-24.5"/>
<text text-anchor="start" x="77.5" y="-33.3" font-family="Times New Roman,serif" font-size="14.00">5</text>
<polygon fill="none" stroke="black" points="99.5,-24.5 99.5,-49.5 177.5,-49.5 177.5,-24.5 99.5,-24.5"/>
<text text-anchor="start" x="125.5" y="-33.3" font-family="Times New Roman,serif" font-size="14.00">5,&#45;1,</text>
<polygon fill="none" stroke="black" points="0.5,0.5 0.5,-24.5 62.5,-24.5 62.5,0.5 0.5,0.5"/>
<text text-anchor="start" x="27.5" y="-8.3" font-family="Times New Roman,serif" font-size="14.00">#</text>
<polygon fill="none" stroke="black" points="62.5,0.5 62.5,-24.5 99.5,-24.5 99.5,0.5 62.5,0.5"/>
<text text-anchor="start" x="75" y="-8.3" font-family="Times New Roman,serif" font-size="14.00">&#45;1</text>
<polygon fill="none" stroke="black" points="99.5,0.5 99.5,-24.5 177.5,-24.5 177.5,0.5 99.5,0.5"/>
</g>
</g>
</svg>
