<?xml version="1.0" encoding="UTF-8" standalone="no"?>
<!DOCTYPE svg PUBLIC "-//W3C//DTD SVG 1.1//EN"
 "http://www.w3.org/Graphics/SVG/1.1/DTD/svg11.dtd">
<!-- Generated by graphviz version 2.46.0 (20210118.1747)
 -->
<!-- Title: html Pages: 1 -->
<svg width="226pt" height="308pt"
 viewBox="0.00 0.00 226.00 308.00" xmlns="http://www.w3.org/2000/svg" xmlns:xlink="http://www.w3.org/1999/xlink">
<g id="graph0" class="graph" transform="scale(1 1) rotate(0) translate(4 304)">
<title>html</title>
<polygon fill="white" stroke="transparent" points="-4,4 -4,-304 222,-304 222,4 -4,4"/>
<!-- abc -->
<g id="node1" class="node">
<title>abc</title>
<polygon fill="none" stroke="black" points="0,-275 0,-300 41,-300 41,-275 0,-275"/>
<text text-anchor="start" x="5" y="-283.8" font-family="Times New Roman,serif" font-size="14.00">Valor</text>
<polygon fill="none" stroke="black" points="41,-275 41,-300 78,-300 78,-275 41,-275"/>
<text text-anchor="start" x="46" y="-283.8" font-family="Times New Roman,serif" font-size="14.00">Hoja</text>
<polygon fill="none" stroke="black" points="78,-275 78,-300 218,-300 218,-275 78,-275"/>
<text text-anchor="start" x="119.5" y="-283.8" font-family="Times New Roman,serif" font-size="14.00">Siguientes</text>
<polygon fill="none" stroke="black" points="0,-250 0,-275 41,-275 41,-250 0,-250"/>
<text text-anchor="start" x="17" y="-258.8" font-family="Times New Roman,serif" font-size="14.00">1</text>
<polygon fill="none" stroke="black" points="41,-250 41,-275 78,-275 78,-250 41,-250"/>
<text text-anchor="start" x="56" y="-258.8" font-family="Times New Roman,serif" font-size="14.00">1</text>
<polygon fill="none" stroke="black" points="78,-250 78,-275 218,-275 218,-250 78,-250"/>
<text text-anchor="start" x="83" y="-258.8" font-family="Times New Roman,serif" font-size="14.00">1,2,3,4,5,6,7,8,9,10,11,</text>
<polygon fill="none" stroke="black" points="0,-225 0,-250 41,-250 41,-225 0,-225"/>
<text text-anchor="start" x="17" y="-233.8" font-family="Times New Roman,serif" font-size="14.00">2</text>
<polygon fill="none" stroke="black" points="41,-225 41,-250 78,-250 78,-225 41,-225"/>
<text text-anchor="start" x="56" y="-233.8" font-family="Times New Roman,serif" font-size="14.00">2</text>
<polygon fill="none" stroke="black" points="78,-225 78,-250 218,-250 218,-225 78,-225"/>
<text text-anchor="start" x="83" y="-233.8" font-family="Times New Roman,serif" font-size="14.00">1,2,3,4,5,6,7,8,9,10,11,</text>
<polygon fill="none" stroke="black" points="0,-200 0,-225 41,-225 41,-200 0,-200"/>
<text text-anchor="start" x="17" y="-208.8" font-family="Times New Roman,serif" font-size="14.00">3</text>
<polygon fill="none" stroke="black" points="41,-200 41,-225 78,-225 78,-200 41,-200"/>
<text text-anchor="start" x="56" y="-208.8" font-family="Times New Roman,serif" font-size="14.00">3</text>
<polygon fill="none" stroke="black" points="78,-200 78,-225 218,-225 218,-200 78,-200"/>
<text text-anchor="start" x="83" y="-208.8" font-family="Times New Roman,serif" font-size="14.00">1,2,3,4,5,6,7,8,9,10,11,</text>
<polygon fill="none" stroke="black" points="0,-175 0,-200 41,-200 41,-175 0,-175"/>
<text text-anchor="start" x="17" y="-183.8" font-family="Times New Roman,serif" font-size="14.00">4</text>
<polygon fill="none" stroke="black" points="41,-175 41,-200 78,-200 78,-175 41,-175"/>
<text text-anchor="start" x="56" y="-183.8" font-family="Times New Roman,serif" font-size="14.00">4</text>
<polygon fill="none" stroke="black" points="78,-175 78,-200 218,-200 218,-175 78,-175"/>
<text text-anchor="start" x="83" y="-183.8" font-family="Times New Roman,serif" font-size="14.00">1,2,3,4,5,6,7,8,9,10,11,</text>
<polygon fill="none" stroke="black" points="0,-150 0,-175 41,-175 41,-150 0,-150"/>
<text text-anchor="start" x="17" y="-158.8" font-family="Times New Roman,serif" font-size="14.00">5</text>
<polygon fill="none" stroke="black" points="41,-150 41,-175 78,-175 78,-150 41,-150"/>
<text text-anchor="start" x="56" y="-158.8" font-family="Times New Roman,serif" font-size="14.00">5</text>
<polygon fill="none" stroke="black" points="78,-150 78,-175 218,-175 218,-150 78,-150"/>
<text text-anchor="start" x="83" y="-158.8" font-family="Times New Roman,serif" font-size="14.00">1,2,3,4,5,6,7,8,9,10,11,</text>
<polygon fill="none" stroke="black" points="0,-125 0,-150 41,-150 41,-125 0,-125"/>
<text text-anchor="start" x="17" y="-133.8" font-family="Times New Roman,serif" font-size="14.00">a</text>
<polygon fill="none" stroke="black" points="41,-125 41,-150 78,-150 78,-125 41,-125"/>
<text text-anchor="start" x="56" y="-133.8" font-family="Times New Roman,serif" font-size="14.00">6</text>
<polygon fill="none" stroke="black" points="78,-125 78,-150 218,-150 218,-125 78,-125"/>
<text text-anchor="start" x="83" y="-133.8" font-family="Times New Roman,serif" font-size="14.00">1,2,3,4,5,6,7,8,9,10,11,</text>
<polygon fill="none" stroke="black" points="0,-100 0,-125 41,-125 41,-100 0,-100"/>
<text text-anchor="start" x="17" y="-108.8" font-family="Times New Roman,serif" font-size="14.00">e</text>
<polygon fill="none" stroke="black" points="41,-100 41,-125 78,-125 78,-100 41,-100"/>
<text text-anchor="start" x="56" y="-108.8" font-family="Times New Roman,serif" font-size="14.00">7</text>
<polygon fill="none" stroke="black" points="78,-100 78,-125 218,-125 218,-100 78,-100"/>
<text text-anchor="start" x="83" y="-108.8" font-family="Times New Roman,serif" font-size="14.00">1,2,3,4,5,6,7,8,9,10,11,</text>
<polygon fill="none" stroke="black" points="0,-75 0,-100 41,-100 41,-75 0,-75"/>
<text text-anchor="start" x="18.5" y="-83.8" font-family="Times New Roman,serif" font-size="14.00">i</text>
<polygon fill="none" stroke="black" points="41,-75 41,-100 78,-100 78,-75 41,-75"/>
<text text-anchor="start" x="56" y="-83.8" font-family="Times New Roman,serif" font-size="14.00">8</text>
<polygon fill="none" stroke="black" points="78,-75 78,-100 218,-100 218,-75 78,-75"/>
<text text-anchor="start" x="83" y="-83.8" font-family="Times New Roman,serif" font-size="14.00">1,2,3,4,5,6,7,8,9,10,11,</text>
<polygon fill="none" stroke="black" points="0,-50 0,-75 41,-75 41,-50 0,-50"/>
<text text-anchor="start" x="16.5" y="-58.8" font-family="Times New Roman,serif" font-size="14.00">o</text>
<polygon fill="none" stroke="black" points="41,-50 41,-75 78,-75 78,-50 41,-50"/>
<text text-anchor="start" x="56" y="-58.8" font-family="Times New Roman,serif" font-size="14.00">9</text>
<polygon fill="none" stroke="black" points="78,-50 78,-75 218,-75 218,-50 78,-50"/>
<text text-anchor="start" x="83" y="-58.8" font-family="Times New Roman,serif" font-size="14.00">1,2,3,4,5,6,7,8,9,10,11,</text>
<polygon fill="none" stroke="black" points="0,-25 0,-50 41,-50 41,-25 0,-25"/>
<text text-anchor="start" x="17" y="-33.8" font-family="Times New Roman,serif" font-size="14.00">u</text>
<polygon fill="none" stroke="black" points="41,-25 41,-50 78,-50 78,-25 41,-25"/>
<text text-anchor="start" x="52.5" y="-33.8" font-family="Times New Roman,serif" font-size="14.00">10</text>
<polygon fill="none" stroke="black" points="78,-25 78,-50 218,-50 218,-25 78,-25"/>
<text text-anchor="start" x="83" y="-33.8" font-family="Times New Roman,serif" font-size="14.00">1,2,3,4,5,6,7,8,9,10,11,</text>
<polygon fill="none" stroke="black" points="0,0 0,-25 41,-25 41,0 0,0"/>
<text text-anchor="start" x="16.5" y="-8.8" font-family="Times New Roman,serif" font-size="14.00">#</text>
<polygon fill="none" stroke="black" points="41,0 41,-25 78,-25 78,0 41,0"/>
<text text-anchor="start" x="52.5" y="-8.8" font-family="Times New Roman,serif" font-size="14.00">11</text>
<polygon fill="none" stroke="black" points="78,0 78,-25 218,-25 218,0 78,0"/>
</g>
</g>
</svg>
