<?xml version="1.0" encoding="UTF-8" standalone="no"?>
<!DOCTYPE svg PUBLIC "-//W3C//DTD SVG 1.1//EN"
 "http://www.w3.org/Graphics/SVG/1.1/DTD/svg11.dtd">
<!-- Generated by graphviz version 2.46.0 (20210118.1747)
 -->
<!-- Title: html Pages: 1 -->
<svg width="223pt" height="308pt"
 viewBox="0.00 0.00 223.00 308.00" xmlns="http://www.w3.org/2000/svg" xmlns:xlink="http://www.w3.org/1999/xlink">
<g id="graph0" class="graph" transform="scale(1 1) rotate(0) translate(4 304)">
<title>html</title>
<polygon fill="white" stroke="transparent" points="-4,4 -4,-304 219,-304 219,4 -4,4"/>
<!-- abc -->
<g id="node1" class="node">
<title>abc</title>
<polygon fill="none" stroke="black" points="0.5,-275 0.5,-300 41.5,-300 41.5,-275 0.5,-275"/>
<text text-anchor="start" x="5.5" y="-283.8" font-family="Times New Roman,serif" font-size="14.00">Valor</text>
<polygon fill="none" stroke="black" points="41.5,-275 41.5,-300 78.5,-300 78.5,-275 41.5,-275"/>
<text text-anchor="start" x="46.5" y="-283.8" font-family="Times New Roman,serif" font-size="14.00">Hoja</text>
<polygon fill="none" stroke="black" points="78.5,-275 78.5,-300 215.5,-300 215.5,-275 78.5,-275"/>
<text text-anchor="start" x="118.5" y="-283.8" font-family="Times New Roman,serif" font-size="14.00">Siguientes</text>
<polygon fill="none" stroke="black" points="0.5,-250 0.5,-275 41.5,-275 41.5,-250 0.5,-250"/>
<text text-anchor="start" x="17.5" y="-258.8" font-family="Times New Roman,serif" font-size="14.00">1</text>
<polygon fill="none" stroke="black" points="41.5,-250 41.5,-275 78.5,-275 78.5,-250 41.5,-250"/>
<text text-anchor="start" x="56.5" y="-258.8" font-family="Times New Roman,serif" font-size="14.00">1</text>
<polygon fill="none" stroke="black" points="78.5,-250 78.5,-275 215.5,-275 215.5,-250 78.5,-250"/>
<text text-anchor="start" x="83.5" y="-258.8" font-family="Times New Roman,serif" font-size="14.00">1,2,3,4,5,6,7,8,9,10,&#45;1,</text>
<polygon fill="none" stroke="black" points="0.5,-225 0.5,-250 41.5,-250 41.5,-225 0.5,-225"/>
<text text-anchor="start" x="17.5" y="-233.8" font-family="Times New Roman,serif" font-size="14.00">2</text>
<polygon fill="none" stroke="black" points="41.5,-225 41.5,-250 78.5,-250 78.5,-225 41.5,-225"/>
<text text-anchor="start" x="56.5" y="-233.8" font-family="Times New Roman,serif" font-size="14.00">2</text>
<polygon fill="none" stroke="black" points="78.5,-225 78.5,-250 215.5,-250 215.5,-225 78.5,-225"/>
<text text-anchor="start" x="83.5" y="-233.8" font-family="Times New Roman,serif" font-size="14.00">1,2,3,4,5,6,7,8,9,10,&#45;1,</text>
<polygon fill="none" stroke="black" points="0.5,-200 0.5,-225 41.5,-225 41.5,-200 0.5,-200"/>
<text text-anchor="start" x="17.5" y="-208.8" font-family="Times New Roman,serif" font-size="14.00">3</text>
<polygon fill="none" stroke="black" points="41.5,-200 41.5,-225 78.5,-225 78.5,-200 41.5,-200"/>
<text text-anchor="start" x="56.5" y="-208.8" font-family="Times New Roman,serif" font-size="14.00">3</text>
<polygon fill="none" stroke="black" points="78.5,-200 78.5,-225 215.5,-225 215.5,-200 78.5,-200"/>
<text text-anchor="start" x="83.5" y="-208.8" font-family="Times New Roman,serif" font-size="14.00">1,2,3,4,5,6,7,8,9,10,&#45;1,</text>
<polygon fill="none" stroke="black" points="0.5,-175 0.5,-200 41.5,-200 41.5,-175 0.5,-175"/>
<text text-anchor="start" x="17.5" y="-183.8" font-family="Times New Roman,serif" font-size="14.00">4</text>
<polygon fill="none" stroke="black" points="41.5,-175 41.5,-200 78.5,-200 78.5,-175 41.5,-175"/>
<text text-anchor="start" x="56.5" y="-183.8" font-family="Times New Roman,serif" font-size="14.00">4</text>
<polygon fill="none" stroke="black" points="78.5,-175 78.5,-200 215.5,-200 215.5,-175 78.5,-175"/>
<text text-anchor="start" x="83.5" y="-183.8" font-family="Times New Roman,serif" font-size="14.00">1,2,3,4,5,6,7,8,9,10,&#45;1,</text>
<polygon fill="none" stroke="black" points="0.5,-150 0.5,-175 41.5,-175 41.5,-150 0.5,-150"/>
<text text-anchor="start" x="17.5" y="-158.8" font-family="Times New Roman,serif" font-size="14.00">5</text>
<polygon fill="none" stroke="black" points="41.5,-150 41.5,-175 78.5,-175 78.5,-150 41.5,-150"/>
<text text-anchor="start" x="56.5" y="-158.8" font-family="Times New Roman,serif" font-size="14.00">5</text>
<polygon fill="none" stroke="black" points="78.5,-150 78.5,-175 215.5,-175 215.5,-150 78.5,-150"/>
<text text-anchor="start" x="83.5" y="-158.8" font-family="Times New Roman,serif" font-size="14.00">1,2,3,4,5,6,7,8,9,10,&#45;1,</text>
<polygon fill="none" stroke="black" points="0.5,-125 0.5,-150 41.5,-150 41.5,-125 0.5,-125"/>
<text text-anchor="start" x="17.5" y="-133.8" font-family="Times New Roman,serif" font-size="14.00">a</text>
<polygon fill="none" stroke="black" points="41.5,-125 41.5,-150 78.5,-150 78.5,-125 41.5,-125"/>
<text text-anchor="start" x="56.5" y="-133.8" font-family="Times New Roman,serif" font-size="14.00">6</text>
<polygon fill="none" stroke="black" points="78.5,-125 78.5,-150 215.5,-150 215.5,-125 78.5,-125"/>
<text text-anchor="start" x="83.5" y="-133.8" font-family="Times New Roman,serif" font-size="14.00">1,2,3,4,5,6,7,8,9,10,&#45;1,</text>
<polygon fill="none" stroke="black" points="0.5,-100 0.5,-125 41.5,-125 41.5,-100 0.5,-100"/>
<text text-anchor="start" x="17.5" y="-108.8" font-family="Times New Roman,serif" font-size="14.00">e</text>
<polygon fill="none" stroke="black" points="41.5,-100 41.5,-125 78.5,-125 78.5,-100 41.5,-100"/>
<text text-anchor="start" x="56.5" y="-108.8" font-family="Times New Roman,serif" font-size="14.00">7</text>
<polygon fill="none" stroke="black" points="78.5,-100 78.5,-125 215.5,-125 215.5,-100 78.5,-100"/>
<text text-anchor="start" x="83.5" y="-108.8" font-family="Times New Roman,serif" font-size="14.00">1,2,3,4,5,6,7,8,9,10,&#45;1,</text>
<polygon fill="none" stroke="black" points="0.5,-75 0.5,-100 41.5,-100 41.5,-75 0.5,-75"/>
<text text-anchor="start" x="19" y="-83.8" font-family="Times New Roman,serif" font-size="14.00">i</text>
<polygon fill="none" stroke="black" points="41.5,-75 41.5,-100 78.5,-100 78.5,-75 41.5,-75"/>
<text text-anchor="start" x="56.5" y="-83.8" font-family="Times New Roman,serif" font-size="14.00">8</text>
<polygon fill="none" stroke="black" points="78.5,-75 78.5,-100 215.5,-100 215.5,-75 78.5,-75"/>
<text text-anchor="start" x="83.5" y="-83.8" font-family="Times New Roman,serif" font-size="14.00">1,2,3,4,5,6,7,8,9,10,&#45;1,</text>
<polygon fill="none" stroke="black" points="0.5,-50 0.5,-75 41.5,-75 41.5,-50 0.5,-50"/>
<text text-anchor="start" x="17" y="-58.8" font-family="Times New Roman,serif" font-size="14.00">o</text>
<polygon fill="none" stroke="black" points="41.5,-50 41.5,-75 78.5,-75 78.5,-50 41.5,-50"/>
<text text-anchor="start" x="56.5" y="-58.8" font-family="Times New Roman,serif" font-size="14.00">9</text>
<polygon fill="none" stroke="black" points="78.5,-50 78.5,-75 215.5,-75 215.5,-50 78.5,-50"/>
<text text-anchor="start" x="83.5" y="-58.8" font-family="Times New Roman,serif" font-size="14.00">1,2,3,4,5,6,7,8,9,10,&#45;1,</text>
<polygon fill="none" stroke="black" points="0.5,-25 0.5,-50 41.5,-50 41.5,-25 0.5,-25"/>
<text text-anchor="start" x="17.5" y="-33.8" font-family="Times New Roman,serif" font-size="14.00">u</text>
<polygon fill="none" stroke="black" points="41.5,-25 41.5,-50 78.5,-50 78.5,-25 41.5,-25"/>
<text text-anchor="start" x="53" y="-33.8" font-family="Times New Roman,serif" font-size="14.00">10</text>
<polygon fill="none" stroke="black" points="78.5,-25 78.5,-50 215.5,-50 215.5,-25 78.5,-25"/>
<text text-anchor="start" x="83.5" y="-33.8" font-family="Times New Roman,serif" font-size="14.00">1,2,3,4,5,6,7,8,9,10,&#45;1,</text>
<polygon fill="none" stroke="black" points="0.5,0 0.5,-25 41.5,-25 41.5,0 0.5,0"/>
<text text-anchor="start" x="17" y="-8.8" font-family="Times New Roman,serif" font-size="14.00">#</text>
<polygon fill="none" stroke="black" points="41.5,0 41.5,-25 78.5,-25 78.5,0 41.5,0"/>
<text text-anchor="start" x="54" y="-8.8" font-family="Times New Roman,serif" font-size="14.00">&#45;1</text>
<polygon fill="none" stroke="black" points="78.5,0 78.5,-25 215.5,-25 215.5,0 78.5,0"/>
</g>
</g>
</svg>
