<?xml version="1.0" encoding="UTF-8" standalone="no"?>
<!DOCTYPE svg PUBLIC "-//W3C//DTD SVG 1.1//EN"
 "http://www.w3.org/Graphics/SVG/1.1/DTD/svg11.dtd">
<!-- Generated by graphviz version 2.46.0 (20210118.1747)
 -->
<!-- Title: html Pages: 1 -->
<svg width="427pt" height="158pt"
 viewBox="0.00 0.00 427.00 158.00" xmlns="http://www.w3.org/2000/svg" xmlns:xlink="http://www.w3.org/1999/xlink">
<g id="graph0" class="graph" transform="scale(1 1) rotate(0) translate(4 154)">
<title>html</title>
<polygon fill="white" stroke="transparent" points="-4,4 -4,-154 423,-154 423,4 -4,4"/>
<!-- abc -->
<g id="node1" class="node">
<title>abc</title>
<polygon fill="skyblue" stroke="transparent" points="100.5,-100 100.5,-150 174.5,-150 174.5,-100 100.5,-100"/>
<polygon fill="none" stroke="black" points="100.5,-100 100.5,-150 174.5,-150 174.5,-100 100.5,-100"/>
<text text-anchor="start" x="105.5" y="-121.3" font-family="Times New Roman,serif" font-size="14.00">ESTADOS</text>
<polygon fill="lightgrey" stroke="transparent" points="174.5,-125 174.5,-150 419.5,-150 419.5,-125 174.5,-125"/>
<polygon fill="none" stroke="black" points="174.5,-125 174.5,-150 419.5,-150 419.5,-125 174.5,-125"/>
<text text-anchor="start" x="292.5" y="-133.8" font-family="Times New Roman,serif" font-size="14.00">Σ</text>
<polygon fill="none" stroke="black" points="174.5,-100 174.5,-125 222.5,-125 222.5,-100 174.5,-100"/>
<text text-anchor="start" x="179.5" y="-108.8" font-family="Times New Roman,serif" font-size="14.00">USAC</text>
<polygon fill="none" stroke="black" points="222.5,-100 222.5,-125 260.5,-125 260.5,-100 222.5,-100"/>
<text text-anchor="start" x="227.5" y="-108.8" font-family="Times New Roman,serif" font-size="14.00">2022</text>
<polygon fill="none" stroke="black" points="260.5,-100 260.5,-125 313.5,-125 313.5,-100 260.5,-100"/>
<text text-anchor="start" x="265.5" y="-108.8" font-family="Times New Roman,serif" font-size="14.00">compi1</text>
<polygon fill="none" stroke="black" points="313.5,-100 313.5,-125 375.5,-125 375.5,-100 313.5,-100"/>
<text text-anchor="start" x="318.5" y="-108.8" font-family="Times New Roman,serif" font-size="14.00">ingenieria</text>
<polygon fill="none" stroke="black" points="375.5,-100 375.5,-125 401.5,-125 401.5,-100 375.5,-100"/>
<text text-anchor="start" x="383.5" y="-108.8" font-family="Times New Roman,serif" font-size="14.00">B</text>
<polygon fill="none" stroke="black" points="401.5,-100 401.5,-125 419.5,-125 419.5,-100 401.5,-100"/>
<text text-anchor="start" x="406.5" y="-108.8" font-family="Times New Roman,serif" font-size="14.00">#</text>
<polygon fill="none" stroke="black" points="100.5,-75 100.5,-100 174.5,-100 174.5,-75 100.5,-75"/>
<text text-anchor="start" x="129.5" y="-83.8" font-family="Times New Roman,serif" font-size="14.00">S0</text>
<polygon fill="none" stroke="black" points="174.5,-75 174.5,-100 222.5,-100 222.5,-75 174.5,-75"/>
<text text-anchor="start" x="190.5" y="-83.8" font-family="Times New Roman,serif" font-size="14.00">S1</text>
<polygon fill="none" stroke="black" points="222.5,-75 222.5,-100 260.5,-100 260.5,-75 222.5,-75"/>
<text text-anchor="start" x="233.5" y="-83.8" font-family="Times New Roman,serif" font-size="14.00">S1</text>
<polygon fill="none" stroke="black" points="260.5,-75 260.5,-100 313.5,-100 313.5,-75 260.5,-75"/>
<text text-anchor="start" x="279" y="-83.8" font-family="Times New Roman,serif" font-size="14.00">S1</text>
<polygon fill="none" stroke="black" points="313.5,-75 313.5,-100 375.5,-100 375.5,-75 313.5,-75"/>
<text text-anchor="start" x="336.5" y="-83.8" font-family="Times New Roman,serif" font-size="14.00">S1</text>
<polygon fill="none" stroke="black" points="375.5,-75 375.5,-100 401.5,-100 401.5,-75 375.5,-75"/>
<text text-anchor="start" x="380.5" y="-83.8" font-family="Times New Roman,serif" font-size="14.00">S2</text>
<polygon fill="none" stroke="black" points="100.5,-50 100.5,-75 174.5,-75 174.5,-50 100.5,-50"/>
<text text-anchor="start" x="129.5" y="-58.8" font-family="Times New Roman,serif" font-size="14.00">S1</text>
<polygon fill="none" stroke="black" points="174.5,-50 174.5,-75 222.5,-75 222.5,-50 174.5,-50"/>
<text text-anchor="start" x="190.5" y="-58.8" font-family="Times New Roman,serif" font-size="14.00">S1</text>
<polygon fill="none" stroke="black" points="222.5,-50 222.5,-75 260.5,-75 260.5,-50 222.5,-50"/>
<text text-anchor="start" x="233.5" y="-58.8" font-family="Times New Roman,serif" font-size="14.00">S1</text>
<polygon fill="none" stroke="black" points="260.5,-50 260.5,-75 313.5,-75 313.5,-50 260.5,-50"/>
<text text-anchor="start" x="279" y="-58.8" font-family="Times New Roman,serif" font-size="14.00">S2</text>
<polygon fill="none" stroke="black" points="0.5,-25 0.5,-50 100.5,-50 100.5,-25 0.5,-25"/>
<text text-anchor="start" x="5.5" y="-33.8" font-family="Times New Roman,serif" font-size="14.00">ACEPTACION</text>
<polygon fill="none" stroke="black" points="100.5,-25 100.5,-50 174.5,-50 174.5,-25 100.5,-25"/>
<text text-anchor="start" x="129.5" y="-33.8" font-family="Times New Roman,serif" font-size="14.00">S2</text>
<polygon fill="none" stroke="black" points="174.5,-25 174.5,-50 222.5,-50 222.5,-25 174.5,-25"/>
<text text-anchor="start" x="190.5" y="-33.8" font-family="Times New Roman,serif" font-size="14.00">S3</text>
<polygon fill="none" stroke="black" points="0.5,0 0.5,-25 100.5,-25 100.5,0 0.5,0"/>
<text text-anchor="start" x="5.5" y="-8.8" font-family="Times New Roman,serif" font-size="14.00">ACEPTACION</text>
<polygon fill="none" stroke="black" points="100.5,0 100.5,-25 174.5,-25 174.5,0 100.5,0"/>
<text text-anchor="start" x="129.5" y="-8.8" font-family="Times New Roman,serif" font-size="14.00">S3</text>
</g>
</g>
</svg>
