<?xml version="1.0" encoding="UTF-8" standalone="no"?>
<!DOCTYPE svg PUBLIC "-//W3C//DTD SVG 1.1//EN"
 "http://www.w3.org/Graphics/SVG/1.1/DTD/svg11.dtd">
<!-- Generated by graphviz version 2.46.0 (20210118.1747)
 -->
<!-- Title: html Pages: 1 -->
<svg width="167pt" height="133pt"
 viewBox="0.00 0.00 167.00 133.00" xmlns="http://www.w3.org/2000/svg" xmlns:xlink="http://www.w3.org/1999/xlink">
<g id="graph0" class="graph" transform="scale(1 1) rotate(0) translate(4 129)">
<title>html</title>
<polygon fill="white" stroke="transparent" points="-4,4 -4,-129 163,-129 163,4 -4,4"/>
<!-- abc -->
<g id="node1" class="node">
<title>abc</title>
<polygon fill="none" stroke="black" points="0.5,-99.5 0.5,-124.5 55.5,-124.5 55.5,-99.5 0.5,-99.5"/>
<text text-anchor="start" x="12.5" y="-108.3" font-family="Times New Roman,serif" font-size="14.00">Valor</text>
<polygon fill="none" stroke="black" points="55.5,-99.5 55.5,-124.5 92.5,-124.5 92.5,-99.5 55.5,-99.5"/>
<text text-anchor="start" x="60.5" y="-108.3" font-family="Times New Roman,serif" font-size="14.00">Hoja</text>
<polygon fill="none" stroke="black" points="92.5,-99.5 92.5,-124.5 159.5,-124.5 159.5,-99.5 92.5,-99.5"/>
<text text-anchor="start" x="97.5" y="-108.3" font-family="Times New Roman,serif" font-size="14.00">Siguientes</text>
<polygon fill="none" stroke="black" points="0.5,-74.5 0.5,-99.5 55.5,-99.5 55.5,-74.5 0.5,-74.5"/>
<text text-anchor="start" x="6.5" y="-83.3" font-family="Times New Roman,serif" font-size="14.00">vocales</text>
<polygon fill="none" stroke="black" points="55.5,-74.5 55.5,-99.5 92.5,-99.5 92.5,-74.5 55.5,-74.5"/>
<text text-anchor="start" x="70.5" y="-83.3" font-family="Times New Roman,serif" font-size="14.00">1</text>
<polygon fill="none" stroke="black" points="92.5,-74.5 92.5,-99.5 159.5,-99.5 159.5,-74.5 92.5,-74.5"/>
<text text-anchor="start" x="102.5" y="-83.3" font-family="Times New Roman,serif" font-size="14.00">1,2,3,&#45;1,</text>
<polygon fill="none" stroke="black" points="0.5,-49.5 0.5,-74.5 55.5,-74.5 55.5,-49.5 0.5,-49.5"/>
<text text-anchor="start" x="5.5" y="-58.3" font-family="Times New Roman,serif" font-size="14.00">especial</text>
<polygon fill="none" stroke="black" points="55.5,-49.5 55.5,-74.5 92.5,-74.5 92.5,-49.5 55.5,-49.5"/>
<text text-anchor="start" x="70.5" y="-58.3" font-family="Times New Roman,serif" font-size="14.00">2</text>
<polygon fill="none" stroke="black" points="92.5,-49.5 92.5,-74.5 159.5,-74.5 159.5,-49.5 92.5,-49.5"/>
<polygon fill="none" stroke="black" points="0.5,-24.5 0.5,-49.5 55.5,-49.5 55.5,-24.5 0.5,-24.5"/>
<text text-anchor="start" x="14" y="-33.3" font-family="Times New Roman,serif" font-size="14.00">\n\&#39;\&quot;</text>
<polygon fill="none" stroke="black" points="55.5,-24.5 55.5,-49.5 92.5,-49.5 92.5,-24.5 55.5,-24.5"/>
<text text-anchor="start" x="70.5" y="-33.3" font-family="Times New Roman,serif" font-size="14.00">3</text>
<polygon fill="none" stroke="black" points="92.5,-24.5 92.5,-49.5 159.5,-49.5 159.5,-24.5 92.5,-24.5"/>
<polygon fill="none" stroke="black" points="0.5,0.5 0.5,-24.5 55.5,-24.5 55.5,0.5 0.5,0.5"/>
<text text-anchor="start" x="24" y="-8.3" font-family="Times New Roman,serif" font-size="14.00">#</text>
<polygon fill="none" stroke="black" points="55.5,0.5 55.5,-24.5 92.5,-24.5 92.5,0.5 55.5,0.5"/>
<text text-anchor="start" x="68" y="-8.3" font-family="Times New Roman,serif" font-size="14.00">&#45;1</text>
<polygon fill="none" stroke="black" points="92.5,0.5 92.5,-24.5 159.5,-24.5 159.5,0.5 92.5,0.5"/>
</g>
</g>
</svg>
