<?xml version="1.0" encoding="UTF-8" standalone="no"?>
<!DOCTYPE svg PUBLIC "-//W3C//DTD SVG 1.1//EN"
 "http://www.w3.org/Graphics/SVG/1.1/DTD/svg11.dtd">
<!-- Generated by graphviz version 2.46.0 (20210118.1747)
 -->
<!-- Title: html Pages: 1 -->
<svg width="346pt" height="183pt"
 viewBox="0.00 0.00 346.00 183.00" xmlns="http://www.w3.org/2000/svg" xmlns:xlink="http://www.w3.org/1999/xlink">
<g id="graph0" class="graph" transform="scale(1 1) rotate(0) translate(4 179)">
<title>html</title>
<polygon fill="white" stroke="transparent" points="-4,4 -4,-179 342,-179 342,4 -4,4"/>
<!-- abc -->
<g id="node1" class="node">
<title>abc</title>
<polygon fill="skyblue" stroke="transparent" points="100,-124.5 100,-174.5 174,-174.5 174,-124.5 100,-124.5"/>
<polygon fill="none" stroke="black" points="100,-124.5 100,-174.5 174,-174.5 174,-124.5 100,-124.5"/>
<text text-anchor="start" x="105" y="-145.8" font-family="Times New Roman,serif" font-size="14.00">ESTADOS</text>
<polygon fill="lightgrey" stroke="transparent" points="174,-149.5 174,-174.5 338,-174.5 338,-149.5 174,-149.5"/>
<polygon fill="none" stroke="black" points="174,-149.5 174,-174.5 338,-174.5 338,-149.5 174,-149.5"/>
<text text-anchor="start" x="251.5" y="-158.3" font-family="Times New Roman,serif" font-size="14.00">Σ</text>
<polygon fill="none" stroke="black" points="174,-124.5 174,-149.5 227,-149.5 227,-124.5 174,-124.5"/>
<text text-anchor="start" x="179" y="-133.3" font-family="Times New Roman,serif" font-size="14.00">vocales</text>
<polygon fill="none" stroke="black" points="227,-124.5 227,-149.5 282,-149.5 282,-124.5 227,-124.5"/>
<text text-anchor="start" x="232" y="-133.3" font-family="Times New Roman,serif" font-size="14.00">especial</text>
<polygon fill="none" stroke="black" points="282,-124.5 282,-149.5 320,-149.5 320,-124.5 282,-124.5"/>
<text text-anchor="start" x="287" y="-133.3" font-family="Times New Roman,serif" font-size="14.00">\n\&#39;\&quot;</text>
<polygon fill="none" stroke="black" points="320,-124.5 320,-149.5 338,-149.5 338,-124.5 320,-124.5"/>
<text text-anchor="start" x="325" y="-133.3" font-family="Times New Roman,serif" font-size="14.00">#</text>
<polygon fill="none" stroke="black" points="100,-99.5 100,-124.5 174,-124.5 174,-99.5 100,-99.5"/>
<text text-anchor="start" x="129" y="-108.3" font-family="Times New Roman,serif" font-size="14.00">S0</text>
<polygon fill="none" stroke="black" points="174,-99.5 174,-124.5 227,-124.5 227,-99.5 174,-99.5"/>
<text text-anchor="start" x="192.5" y="-108.3" font-family="Times New Roman,serif" font-size="14.00">S1</text>
<polygon fill="none" stroke="black" points="100,-74.5 100,-99.5 174,-99.5 174,-74.5 100,-74.5"/>
<text text-anchor="start" x="129" y="-83.3" font-family="Times New Roman,serif" font-size="14.00">S1</text>
<polygon fill="none" stroke="black" points="174,-74.5 174,-99.5 227,-99.5 227,-74.5 174,-74.5"/>
<text text-anchor="start" x="192.5" y="-83.3" font-family="Times New Roman,serif" font-size="14.00">S2</text>
<polygon fill="none" stroke="black" points="227,-74.5 227,-99.5 282,-99.5 282,-74.5 227,-74.5"/>
<text text-anchor="start" x="246.5" y="-83.3" font-family="Times New Roman,serif" font-size="14.00">S3</text>
<polygon fill="none" stroke="black" points="100,-49.5 100,-74.5 174,-74.5 174,-49.5 100,-49.5"/>
<text text-anchor="start" x="129" y="-58.3" font-family="Times New Roman,serif" font-size="14.00">S2</text>
<polygon fill="none" stroke="black" points="174,-49.5 174,-74.5 227,-74.5 227,-49.5 174,-49.5"/>
<text text-anchor="start" x="192.5" y="-58.3" font-family="Times New Roman,serif" font-size="14.00">S3</text>
<polygon fill="none" stroke="black" points="0,-24.5 0,-49.5 100,-49.5 100,-24.5 0,-24.5"/>
<text text-anchor="start" x="5" y="-33.3" font-family="Times New Roman,serif" font-size="14.00">ACEPTACION</text>
<polygon fill="none" stroke="black" points="100,-24.5 100,-49.5 174,-49.5 174,-24.5 100,-24.5"/>
<text text-anchor="start" x="129" y="-33.3" font-family="Times New Roman,serif" font-size="14.00">S3</text>
<polygon fill="none" stroke="black" points="174,-24.5 174,-49.5 227,-49.5 227,-24.5 174,-24.5"/>
<text text-anchor="start" x="192.5" y="-33.3" font-family="Times New Roman,serif" font-size="14.00">S1</text>
<polygon fill="none" stroke="black" points="227,-24.5 227,-49.5 282,-49.5 282,-24.5 227,-24.5"/>
<text text-anchor="start" x="246.5" y="-33.3" font-family="Times New Roman,serif" font-size="14.00">S4</text>
<polygon fill="none" stroke="black" points="0,0.5 0,-24.5 100,-24.5 100,0.5 0,0.5"/>
<text text-anchor="start" x="5" y="-8.3" font-family="Times New Roman,serif" font-size="14.00">ACEPTACION</text>
<polygon fill="none" stroke="black" points="100,0.5 100,-24.5 174,-24.5 174,0.5 100,0.5"/>
<text text-anchor="start" x="129" y="-8.3" font-family="Times New Roman,serif" font-size="14.00">S4</text>
</g>
</g>
</svg>
