<?xml version="1.0" encoding="UTF-8" standalone="no"?>
<!DOCTYPE svg PUBLIC "-//W3C//DTD SVG 1.1//EN"
 "http://www.w3.org/Graphics/SVG/1.1/DTD/svg11.dtd">
<!-- Generated by graphviz version 2.46.0 (20210118.1747)
 -->
<!-- Title: structs Pages: 1 -->
<svg width="321pt" height="434pt"
 viewBox="0.00 0.00 320.50 434.00" xmlns="http://www.w3.org/2000/svg" xmlns:xlink="http://www.w3.org/1999/xlink">
<g id="graph0" class="graph" transform="scale(1 1) rotate(0) translate(4 430)">
<title>structs</title>
<polygon fill="white" stroke="transparent" points="-4,4 -4,-430 316.5,-430 316.5,4 -4,4"/>
<!-- Nodo874217650 -->
<g id="node1" class="node">
<title>Nodo874217650</title>
<polygon fill="none" stroke="green" points="175,-389.5 175,-425.5 254,-425.5 254,-389.5 175,-389.5"/>
<text text-anchor="middle" x="188.5" y="-403.8" font-family="Times New Roman,serif" font-size="14.00">1,</text>
<polyline fill="none" stroke="green" points="202,-389.5 202,-425.5 "/>
<text text-anchor="middle" x="212" y="-403.8" font-family="Times New Roman,serif" font-size="14.00">.</text>
<polyline fill="none" stroke="green" points="222,-389.5 222,-425.5 "/>
<text text-anchor="middle" x="238" y="-403.8" font-family="Times New Roman,serif" font-size="14.00">&#45;1,</text>
</g>
<!-- Nodo1436664465 -->
<g id="node2" class="node">
<title>Nodo1436664465</title>
<polygon fill="none" stroke="green" points="123,-315.5 123,-351.5 202,-351.5 202,-315.5 123,-315.5"/>
<text text-anchor="middle" x="136.5" y="-329.8" font-family="Times New Roman,serif" font-size="14.00">1,</text>
<polyline fill="none" stroke="green" points="150,-315.5 150,-351.5 "/>
<text text-anchor="middle" x="162.5" y="-329.8" font-family="Times New Roman,serif" font-size="14.00">+</text>
<polyline fill="none" stroke="green" points="175,-315.5 175,-351.5 "/>
<text text-anchor="middle" x="188.5" y="-329.8" font-family="Times New Roman,serif" font-size="14.00">3,</text>
</g>
<!-- Nodo874217650&#45;&gt;Nodo1436664465 -->
<g id="edge1" class="edge">
<title>Nodo874217650&#45;&gt;Nodo1436664465</title>
<path fill="none" stroke="black" d="M202.18,-389.44C195.86,-380.69 188.03,-369.85 181.01,-360.13"/>
<polygon fill="black" stroke="black" points="183.79,-358 175.1,-351.94 178.11,-362.1 183.79,-358"/>
</g>
<!-- Nodo1210898719 -->
<g id="node9" class="node">
<title>Nodo1210898719</title>
<polygon fill="none" stroke="green" points="220.5,-314.5 220.5,-352.5 312.5,-352.5 312.5,-314.5 220.5,-314.5"/>
<text text-anchor="middle" x="236.5" y="-329.8" font-family="Times New Roman,serif" font-size="14.00">&#45;1,</text>
<polyline fill="none" stroke="green" points="252.5,-314.5 252.5,-352.5 "/>
<text text-anchor="middle" x="266.5" y="-337.3" font-family="Times New Roman,serif" font-size="14.00">#</text>
<text text-anchor="middle" x="266.5" y="-322.3" font-family="Times New Roman,serif" font-size="14.00">&#45;1</text>
<polyline fill="none" stroke="green" points="280.5,-314.5 280.5,-352.5 "/>
<text text-anchor="middle" x="296.5" y="-329.8" font-family="Times New Roman,serif" font-size="14.00">&#45;1,</text>
</g>
<!-- Nodo874217650&#45;&gt;Nodo1210898719 -->
<g id="edge2" class="edge">
<title>Nodo874217650&#45;&gt;Nodo1210898719</title>
<path fill="none" stroke="black" d="M226.82,-389.44C232.94,-380.97 240.47,-370.54 247.32,-361.06"/>
<polygon fill="black" stroke="black" points="250.34,-362.86 253.36,-352.7 244.66,-358.76 250.34,-362.86"/>
</g>
<!-- Nodo558187323 -->
<g id="node3" class="node">
<title>Nodo558187323</title>
<polygon fill="none" stroke="green" points="125.5,-241.5 125.5,-277.5 199.5,-277.5 199.5,-241.5 125.5,-241.5"/>
<text text-anchor="middle" x="139" y="-255.8" font-family="Times New Roman,serif" font-size="14.00">1,</text>
<polyline fill="none" stroke="green" points="152.5,-241.5 152.5,-277.5 "/>
<text text-anchor="middle" x="162.5" y="-255.8" font-family="Times New Roman,serif" font-size="14.00">.</text>
<polyline fill="none" stroke="green" points="172.5,-241.5 172.5,-277.5 "/>
<text text-anchor="middle" x="186" y="-255.8" font-family="Times New Roman,serif" font-size="14.00">3,</text>
</g>
<!-- Nodo1436664465&#45;&gt;Nodo558187323 -->
<g id="edge3" class="edge">
<title>Nodo1436664465&#45;&gt;Nodo558187323</title>
<path fill="none" stroke="black" d="M162.5,-315.44C162.5,-307.31 162.5,-297.38 162.5,-288.2"/>
<polygon fill="black" stroke="black" points="166,-287.94 162.5,-277.94 159,-287.94 166,-287.94"/>
</g>
<!-- Nodo680576081 -->
<g id="node4" class="node">
<title>Nodo680576081</title>
<polygon fill="none" stroke="green" points="70,-159.5 70,-195.5 155,-195.5 155,-159.5 70,-159.5"/>
<text text-anchor="middle" x="83.5" y="-173.8" font-family="Times New Roman,serif" font-size="14.00">1,</text>
<polyline fill="none" stroke="green" points="97,-159.5 97,-195.5 "/>
<text text-anchor="middle" x="107" y="-173.8" font-family="Times New Roman,serif" font-size="14.00">.</text>
<polyline fill="none" stroke="green" points="117,-159.5 117,-195.5 "/>
<text text-anchor="middle" x="136" y="-173.8" font-family="Times New Roman,serif" font-size="14.00">1,2,</text>
</g>
<!-- Nodo558187323&#45;&gt;Nodo680576081 -->
<g id="edge4" class="edge">
<title>Nodo558187323&#45;&gt;Nodo680576081</title>
<path fill="none" stroke="black" d="M151.65,-241.14C144.92,-230.37 136.15,-216.35 128.62,-204.29"/>
<polygon fill="black" stroke="black" points="131.42,-202.18 123.16,-195.55 125.49,-205.89 131.42,-202.18"/>
</g>
<!-- Nodo1052967153 -->
<g id="node8" class="node">
<title>Nodo1052967153</title>
<polygon fill="none" stroke="green" points="173.5,-150.5 173.5,-204.5 253.5,-204.5 253.5,-150.5 173.5,-150.5"/>
<text text-anchor="middle" x="187" y="-173.8" font-family="Times New Roman,serif" font-size="14.00">3,</text>
<polyline fill="none" stroke="green" points="200.5,-150.5 200.5,-204.5 "/>
<text text-anchor="middle" x="213.5" y="-173.3" font-family="Times New Roman,serif" font-size="14.00">&#39;&quot;</text>
<text text-anchor="middle" x="213.5" y="-158.3" font-family="Times New Roman,serif" font-size="14.00">3</text>
<polyline fill="none" stroke="green" points="226.5,-150.5 226.5,-204.5 "/>
<text text-anchor="middle" x="240" y="-173.8" font-family="Times New Roman,serif" font-size="14.00">3,</text>
</g>
<!-- Nodo558187323&#45;&gt;Nodo1052967153 -->
<g id="edge5" class="edge">
<title>Nodo558187323&#45;&gt;Nodo1052967153</title>
<path fill="none" stroke="black" d="M173.57,-241.14C178.77,-232.98 185.17,-222.94 191.31,-213.31"/>
<polygon fill="black" stroke="black" points="194.41,-214.96 196.83,-204.65 188.5,-211.2 194.41,-214.96"/>
</g>
<!-- Nodo1088872417 -->
<g id="node5" class="node">
<title>Nodo1088872417</title>
<polygon fill="none" stroke="green" points="0,-75.5 0,-113.5 113,-113.5 113,-75.5 0,-75.5"/>
<text text-anchor="middle" x="13.5" y="-90.8" font-family="Times New Roman,serif" font-size="14.00">1,</text>
<polyline fill="none" stroke="green" points="27,-75.5 27,-113.5 "/>
<text text-anchor="middle" x="56.5" y="-98.3" font-family="Times New Roman,serif" font-size="14.00">vocales</text>
<text text-anchor="middle" x="56.5" y="-83.3" font-family="Times New Roman,serif" font-size="14.00">1</text>
<polyline fill="none" stroke="green" points="86,-75.5 86,-113.5 "/>
<text text-anchor="middle" x="99.5" y="-90.8" font-family="Times New Roman,serif" font-size="14.00">1,</text>
</g>
<!-- Nodo680576081&#45;&gt;Nodo1088872417 -->
<g id="edge6" class="edge">
<title>Nodo680576081&#45;&gt;Nodo1088872417</title>
<path fill="none" stroke="black" d="M100.62,-159.32C93.18,-148.56 83.44,-134.46 75,-122.26"/>
<polygon fill="black" stroke="black" points="77.7,-120.01 69.14,-113.78 71.95,-123.99 77.7,-120.01"/>
</g>
<!-- Nodo453523494 -->
<g id="node6" class="node">
<title>Nodo453523494</title>
<polygon fill="none" stroke="red" points="131,-76.5 131,-112.5 208,-112.5 208,-76.5 131,-76.5"/>
<text text-anchor="middle" x="144.5" y="-90.8" font-family="Times New Roman,serif" font-size="14.00">2,</text>
<polyline fill="none" stroke="red" points="158,-76.5 158,-112.5 "/>
<text text-anchor="middle" x="169.5" y="-90.8" font-family="Times New Roman,serif" font-size="14.00">?</text>
<polyline fill="none" stroke="red" points="181,-76.5 181,-112.5 "/>
<text text-anchor="middle" x="194.5" y="-90.8" font-family="Times New Roman,serif" font-size="14.00">2,</text>
</g>
<!-- Nodo680576081&#45;&gt;Nodo453523494 -->
<g id="edge7" class="edge">
<title>Nodo680576081&#45;&gt;Nodo453523494</title>
<path fill="none" stroke="black" d="M124.59,-159.32C132.45,-148.15 142.83,-133.4 151.64,-120.88"/>
<polygon fill="black" stroke="black" points="154.54,-122.85 157.43,-112.65 148.81,-118.82 154.54,-122.85"/>
</g>
<!-- Nodo274722023 -->
<g id="node7" class="node">
<title>Nodo274722023</title>
<polygon fill="none" stroke="green" points="112,-0.5 112,-38.5 227,-38.5 227,-0.5 112,-0.5"/>
<text text-anchor="middle" x="125.5" y="-15.8" font-family="Times New Roman,serif" font-size="14.00">2,</text>
<polyline fill="none" stroke="green" points="139,-0.5 139,-38.5 "/>
<text text-anchor="middle" x="169.5" y="-23.3" font-family="Times New Roman,serif" font-size="14.00">especial</text>
<text text-anchor="middle" x="169.5" y="-8.3" font-family="Times New Roman,serif" font-size="14.00">2</text>
<polyline fill="none" stroke="green" points="200,-0.5 200,-38.5 "/>
<text text-anchor="middle" x="213.5" y="-15.8" font-family="Times New Roman,serif" font-size="14.00">2,</text>
</g>
<!-- Nodo453523494&#45;&gt;Nodo274722023 -->
<g id="edge8" class="edge">
<title>Nodo453523494&#45;&gt;Nodo274722023</title>
<path fill="none" stroke="black" d="M169.5,-76.2C169.5,-67.99 169.5,-57.97 169.5,-48.7"/>
<polygon fill="black" stroke="black" points="173,-48.69 169.5,-38.69 166,-48.69 173,-48.69"/>
</g>
</g>
</svg>
