<?xml version="1.0" encoding="UTF-8" standalone="no"?>
<!DOCTYPE svg PUBLIC "-//W3C//DTD SVG 1.1//EN"
 "http://www.w3.org/Graphics/SVG/1.1/DTD/svg11.dtd">
<!-- Generated by graphviz version 2.46.0 (20210118.1747)
 -->
<!-- Title: G Pages: 1 -->
<svg width="218pt" height="407pt"
 viewBox="0.00 0.00 218.00 407.00" xmlns="http://www.w3.org/2000/svg" xmlns:xlink="http://www.w3.org/1999/xlink">
<g id="graph0" class="graph" transform="scale(1 1) rotate(0) translate(4 403)">
<title>G</title>
<polygon fill="white" stroke="transparent" points="-4,4 -4,-403 214,-403 214,4 -4,4"/>
<!-- Nodo1256440269 -->
<g id="node1" class="node">
<title>Nodo1256440269</title>
<polygon fill="none" stroke="black" points="174,-399 120,-399 120,-363 174,-363 174,-399"/>
<text text-anchor="middle" x="147" y="-377.3" font-family="Times New Roman,serif" font-size="14.00">.</text>
</g>
<!-- Nodo704024720 -->
<g id="node2" class="node">
<title>Nodo704024720</title>
<polygon fill="none" stroke="black" points="138,-327 84,-327 84,-291 138,-291 138,-327"/>
<text text-anchor="middle" x="111" y="-305.3" font-family="Times New Roman,serif" font-size="14.00">+</text>
</g>
<!-- Nodo1256440269&#45;&gt;Nodo704024720 -->
<g id="edge1" class="edge">
<title>Nodo1256440269&#45;&gt;Nodo704024720</title>
<path fill="none" stroke="black" d="M138.1,-362.7C134,-354.73 129.05,-345.1 124.51,-336.26"/>
<polygon fill="black" stroke="black" points="127.48,-334.4 119.8,-327.1 121.26,-337.6 127.48,-334.4"/>
</g>
<!-- Nodo1452012306 -->
<g id="node3" class="node">
<title>Nodo1452012306</title>
<polygon fill="none" stroke="black" points="210,-327 156,-327 156,-291 210,-291 210,-327"/>
<text text-anchor="middle" x="183" y="-305.3" font-family="Times New Roman,serif" font-size="14.00">$</text>
</g>
<!-- Nodo1256440269&#45;&gt;Nodo1452012306 -->
<g id="edge2" class="edge">
<title>Nodo1256440269&#45;&gt;Nodo1452012306</title>
<path fill="none" stroke="black" d="M155.9,-362.7C160,-354.73 164.95,-345.1 169.49,-336.26"/>
<polygon fill="black" stroke="black" points="172.74,-337.6 174.2,-327.1 166.52,-334.4 172.74,-337.6"/>
</g>
<!-- Nodo211968962 -->
<g id="node4" class="node">
<title>Nodo211968962</title>
<polygon fill="none" stroke="black" points="138,-255 84,-255 84,-219 138,-219 138,-255"/>
<text text-anchor="middle" x="111" y="-233.3" font-family="Times New Roman,serif" font-size="14.00">.</text>
</g>
<!-- Nodo704024720&#45;&gt;Nodo211968962 -->
<g id="edge3" class="edge">
<title>Nodo704024720&#45;&gt;Nodo211968962</title>
<path fill="none" stroke="black" d="M111,-290.7C111,-282.98 111,-273.71 111,-265.11"/>
<polygon fill="black" stroke="black" points="114.5,-265.1 111,-255.1 107.5,-265.1 114.5,-265.1"/>
</g>
<!-- Nodo1486566962 -->
<g id="node5" class="node">
<title>Nodo1486566962</title>
<polygon fill="none" stroke="black" points="102,-181.5 48,-181.5 48,-145.5 102,-145.5 102,-181.5"/>
<text text-anchor="middle" x="75" y="-159.8" font-family="Times New Roman,serif" font-size="14.00">.</text>
</g>
<!-- Nodo211968962&#45;&gt;Nodo1486566962 -->
<g id="edge4" class="edge">
<title>Nodo211968962&#45;&gt;Nodo1486566962</title>
<path fill="none" stroke="black" d="M102.29,-218.69C98.04,-210.26 92.85,-199.94 88.13,-190.58"/>
<polygon fill="black" stroke="black" points="91.26,-189.01 83.63,-181.65 85.01,-192.15 91.26,-189.01"/>
</g>
<!-- Nodo1173643169 -->
<g id="node6" class="node">
<title>Nodo1173643169</title>
<polygon fill="none" stroke="black" points="174,-183 120,-183 120,-144 174,-144 174,-183"/>
<text text-anchor="middle" x="147" y="-151.8" font-family="Times New Roman,serif" font-size="14.00">&#39;&quot;</text>
</g>
<!-- Nodo211968962&#45;&gt;Nodo1173643169 -->
<g id="edge5" class="edge">
<title>Nodo211968962&#45;&gt;Nodo1173643169</title>
<path fill="none" stroke="black" d="M119.71,-218.69C123.73,-210.72 128.59,-201.06 133.1,-192.11"/>
<polygon fill="black" stroke="black" points="136.24,-193.66 137.61,-183.15 129.99,-190.51 136.24,-193.66"/>
</g>
<!-- Nodo1282287470 -->
<g id="node7" class="node">
<title>Nodo1282287470</title>
<polygon fill="none" stroke="black" points="70,-108 0,-108 0,-72 70,-72 70,-108"/>
<text text-anchor="middle" x="35" y="-86.3" font-family="Times New Roman,serif" font-size="14.00">ID CONJ</text>
</g>
<!-- Nodo1486566962&#45;&gt;Nodo1282287470 -->
<g id="edge6" class="edge">
<title>Nodo1486566962&#45;&gt;Nodo1282287470</title>
<path fill="none" stroke="black" d="M65.32,-145.19C60.6,-136.76 54.83,-126.44 49.59,-117.08"/>
<polygon fill="black" stroke="black" points="52.53,-115.17 44.59,-108.15 46.42,-118.58 52.53,-115.17"/>
</g>
<!-- Nodo1397616978 -->
<g id="node8" class="node">
<title>Nodo1397616978</title>
<polygon fill="none" stroke="black" points="142,-108 88,-108 88,-72 142,-72 142,-108"/>
<text text-anchor="middle" x="115" y="-86.3" font-family="Times New Roman,serif" font-size="14.00">?</text>
</g>
<!-- Nodo1486566962&#45;&gt;Nodo1397616978 -->
<g id="edge7" class="edge">
<title>Nodo1486566962&#45;&gt;Nodo1397616978</title>
<path fill="none" stroke="black" d="M84.68,-145.19C89.4,-136.76 95.17,-126.44 100.41,-117.08"/>
<polygon fill="black" stroke="black" points="103.58,-118.58 105.41,-108.15 97.47,-115.17 103.58,-118.58"/>
</g>
<!-- Nodo1390835631 -->
<g id="node9" class="node">
<title>Nodo1390835631</title>
<polygon fill="none" stroke="black" points="150,-36 80,-36 80,0 150,0 150,-36"/>
<text text-anchor="middle" x="115" y="-14.3" font-family="Times New Roman,serif" font-size="14.00">ID CONJ</text>
</g>
<!-- Nodo1397616978&#45;&gt;Nodo1390835631 -->
<g id="edge8" class="edge">
<title>Nodo1397616978&#45;&gt;Nodo1390835631</title>
<path fill="none" stroke="black" d="M115,-71.7C115,-63.98 115,-54.71 115,-46.11"/>
<polygon fill="black" stroke="black" points="118.5,-46.1 115,-36.1 111.5,-46.1 118.5,-46.1"/>
</g>
</g>
</svg>
