<?xml version="1.0" encoding="UTF-8" standalone="no"?>
<!DOCTYPE svg PUBLIC "-//W3C//DTD SVG 1.1//EN"
 "http://www.w3.org/Graphics/SVG/1.1/DTD/svg11.dtd">
<!-- Generated by graphviz version 2.46.0 (20210118.1747)
 -->
<!-- Title: structs Pages: 1 -->
<svg width="350pt" height="418pt"
 viewBox="0.00 0.00 350.00 418.00" xmlns="http://www.w3.org/2000/svg" xmlns:xlink="http://www.w3.org/1999/xlink">
<g id="graph0" class="graph" transform="scale(1 1) rotate(0) translate(4 414)">
<title>structs</title>
<polygon fill="white" stroke="transparent" points="-4,4 -4,-414 346,-414 346,4 -4,4"/>
<!-- Nodo380242442 -->
<g id="node1" class="node">
<title>Nodo380242442</title>
<polygon fill="none" stroke="green" points="133,-373.5 133,-409.5 207,-409.5 207,-373.5 133,-373.5"/>
<text text-anchor="middle" x="146.5" y="-387.8" font-family="Times New Roman,serif" font-size="14.00">1,</text>
<polyline fill="none" stroke="green" points="160,-373.5 160,-409.5 "/>
<text text-anchor="middle" x="170" y="-387.8" font-family="Times New Roman,serif" font-size="14.00">.</text>
<polyline fill="none" stroke="green" points="180,-373.5 180,-409.5 "/>
<text text-anchor="middle" x="193.5" y="-387.8" font-family="Times New Roman,serif" font-size="14.00">5,</text>
</g>
<!-- Nodo125881207 -->
<g id="node2" class="node">
<title>Nodo125881207</title>
<polygon fill="none" stroke="green" points="62,-299.5 62,-335.5 168,-335.5 168,-299.5 62,-299.5"/>
<text text-anchor="middle" x="75.5" y="-313.8" font-family="Times New Roman,serif" font-size="14.00">1,</text>
<polyline fill="none" stroke="green" points="89,-299.5 89,-335.5 "/>
<text text-anchor="middle" x="99" y="-313.8" font-family="Times New Roman,serif" font-size="14.00">.</text>
<polyline fill="none" stroke="green" points="109,-299.5 109,-335.5 "/>
<text text-anchor="middle" x="138.5" y="-313.8" font-family="Times New Roman,serif" font-size="14.00">1,2,3,4,</text>
</g>
<!-- Nodo380242442&#45;&gt;Nodo125881207 -->
<g id="edge1" class="edge">
<title>Nodo380242442&#45;&gt;Nodo125881207</title>
<path fill="none" stroke="black" d="M156.97,-373.44C150.28,-364.69 142.01,-353.85 134.58,-344.13"/>
<polygon fill="black" stroke="black" points="137.17,-341.76 128.32,-335.94 131.61,-346.01 137.17,-341.76"/>
</g>
<!-- Nodo351028485 -->
<g id="node10" class="node">
<title>Nodo351028485</title>
<polygon fill="none" stroke="green" points="186,-298.5 186,-336.5 264,-336.5 264,-298.5 186,-298.5"/>
<text text-anchor="middle" x="199.5" y="-313.8" font-family="Times New Roman,serif" font-size="14.00">5,</text>
<polyline fill="none" stroke="green" points="213,-298.5 213,-336.5 "/>
<text text-anchor="middle" x="225" y="-321.3" font-family="Times New Roman,serif" font-size="14.00">#</text>
<text text-anchor="middle" x="225" y="-306.3" font-family="Times New Roman,serif" font-size="14.00">5</text>
<polyline fill="none" stroke="green" points="237,-298.5 237,-336.5 "/>
<text text-anchor="middle" x="250.5" y="-313.8" font-family="Times New Roman,serif" font-size="14.00">5,</text>
</g>
<!-- Nodo380242442&#45;&gt;Nodo351028485 -->
<g id="edge2" class="edge">
<title>Nodo380242442&#45;&gt;Nodo351028485</title>
<path fill="none" stroke="black" d="M183.03,-373.44C189.57,-364.88 197.63,-354.33 204.93,-344.77"/>
<polygon fill="black" stroke="black" points="207.81,-346.77 211.1,-336.7 202.25,-342.52 207.81,-346.77"/>
</g>
<!-- Nodo1763344271 -->
<g id="node3" class="node">
<title>Nodo1763344271</title>
<polygon fill="none" stroke="green" points="0,-223.5 0,-261.5 102,-261.5 102,-223.5 0,-223.5"/>
<text text-anchor="middle" x="13.5" y="-238.8" font-family="Times New Roman,serif" font-size="14.00">1,</text>
<polyline fill="none" stroke="green" points="27,-223.5 27,-261.5 "/>
<text text-anchor="middle" x="51" y="-246.3" font-family="Times New Roman,serif" font-size="14.00">digito</text>
<text text-anchor="middle" x="51" y="-231.3" font-family="Times New Roman,serif" font-size="14.00">1</text>
<polyline fill="none" stroke="green" points="75,-223.5 75,-261.5 "/>
<text text-anchor="middle" x="88.5" y="-238.8" font-family="Times New Roman,serif" font-size="14.00">1,</text>
</g>
<!-- Nodo125881207&#45;&gt;Nodo1763344271 -->
<g id="edge3" class="edge">
<title>Nodo125881207&#45;&gt;Nodo1763344271</title>
<path fill="none" stroke="black" d="M99.83,-299.2C92.02,-290.28 82.33,-279.23 73.64,-269.33"/>
<polygon fill="black" stroke="black" points="76.18,-266.91 66.95,-261.69 70.91,-271.52 76.18,-266.91"/>
</g>
<!-- Nodo1353170030 -->
<g id="node4" class="node">
<title>Nodo1353170030</title>
<polygon fill="none" stroke="red" points="120.5,-224.5 120.5,-260.5 239.5,-260.5 239.5,-224.5 120.5,-224.5"/>
<text text-anchor="middle" x="144.5" y="-238.8" font-family="Times New Roman,serif" font-size="14.00">2,3,4,</text>
<polyline fill="none" stroke="red" points="168.5,-224.5 168.5,-260.5 "/>
<text text-anchor="middle" x="180" y="-238.8" font-family="Times New Roman,serif" font-size="14.00">*</text>
<polyline fill="none" stroke="red" points="191.5,-224.5 191.5,-260.5 "/>
<text text-anchor="middle" x="215.5" y="-238.8" font-family="Times New Roman,serif" font-size="14.00">2,3,4,</text>
</g>
<!-- Nodo125881207&#45;&gt;Nodo1353170030 -->
<g id="edge4" class="edge">
<title>Nodo125881207&#45;&gt;Nodo1353170030</title>
<path fill="none" stroke="black" d="M130.4,-299.2C138.58,-290.02 148.77,-278.57 157.79,-268.44"/>
<polygon fill="black" stroke="black" points="160.67,-270.47 164.71,-260.68 155.44,-265.82 160.67,-270.47"/>
</g>
<!-- Nodo370869802 -->
<g id="node5" class="node">
<title>Nodo370869802</title>
<polygon fill="none" stroke="green" points="122.5,-150.5 122.5,-186.5 237.5,-186.5 237.5,-150.5 122.5,-150.5"/>
<text text-anchor="middle" x="146.5" y="-164.8" font-family="Times New Roman,serif" font-size="14.00">2,3,4,</text>
<polyline fill="none" stroke="green" points="170.5,-150.5 170.5,-186.5 "/>
<text text-anchor="middle" x="180" y="-164.8" font-family="Times New Roman,serif" font-size="14.00">|</text>
<polyline fill="none" stroke="green" points="189.5,-150.5 189.5,-186.5 "/>
<text text-anchor="middle" x="213.5" y="-164.8" font-family="Times New Roman,serif" font-size="14.00">2,3,4,</text>
</g>
<!-- Nodo1353170030&#45;&gt;Nodo370869802 -->
<g id="edge5" class="edge">
<title>Nodo1353170030&#45;&gt;Nodo370869802</title>
<path fill="none" stroke="black" d="M180,-224.44C180,-216.31 180,-206.38 180,-197.2"/>
<polygon fill="black" stroke="black" points="183.5,-196.94 180,-186.94 176.5,-196.94 183.5,-196.94"/>
</g>
<!-- Nodo398572781 -->
<g id="node6" class="node">
<title>Nodo398572781</title>
<polygon fill="none" stroke="green" points="89,-75.5 89,-113.5 167,-113.5 167,-75.5 89,-75.5"/>
<text text-anchor="middle" x="102.5" y="-90.8" font-family="Times New Roman,serif" font-size="14.00">2,</text>
<polyline fill="none" stroke="green" points="116,-75.5 116,-113.5 "/>
<text text-anchor="middle" x="128" y="-98.3" font-family="Times New Roman,serif" font-size="14.00">_</text>
<text text-anchor="middle" x="128" y="-83.3" font-family="Times New Roman,serif" font-size="14.00">2</text>
<polyline fill="none" stroke="green" points="140,-75.5 140,-113.5 "/>
<text text-anchor="middle" x="153.5" y="-90.8" font-family="Times New Roman,serif" font-size="14.00">2,</text>
</g>
<!-- Nodo370869802&#45;&gt;Nodo398572781 -->
<g id="edge6" class="edge">
<title>Nodo370869802&#45;&gt;Nodo398572781</title>
<path fill="none" stroke="black" d="M167.68,-150.44C161.56,-141.97 154.03,-131.54 147.18,-122.06"/>
<polygon fill="black" stroke="black" points="149.84,-119.76 141.14,-113.7 144.16,-123.86 149.84,-119.76"/>
</g>
<!-- Nodo765284253 -->
<g id="node7" class="node">
<title>Nodo765284253</title>
<polygon fill="none" stroke="green" points="185.5,-76.5 185.5,-112.5 280.5,-112.5 280.5,-76.5 185.5,-76.5"/>
<text text-anchor="middle" x="204.5" y="-90.8" font-family="Times New Roman,serif" font-size="14.00">3,4,</text>
<polyline fill="none" stroke="green" points="223.5,-76.5 223.5,-112.5 "/>
<text text-anchor="middle" x="233" y="-90.8" font-family="Times New Roman,serif" font-size="14.00">|</text>
<polyline fill="none" stroke="green" points="242.5,-76.5 242.5,-112.5 "/>
<text text-anchor="middle" x="261.5" y="-90.8" font-family="Times New Roman,serif" font-size="14.00">3,4,</text>
</g>
<!-- Nodo370869802&#45;&gt;Nodo765284253 -->
<g id="edge7" class="edge">
<title>Nodo370869802&#45;&gt;Nodo765284253</title>
<path fill="none" stroke="black" d="M192.56,-150.44C199,-141.69 206.98,-130.85 214.14,-121.13"/>
<polygon fill="black" stroke="black" points="217.05,-123.07 220.16,-112.94 211.41,-118.92 217.05,-123.07"/>
</g>
<!-- Nodo1077199500 -->
<g id="node8" class="node">
<title>Nodo1077199500</title>
<polygon fill="none" stroke="green" points="128,-0.5 128,-38.5 222,-38.5 222,-0.5 128,-0.5"/>
<text text-anchor="middle" x="141.5" y="-15.8" font-family="Times New Roman,serif" font-size="14.00">3,</text>
<polyline fill="none" stroke="green" points="155,-0.5 155,-38.5 "/>
<text text-anchor="middle" x="175" y="-23.3" font-family="Times New Roman,serif" font-size="14.00">letra</text>
<text text-anchor="middle" x="175" y="-8.3" font-family="Times New Roman,serif" font-size="14.00">3</text>
<polyline fill="none" stroke="green" points="195,-0.5 195,-38.5 "/>
<text text-anchor="middle" x="208.5" y="-15.8" font-family="Times New Roman,serif" font-size="14.00">3,</text>
</g>
<!-- Nodo765284253&#45;&gt;Nodo1077199500 -->
<g id="edge8" class="edge">
<title>Nodo765284253&#45;&gt;Nodo1077199500</title>
<path fill="none" stroke="black" d="M219.25,-76.2C212.24,-67.37 203.56,-56.45 195.75,-46.62"/>
<polygon fill="black" stroke="black" points="198.42,-44.35 189.46,-38.69 192.94,-48.7 198.42,-44.35"/>
</g>
<!-- Nodo240166646 -->
<g id="node9" class="node">
<title>Nodo240166646</title>
<polygon fill="none" stroke="green" points="240,-0.5 240,-38.5 342,-38.5 342,-0.5 240,-0.5"/>
<text text-anchor="middle" x="253.5" y="-15.8" font-family="Times New Roman,serif" font-size="14.00">4,</text>
<polyline fill="none" stroke="green" points="267,-0.5 267,-38.5 "/>
<text text-anchor="middle" x="291" y="-23.3" font-family="Times New Roman,serif" font-size="14.00">digito</text>
<text text-anchor="middle" x="291" y="-8.3" font-family="Times New Roman,serif" font-size="14.00">4</text>
<polyline fill="none" stroke="green" points="315,-0.5 315,-38.5 "/>
<text text-anchor="middle" x="328.5" y="-15.8" font-family="Times New Roman,serif" font-size="14.00">4,</text>
</g>
<!-- Nodo765284253&#45;&gt;Nodo240166646 -->
<g id="edge9" class="edge">
<title>Nodo765284253&#45;&gt;Nodo240166646</title>
<path fill="none" stroke="black" d="M246.75,-76.2C253.76,-67.37 262.44,-56.45 270.25,-46.62"/>
<polygon fill="black" stroke="black" points="273.06,-48.7 276.54,-38.69 267.58,-44.35 273.06,-48.7"/>
</g>
</g>
</svg>
