<?xml version="1.0" encoding="UTF-8" standalone="no"?>
<!DOCTYPE svg PUBLIC "-//W3C//DTD SVG 1.1//EN"
 "http://www.w3.org/Graphics/SVG/1.1/DTD/svg11.dtd">
<!-- Generated by graphviz version 2.46.0 (20210118.1747)
 -->
<!-- Title: html Pages: 1 -->
<svg width="154pt" height="158pt"
 viewBox="0.00 0.00 154.00 158.00" xmlns="http://www.w3.org/2000/svg" xmlns:xlink="http://www.w3.org/1999/xlink">
<g id="graph0" class="graph" transform="scale(1 1) rotate(0) translate(4 154)">
<title>html</title>
<polygon fill="white" stroke="transparent" points="-4,4 -4,-154 150,-154 150,4 -4,4"/>
<!-- abc -->
<g id="node1" class="node">
<title>abc</title>
<polygon fill="none" stroke="black" points="0,-125 0,-150 42,-150 42,-125 0,-125"/>
<text text-anchor="start" x="5.5" y="-133.8" font-family="Times New Roman,serif" font-size="14.00">Valor</text>
<polygon fill="none" stroke="black" points="42,-125 42,-150 79,-150 79,-125 42,-125"/>
<text text-anchor="start" x="47" y="-133.8" font-family="Times New Roman,serif" font-size="14.00">Hoja</text>
<polygon fill="none" stroke="black" points="79,-125 79,-150 146,-150 146,-125 79,-125"/>
<text text-anchor="start" x="84" y="-133.8" font-family="Times New Roman,serif" font-size="14.00">Siguientes</text>
<polygon fill="none" stroke="black" points="0,-100 0,-125 42,-125 42,-100 0,-100"/>
<text text-anchor="start" x="5" y="-108.8" font-family="Times New Roman,serif" font-size="14.00">digito</text>
<polygon fill="none" stroke="black" points="42,-100 42,-125 79,-125 79,-100 42,-100"/>
<text text-anchor="start" x="57" y="-108.8" font-family="Times New Roman,serif" font-size="14.00">1</text>
<polygon fill="none" stroke="black" points="79,-100 79,-125 146,-125 146,-100 79,-100"/>
<text text-anchor="start" x="91" y="-108.8" font-family="Times New Roman,serif" font-size="14.00">2,3,4,5,</text>
<polygon fill="none" stroke="black" points="0,-75 0,-100 42,-100 42,-75 0,-75"/>
<text text-anchor="start" x="17" y="-83.8" font-family="Times New Roman,serif" font-size="14.00">_</text>
<polygon fill="none" stroke="black" points="42,-75 42,-100 79,-100 79,-75 42,-75"/>
<text text-anchor="start" x="57" y="-83.8" font-family="Times New Roman,serif" font-size="14.00">2</text>
<polygon fill="none" stroke="black" points="79,-75 79,-100 146,-100 146,-75 79,-75"/>
<text text-anchor="start" x="91" y="-83.8" font-family="Times New Roman,serif" font-size="14.00">2,3,4,5,</text>
<polygon fill="none" stroke="black" points="0,-50 0,-75 42,-75 42,-50 0,-50"/>
<text text-anchor="start" x="9" y="-58.8" font-family="Times New Roman,serif" font-size="14.00">letra</text>
<polygon fill="none" stroke="black" points="42,-50 42,-75 79,-75 79,-50 42,-50"/>
<text text-anchor="start" x="57" y="-58.8" font-family="Times New Roman,serif" font-size="14.00">3</text>
<polygon fill="none" stroke="black" points="79,-50 79,-75 146,-75 146,-50 79,-50"/>
<text text-anchor="start" x="91" y="-58.8" font-family="Times New Roman,serif" font-size="14.00">2,3,4,5,</text>
<polygon fill="none" stroke="black" points="0,-25 0,-50 42,-50 42,-25 0,-25"/>
<text text-anchor="start" x="5" y="-33.8" font-family="Times New Roman,serif" font-size="14.00">digito</text>
<polygon fill="none" stroke="black" points="42,-25 42,-50 79,-50 79,-25 42,-25"/>
<text text-anchor="start" x="57" y="-33.8" font-family="Times New Roman,serif" font-size="14.00">4</text>
<polygon fill="none" stroke="black" points="79,-25 79,-50 146,-50 146,-25 79,-25"/>
<text text-anchor="start" x="91" y="-33.8" font-family="Times New Roman,serif" font-size="14.00">2,3,4,5,</text>
<polygon fill="none" stroke="black" points="0,0 0,-25 42,-25 42,0 0,0"/>
<text text-anchor="start" x="17" y="-8.8" font-family="Times New Roman,serif" font-size="14.00">#</text>
<polygon fill="none" stroke="black" points="42,0 42,-25 79,-25 79,0 42,0"/>
<text text-anchor="start" x="57" y="-8.8" font-family="Times New Roman,serif" font-size="14.00">5</text>
<polygon fill="none" stroke="black" points="79,0 79,-25 146,-25 146,0 79,0"/>
</g>
</g>
</svg>
