<?xml version="1.0" encoding="UTF-8" standalone="no"?>
<!DOCTYPE svg PUBLIC "-//W3C//DTD SVG 1.1//EN"
 "http://www.w3.org/Graphics/SVG/1.1/DTD/svg11.dtd">
<!-- Generated by graphviz version 2.46.0 (20210118.1747)
 -->
<!-- Title: html Pages: 1 -->
<svg width="269pt" height="133pt"
 viewBox="0.00 0.00 269.00 133.00" xmlns="http://www.w3.org/2000/svg" xmlns:xlink="http://www.w3.org/1999/xlink">
<g id="graph0" class="graph" transform="scale(1 1) rotate(0) translate(4 129)">
<title>html</title>
<polygon fill="white" stroke="transparent" points="-4,4 -4,-129 265,-129 265,4 -4,4"/>
<!-- abc -->
<g id="node1" class="node">
<title>abc</title>
<polygon fill="skyblue" stroke="transparent" points="100.5,-74.5 100.5,-124.5 174.5,-124.5 174.5,-74.5 100.5,-74.5"/>
<polygon fill="none" stroke="black" points="100.5,-74.5 100.5,-124.5 174.5,-124.5 174.5,-74.5 100.5,-74.5"/>
<text text-anchor="start" x="105.5" y="-95.8" font-family="Times New Roman,serif" font-size="14.00">ESTADOS</text>
<polygon fill="lightgrey" stroke="transparent" points="174.5,-99.5 174.5,-124.5 261.5,-124.5 261.5,-99.5 174.5,-99.5"/>
<polygon fill="none" stroke="black" points="174.5,-99.5 174.5,-124.5 261.5,-124.5 261.5,-99.5 174.5,-99.5"/>
<text text-anchor="start" x="213.5" y="-108.3" font-family="Times New Roman,serif" font-size="14.00">Σ</text>
<polygon fill="none" stroke="black" points="0.5,-74.5 0.5,-99.5 100.5,-99.5 100.5,-74.5 0.5,-74.5"/>
<text text-anchor="start" x="34.5" y="-83.3" font-family="Times New Roman,serif" font-size="14.00">digito</text>
<polygon fill="none" stroke="black" points="174.5,-74.5 174.5,-99.5 192.5,-99.5 192.5,-74.5 174.5,-74.5"/>
<text text-anchor="start" x="179.5" y="-83.3" font-family="Times New Roman,serif" font-size="14.00">_</text>
<polygon fill="none" stroke="black" points="192.5,-74.5 192.5,-99.5 226.5,-99.5 226.5,-74.5 192.5,-74.5"/>
<text text-anchor="start" x="197.5" y="-83.3" font-family="Times New Roman,serif" font-size="14.00">letra</text>
<polygon fill="none" stroke="black" points="226.5,-74.5 226.5,-99.5 244.5,-99.5 244.5,-74.5 226.5,-74.5"/>
<text text-anchor="start" x="231.5" y="-83.3" font-family="Times New Roman,serif" font-size="14.00">#</text>
<polygon fill="none" stroke="black" points="100.5,-49.5 100.5,-74.5 174.5,-74.5 174.5,-49.5 100.5,-49.5"/>
<text text-anchor="start" x="129.5" y="-58.3" font-family="Times New Roman,serif" font-size="14.00">S0</text>
<polygon fill="none" stroke="black" points="174.5,-49.5 174.5,-74.5 192.5,-74.5 192.5,-49.5 174.5,-49.5"/>
<text text-anchor="start" x="180" y="-58.3" font-family="Times New Roman,serif" font-size="14.00">1</text>
<polygon fill="none" stroke="black" points="0.5,-24.5 0.5,-49.5 100.5,-49.5 100.5,-24.5 0.5,-24.5"/>
<text text-anchor="start" x="5.5" y="-33.3" font-family="Times New Roman,serif" font-size="14.00">ACEPTACION</text>
<polygon fill="none" stroke="black" points="100.5,-24.5 100.5,-49.5 174.5,-49.5 174.5,-24.5 100.5,-24.5"/>
<text text-anchor="start" x="129.5" y="-33.3" font-family="Times New Roman,serif" font-size="14.00">S1</text>
<polygon fill="none" stroke="black" points="174.5,-24.5 174.5,-49.5 192.5,-49.5 192.5,-24.5 174.5,-24.5"/>
<text text-anchor="start" x="180" y="-33.3" font-family="Times New Roman,serif" font-size="14.00">2</text>
<polygon fill="none" stroke="black" points="192.5,-24.5 192.5,-49.5 226.5,-49.5 226.5,-24.5 192.5,-24.5"/>
<text text-anchor="start" x="206" y="-33.3" font-family="Times New Roman,serif" font-size="14.00">3</text>
<polygon fill="none" stroke="black" points="226.5,-24.5 226.5,-49.5 244.5,-49.5 244.5,-24.5 226.5,-24.5"/>
<text text-anchor="start" x="232" y="-33.3" font-family="Times New Roman,serif" font-size="14.00">4</text>
<polygon fill="none" stroke="black" points="244.5,-24.5 244.5,-49.5 261.5,-49.5 261.5,-24.5 244.5,-24.5"/>
<text text-anchor="start" x="249.5" y="-33.3" font-family="Times New Roman,serif" font-size="14.00">5</text>
<polygon fill="none" stroke="black" points="0.5,0.5 0.5,-24.5 100.5,-24.5 100.5,0.5 0.5,0.5"/>
<text text-anchor="start" x="5.5" y="-8.3" font-family="Times New Roman,serif" font-size="14.00">ACEPTACION</text>
<polygon fill="none" stroke="black" points="100.5,0.5 100.5,-24.5 174.5,-24.5 174.5,0.5 100.5,0.5"/>
<text text-anchor="start" x="129.5" y="-8.3" font-family="Times New Roman,serif" font-size="14.00">S2</text>
</g>
</g>
</svg>
